<svg width="25" height="24" viewBox="0 0 25 24" fill="none" xmlns="http://www.w3.org/2000/svg">
<path d="M11.9809 13.7299C13.5328 13.7299 14.7909 12.4718 14.7909 10.9199C14.7909 9.36794 13.5328 8.10986 11.9809 8.10986C10.429 8.10986 9.1709 9.36794 9.1709 10.9199C9.1709 12.4718 10.429 13.7299 11.9809 13.7299Z" stroke="#444444" stroke-width="1.5" stroke-linecap="round" stroke-linejoin="round"/>
<path d="M17.171 20.1998C17.171 17.8698 14.851 15.9697 11.981 15.9697C9.11101 15.9697 6.79102 17.8598 6.79102 20.1998" stroke="#444444" stroke-width="1.5" stroke-linecap="round" stroke-linejoin="round"/>
<path d="M21.5215 12.5C21.5215 17.75 17.2715 22 12.0215 22C6.77148 22 2.52148 17.75 2.52148 12.5C2.52148 7.25 6.77148 3 12.0215 3C13.3315 3 14.5815 3.25999 15.7215 3.73999C15.5915 4.13999 15.5215 4.56 15.5215 5C15.5215 5.75 15.7315 6.46 16.1015 7.06C16.3015 7.4 16.5615 7.70997 16.8615 7.96997C17.5615 8.60997 18.4915 9 19.5215 9C19.9615 9 20.3815 8.92998 20.7715 8.78998C21.2515 9.92998 21.5215 11.19 21.5215 12.5Z" stroke="#444444" stroke-width="1.5" stroke-linecap="round" stroke-linejoin="round"/>
<path d="M23.5215 5C23.5215 5.32 23.4815 5.62999 23.4015 5.92999C23.3115 6.32999 23.1515 6.72 22.9415 7.06C22.4615 7.87 21.6915 8.49998 20.7715 8.78998C20.3815 8.92998 19.9615 9 19.5215 9C18.4915 9 17.5615 8.60997 16.8615 7.96997C16.5615 7.70997 16.3015 7.4 16.1015 7.06C15.7315 6.46 15.5215 5.75 15.5215 5C15.5215 4.56 15.5915 4.13999 15.7215 3.73999C15.9115 3.15999 16.2315 2.64002 16.6515 2.21002C17.3815 1.46002 18.4015 1 19.5215 1C20.7015 1 21.7715 1.51002 22.4915 2.33002C23.1315 3.04002 23.5215 3.98 23.5215 5Z" stroke="#444444" stroke-width="1.5" stroke-miterlimit="10" stroke-linecap="round" stroke-linejoin="round"/>
<path d="M21.0115 4.97998H18.0315" stroke="#444444" stroke-width="1.5" stroke-miterlimit="10" stroke-linecap="round" stroke-linejoin="round"/>
<path d="M19.5215 3.52002V6.51001" stroke="#444444" stroke-width="1.5" stroke-miterlimit="10" stroke-linecap="round" stroke-linejoin="round"/>
</svg>
