<svg width="25" height="24" viewBox="0 0 25 24" fill="none" xmlns="http://www.w3.org/2000/svg">
<path d="M12.5028 2.14984L21.5028 5.74982C21.8528 5.88982 22.1328 6.30981 22.1328 6.67981V9.99982C22.1328 10.5498 21.6828 10.9998 21.1328 10.9998H3.13281C2.58281 10.9998 2.13281 10.5498 2.13281 9.99982V6.67981C2.13281 6.30981 2.41282 5.88982 2.76282 5.74982L11.7628 2.14984C11.9628 2.06984 12.3028 2.06984 12.5028 2.14984Z" stroke="#292D32" stroke-width="1.5" stroke-miterlimit="10" stroke-linecap="round" stroke-linejoin="round"/>
<path d="M22.1328 22H2.13281V19C2.13281 18.45 2.58281 18 3.13281 18H21.1328C21.6828 18 22.1328 18.45 22.1328 19V22Z" stroke="#292D32" stroke-width="1.5" stroke-miterlimit="10" stroke-linecap="round" stroke-linejoin="round"/>
<path d="M4.13281 18V11" stroke="#292D32" stroke-width="1.5" stroke-miterlimit="10" stroke-linecap="round" stroke-linejoin="round"/>
<path d="M8.13281 18V11" stroke="#292D32" stroke-width="1.5" stroke-miterlimit="10" stroke-linecap="round" stroke-linejoin="round"/>
<path d="M12.1328 18V11" stroke="#292D32" stroke-width="1.5" stroke-miterlimit="10" stroke-linecap="round" stroke-linejoin="round"/>
<path d="M16.1328 18V11" stroke="#292D32" stroke-width="1.5" stroke-miterlimit="10" stroke-linecap="round" stroke-linejoin="round"/>
<path d="M20.1328 18V11" stroke="#292D32" stroke-width="1.5" stroke-miterlimit="10" stroke-linecap="round" stroke-linejoin="round"/>
<path d="M1.13281 22H23.1328" stroke="#292D32" stroke-width="1.5" stroke-miterlimit="10" stroke-linecap="round" stroke-linejoin="round"/>
<path d="M12.1328 8.5C12.9612 8.5 13.6328 7.82843 13.6328 7C13.6328 6.17157 12.9612 5.5 12.1328 5.5C11.3044 5.5 10.6328 6.17157 10.6328 7C10.6328 7.82843 11.3044 8.5 12.1328 8.5Z" stroke="#292D32" stroke-width="1.5" stroke-miterlimit="10" stroke-linecap="round" stroke-linejoin="round"/>
</svg>
