<svg width="57" height="56" viewBox="0 0 57 56" fill="none" xmlns="http://www.w3.org/2000/svg">
<g opacity="0.3" filter="url(#filter0_f_686_16715)">
<path d="M27.9622 10.0484C28.32 10.0162 28.68 10.0162 29.0378 10.0484L30.1049 10.1445C30.4627 10.1767 30.8169 10.241 31.1632 10.3365L32.196 10.6216C32.5423 10.7171 32.8793 10.8436 33.203 10.9995L34.1683 11.4644C34.492 11.6202 34.801 11.8049 35.0917 12.0161L35.9584 12.6458C36.2491 12.857 36.5202 13.0938 36.7684 13.3535L37.5088 14.1278C37.7571 14.3875 37.9815 14.669 38.1795 14.9688L38.7697 15.8629C38.9676 16.1628 39.1382 16.4798 39.2794 16.8102L39.7004 17.7953C39.8417 18.1257 39.9529 18.468 40.0328 18.8183L40.2712 19.8628C40.3512 20.213 40.3995 20.5698 40.4156 20.9287L40.4637 21.999C40.4798 22.3579 40.4637 22.7175 40.4154 23.0735L40.2716 24.1352C40.2234 24.4912 40.1433 24.8422 40.0323 25.1839L39.7012 26.2028C39.5902 26.5445 39.4487 26.8755 39.2784 27.1919L38.7708 28.1353C38.6005 28.4517 38.4022 28.7521 38.1782 29.033L37.5102 29.8706C37.2862 30.1515 37.0374 30.4117 36.7669 30.6481L35.9601 31.3529C35.6895 31.5893 35.3983 31.8009 35.0899 31.9852L34.1702 32.5347C33.8618 32.719 33.5374 32.8752 33.201 33.0014L32.198 33.3778C31.8617 33.5041 31.5146 33.5999 31.1611 33.664L30.107 33.8553C29.7535 33.9195 29.3949 33.9517 29.0357 33.9517H27.9643C27.6051 33.9517 27.2465 33.9195 26.893 33.8553L25.8389 33.664C25.4854 33.5999 25.1384 33.5041 24.802 33.3778L23.799 33.0014C23.4626 32.8752 23.1383 32.719 22.8298 32.5347L21.9102 31.9852C21.6017 31.8009 21.3105 31.5893 21.0399 31.353L20.2331 30.6481C19.9626 30.4117 19.7138 30.1515 19.4898 29.8706L18.8218 29.033C18.5978 28.7521 18.3995 28.4517 18.2292 28.1353L17.7216 27.1919C17.5513 26.8755 17.4098 26.5445 17.2988 26.2028L16.9677 25.1839C16.8567 24.8422 16.7766 24.4912 16.7284 24.1352L16.5846 23.0735C16.5363 22.7175 16.5202 22.3579 16.5363 21.999L16.5844 20.9287C16.6005 20.5698 16.6488 20.213 16.7288 19.8628L16.9672 18.8183C17.0471 18.468 17.1584 18.1257 17.2996 17.7953L17.7206 16.8102C17.8618 16.4798 18.0324 16.1628 18.2303 15.8629L18.8205 14.9688C19.0185 14.669 19.2429 14.3875 19.4912 14.1278L20.2316 13.3535C20.4798 13.0938 20.751 12.857 21.0416 12.6458L21.9083 12.0161C22.199 11.8049 22.508 11.6202 22.8317 11.4644L23.797 10.9995C24.1207 10.8436 24.4577 10.7171 24.8041 10.6216L25.8368 10.3365C26.1831 10.241 26.5373 10.1767 26.8952 10.1445L27.9622 10.0484Z" fill="#6B3D0F"/>
</g>
<g opacity="0.4" filter="url(#filter1_f_686_16715)">
<path d="M27.9621 15.0484C28.32 15.0162 28.68 15.0162 29.0378 15.0484L30.2834 15.1605C30.6412 15.1928 30.9954 15.257 31.3418 15.3526L32.5473 15.6853C32.8936 15.7809 33.2307 15.9074 33.5544 16.0633L34.6811 16.6059C35.0048 16.7618 35.3139 16.9464 35.6045 17.1576L36.6163 17.8927C36.907 18.1039 37.1781 18.3407 37.4264 18.6004L38.2906 19.5044C38.5389 19.764 38.7633 20.0455 38.9613 20.3453L39.6502 21.3891C39.8482 21.6889 40.0187 22.0059 40.16 22.3363L40.6515 23.4863C40.7927 23.8166 40.9039 24.159 40.9839 24.5093L41.2622 25.7285C41.3421 26.0788 41.3904 26.4356 41.4065 26.7945L41.4627 28.0438C41.4788 28.4027 41.4626 28.7624 41.4144 29.1184L41.2465 30.3577C41.1983 30.7137 41.1182 31.0647 41.0072 31.4064L40.6207 32.5958C40.5097 32.9375 40.3682 33.2685 40.1979 33.5849L39.6053 34.6862C39.4351 35.0026 39.2367 35.303 39.0127 35.5839L38.233 36.5617C38.009 36.8426 37.7602 37.1028 37.4896 37.3391L36.5478 38.162C36.2773 38.3984 35.986 38.61 35.6776 38.7942L34.604 39.4357C34.2956 39.6199 33.9713 39.7761 33.6349 39.9024L32.464 40.3418C32.1277 40.4681 31.7806 40.5638 31.4271 40.628L30.1966 40.8513C29.8431 40.9154 29.4846 40.9477 29.1253 40.9477H27.8747C27.5154 40.9477 27.1568 40.9154 26.8033 40.8513L25.5728 40.628C25.2193 40.5638 24.8723 40.4681 24.5359 40.3418L23.3651 39.9024C23.0287 39.7761 22.7043 39.6199 22.3959 39.4357L21.3223 38.7942C21.0139 38.61 20.7227 38.3984 20.4521 38.162L19.5103 37.3391C19.2397 37.1028 18.991 36.8426 18.7669 36.5617L17.9872 35.5839C17.7632 35.303 17.5649 35.0026 17.3946 34.6862L16.802 33.5849C16.6318 33.2685 16.4903 32.9375 16.3792 32.5958L15.9928 31.4064C15.8818 31.0647 15.8017 30.7137 15.7534 30.3577L15.5856 29.1184C15.5373 28.7624 15.5212 28.4027 15.5373 28.0438L15.5934 26.7945C15.6095 26.4356 15.6578 26.0788 15.7378 25.7285L16.0161 24.5093C16.096 24.159 16.2073 23.8166 16.3485 23.4863L16.84 22.3363C16.9812 22.0059 17.1518 21.6889 17.3497 21.3891L18.0387 20.3453C18.2366 20.0455 18.4611 19.764 18.7093 19.5044L19.5736 18.6004C19.8219 18.3407 20.093 18.1039 20.3836 17.8927L21.3954 17.1576C21.6861 16.9464 21.9951 16.7618 22.3188 16.6059L23.4456 16.0633C23.7693 15.9074 24.1063 15.7809 24.4527 15.6853L25.6582 15.3526C26.0045 15.257 26.3587 15.1928 26.7166 15.1605L27.9621 15.0484Z" fill="#6B3D0F"/>
</g>
<path d="M27.962 2.04845C28.3199 2.01624 28.6799 2.01624 29.0377 2.04845L30.819 2.20876C31.1768 2.24097 31.531 2.30525 31.8773 2.40083L33.6013 2.87662C33.9477 2.9722 34.2847 3.0987 34.6084 3.25458L36.2197 4.03056C36.5434 4.18644 36.8525 4.37109 37.1431 4.58227L38.59 5.63349C38.8807 5.84467 39.1518 6.08153 39.4001 6.34121L40.636 7.63389C40.8843 7.89357 41.1087 8.17504 41.3067 8.47488L42.2919 9.96746C42.4898 10.2673 42.6604 10.5843 42.8016 10.9147L43.5045 12.5592C43.6458 12.8896 43.757 13.232 43.837 13.5822L44.2349 15.3258C44.3149 15.6761 44.3632 16.0329 44.3793 16.3918L44.4595 18.1784C44.4757 18.5373 44.4595 18.897 44.4113 19.253L44.1712 21.0253C44.123 21.3813 44.0429 21.7323 43.9319 22.074L43.3792 23.7749C43.2682 24.1166 43.1267 24.4476 42.9564 24.764L42.1089 26.3389C41.9387 26.6552 41.7404 26.9557 41.5164 27.2366L40.4013 28.6348C40.1773 28.9157 39.9285 29.176 39.6579 29.4123L38.3111 30.589C38.0405 30.8254 37.7493 31.037 37.4409 31.2213L35.9056 32.1386C35.5972 32.3228 35.2728 32.479 34.9364 32.6053L33.262 33.2337C32.9257 33.3599 32.5786 33.4557 32.2251 33.5199L30.4654 33.8392C30.1119 33.9034 29.7534 33.9356 29.3941 33.9356H27.6057C27.2464 33.9356 26.8878 33.9034 26.5343 33.8392L24.7746 33.5199C24.4211 33.4557 24.0741 33.3599 23.7377 33.2337L22.0633 32.6053C21.7269 32.479 21.4026 32.3228 21.0942 32.1386L19.5589 31.2213C19.2505 31.037 18.9592 30.8254 18.6887 30.589L17.3418 29.4123C17.0713 29.176 16.8225 28.9157 16.5985 28.6348L15.4834 27.2366C15.2594 26.9557 15.0611 26.6552 14.8908 26.3389L14.0433 24.764C13.8731 24.4476 13.7316 24.1166 13.6206 23.7749L13.0679 22.074C12.9569 21.7323 12.8768 21.3813 12.8285 21.0253L12.5885 19.253C12.5403 18.897 12.5241 18.5373 12.5402 18.1784L12.6205 16.3918C12.6366 16.0329 12.6849 15.6761 12.7648 15.3258L13.1628 13.5822C13.2428 13.232 13.354 12.8896 13.4952 12.5592L14.1981 10.9147C14.3393 10.5843 14.5099 10.2673 14.7078 9.96746L15.6931 8.47488C15.891 8.17504 16.1155 7.89357 16.3638 7.63389L17.5997 6.34121C17.848 6.08153 18.1191 5.84467 18.4097 5.63349L19.8566 4.58227C20.1473 4.37109 20.4563 4.18644 20.78 4.03056L22.3914 3.25458C22.7151 3.0987 23.0521 2.9722 23.3984 2.87662L25.1224 2.40083C25.4688 2.30525 25.823 2.24097 26.1808 2.20876L27.962 2.04845Z" fill="url(#paint0_linear_686_16715)"/>
<path d="M28.5 13.89L25.5869 16.8031L23.892 15.108L28.5 10.5L33.1095 15.1094L31.4145 16.8044L28.5 13.89Z" fill="white"/>
<path d="M22.6951 16.3047L21 18L22.6949 19.6947L24.39 17.9996L22.6951 16.3047Z" fill="white"/>
<path d="M28.5 22.11L25.5869 19.1971L23.8896 20.8896L28.5 25.5L33.1095 20.8907L33.1103 20.8898L31.4144 19.1957L28.5 22.11Z" fill="white"/>
<path d="M34.3051 16.3057L32.61 18.0007L34.305 19.6957L36 18.0006L34.3051 16.3057Z" fill="white"/>
<path d="M30.2196 17.9987H30.219L30.2206 17.9995L30.2197 18.0005L28.4997 19.7204L26.7813 18.0017L26.7789 17.9993L26.7813 17.9969L28.4997 16.2787L30.2196 17.9987Z" fill="white"/>
<defs>
<filter id="filter0_f_686_16715" x="10.5303" y="4.02429" width="35.9395" height="35.9275" filterUnits="userSpaceOnUse" color-interpolation-filters="sRGB">
<feFlood flood-opacity="0" result="BackgroundImageFix"/>
<feBlend mode="normal" in="SourceGraphic" in2="BackgroundImageFix" result="shape"/>
<feGaussianBlur stdDeviation="3" result="effect1_foregroundBlur_686_16715"/>
</filter>
<filter id="filter1_f_686_16715" x="0.53125" y="0.024292" width="55.9375" height="55.9235" filterUnits="userSpaceOnUse" color-interpolation-filters="sRGB">
<feFlood flood-opacity="0" result="BackgroundImageFix"/>
<feBlend mode="normal" in="SourceGraphic" in2="BackgroundImageFix" result="shape"/>
<feGaussianBlur stdDeviation="7.5" result="effect1_foregroundBlur_686_16715"/>
</filter>
<linearGradient id="paint0_linear_686_16715" x1="28.4999" y1="2.02429" x2="28.4999" y2="33.9356" gradientUnits="userSpaceOnUse">
<stop stop-color="#F4BA45"/>
<stop offset="1" stop-color="#F19C3B"/>
</linearGradient>
</defs>
</svg>
