<svg width="25" height="24" viewBox="0 0 25 24" fill="none" xmlns="http://www.w3.org/2000/svg">
<path d="M7.28141 22H17.7614C20.5214 22 21.6214 20.31 21.7514 18.25L22.2714 9.99C22.4114 7.83 20.6914 6 18.5214 6C17.9114 6 17.3514 5.65 17.0714 5.11L16.3514 3.66C15.8914 2.75 14.6914 2 13.6714 2H11.3814C10.3514 2 9.15141 2.75 8.69141 3.66L7.97141 5.11C7.69141 5.65 7.13141 6 6.52141 6C4.35141 6 2.63141 7.83 2.77141 9.99L3.29141 18.25C3.41141 20.31 4.52141 22 7.28141 22Z" stroke="#444444" stroke-width="1.5" stroke-linecap="round" stroke-linejoin="round"/>
<path d="M11.0215 8H14.0215" stroke="#444444" stroke-width="1.5" stroke-linecap="round" stroke-linejoin="round"/>
<path d="M12.5215 18C14.3115 18 15.7715 16.54 15.7715 14.75C15.7715 12.96 14.3115 11.5 12.5215 11.5C10.7315 11.5 9.27148 12.96 9.27148 14.75C9.27148 16.54 10.7315 18 12.5215 18Z" stroke="#444444" stroke-width="1.5" stroke-linecap="round" stroke-linejoin="round"/>
</svg>
