<svg width="72" height="79" viewBox="0 0 72 79" fill="none" xmlns="http://www.w3.org/2000/svg">
<path fill-rule="evenodd" clip-rule="evenodd" d="M13.3787 9.41814L15.0118 9.67891L16.6934 10.1535L50.2162 22.3405L51.6833 22.9391L53.0916 23.699L54.4305 24.6035L55.6892 25.6364L56.8566 26.782L57.9214 28.0251L58.8719 29.3507L59.6962 30.7439L60.3817 32.1901L60.9155 33.6747L61.2839 35.1832L61.4729 36.7008L62.07 69.8016L62.07 69.8026L61.8689 71.4106L61.4729 72.898L60.8922 74.2518L60.1371 75.4583L59.2183 76.503L58.1466 77.3711L56.9333 78.0473L55.5908 78.5156L54.1311 78.7605L52.5684 78.7656L50.9161 78.5154L13.8774 70.6174L12.0677 70.1991L10.164 69.3833L8.3442 68.2016L6.71531 66.9729L5.2277 65.57L3.90089 64.0168L2.75377 62.3376L1.80445 60.5572L1.07027 58.7006L0.567576 56.7932L0.311523 54.8594L0.316501 52.9247L3.25798 17.2834L3.49407 15.7319L3.95329 14.3321L4.616 13.0916L5.46275 12.0177L6.47449 11.117L7.63263 10.3956L8.91916 9.85945L10.3167 9.51408L11.8085 9.36511L13.3787 9.41814ZM62.07 69.8016L61.4729 36.7008L62.0661 68.0863L62.07 69.8016Z" fill="url(#paint0_linear_3156_11463)" fill-opacity="0.5"/>
<path fill-rule="evenodd" clip-rule="evenodd" d="M10.6436 6.36679L10.4075 7.91829L7.61629 46.3632L7.61132 48.2979L7.86731 50.2315L8.37005 52.1391L9.10425 53.9957L10.0536 55.7761L11.2007 57.4553L12.5275 59.0085L14.0151 60.4114L15.644 61.6401L17.3941 62.6716L19.2451 63.4839L21.1763 64.0557L60.7875 73.0275L62.4397 73.2778L64.0025 73.2726L65.462 73.0278L66.8045 72.5595L65.4678 73.3517L64.2592 74.0255L62.9821 74.7831L64.2586 74.0258L64.2592 74.0255L65.4678 73.3517L66.8045 72.5595L68.0179 71.8833L65.469 73.351L65.4684 73.3514L65.4678 73.3517L64.2592 74.0255L62.9821 74.7831L60.5568 76.1797L58.1902 77.5425L56.9941 78.2098L55.6767 78.6786L54.2504 78.9335L52.7288 78.9591L51.1258 78.7401L12.9037 70.6628L11.0497 70.1417L9.27728 69.389L7.60573 68.4247L6.05423 67.2698L4.64154 65.9459L3.38596 64.4754L2.3052 62.8814L1.41628 61.187L0.73544 59.416L0.278063 57.5919L0.0585938 55.7384L0.090473 53.8791L3.33183 16.7198L3.58274 15.2108L4.04764 13.8437L6.4076 10.4826L7.24652 9.41885L8.99123 7.21876L10.779 4.96432L12.6105 2.65479L11.7655 3.72647L11.1028 4.96691L10.6436 6.36679Z" fill="url(#paint1_linear_3156_11463)"/>
<g filter="url(#filter0_b_3156_11463)">
<path fill-rule="evenodd" clip-rule="evenodd" d="M20.5282 0.0530236L22.1614 0.313802L23.8429 0.788354L58.469 12.6667L59.9361 13.2652L61.3444 14.0251L62.6834 14.9296L63.942 15.9625L65.1094 17.1082L66.1742 18.3513L67.1248 19.6768L67.9491 21.07L68.6346 22.5162L69.1683 24.0009L69.5368 25.5093L69.7258 27.027L71.9414 64.3138L71.9415 64.3148L71.7403 65.9228L71.3444 67.4102L70.7637 68.764L70.0086 69.9705L69.0897 71.0153L68.018 71.8833L66.8047 72.5595L65.4622 73.0278L64.0026 73.2727L62.4398 73.2778L60.7875 73.0276L21.1772 64.0559L19.3675 63.6377L17.4638 62.8218L15.644 61.6401L14.0151 60.4114L12.5275 59.0086L11.2007 57.4554L10.0536 55.7761L9.10426 53.9957L8.37007 52.1391L7.86738 50.2317L7.61133 48.298L7.61631 46.3632L10.4075 7.91834L10.6436 6.36683L11.1028 4.96695L11.7655 3.72651L12.6123 2.65263L13.624 1.75191L14.7822 1.03053L16.0687 0.494339L17.4662 0.148967L18.9581 0L20.5282 0.0530236ZM71.9414 64.3138L69.7258 27.027L71.9376 62.5985L71.9414 64.3138Z" fill="url(#paint2_linear_3156_11463)" fill-opacity="0.3"/>
<path d="M71.4396 64.2985L71.2484 65.827L70.8705 67.2465L70.3194 68.5315L69.6063 69.6708L68.7421 70.6533L67.7369 71.4675L66.5991 72.1016L65.3376 72.5417L63.9601 72.7728L62.4766 72.7777L60.8803 72.5359L21.2898 63.5688L21.2876 63.5683L19.5235 63.1605L17.7001 62.3791L15.9311 61.2304L14.3382 60.0288L12.8901 58.6633L11.5984 57.1511L10.4819 55.5167L9.55879 53.7855L8.84598 51.983L8.35891 50.1348L8.11141 48.2656L8.11626 46.382L10.9048 7.97414L11.1317 6.48316L11.5644 5.16416L12.1856 4.00126L12.9777 2.9968L13.9246 2.15375L15.012 1.47642L16.2258 0.970566L17.5515 0.642941L18.9745 0.500841L20.4802 0.551686L22.0537 0.802941L23.6938 1.2658L58.2933 13.135L59.7223 13.718L61.0852 14.4534L62.3842 15.3309L63.6077 16.3349L64.7438 17.4499L65.7805 18.6602L66.7057 19.9503L67.5071 21.3049L68.1723 22.7083L68.6889 24.1451L69.0442 25.5999L69.2276 27.0728L71.4396 64.2985Z" stroke="url(#paint3_linear_3156_11463)"/>
</g>
<g filter="url(#filter1_d_3156_11463)">
<path fill-rule="evenodd" clip-rule="evenodd" d="M24.2025 30.5354L25.7586 28.8693L23.9141 30.8447L24.2025 30.5354ZM61.7469 31.9005L40.8041 47.4168L40.8022 47.4182L40.4335 47.6462L40.0353 47.8092L39.6132 47.9085L39.1732 47.945L38.7212 47.9199L38.2632 47.8345L37.8052 47.6901L37.3535 47.488L36.9141 47.2296L36.2613 48.0708L35.6086 48.912L36.0555 49.11L36.5087 49.2509L36.9623 49.3333L37.4104 49.356L37.8467 49.3179L38.2657 49.2178L38.6614 49.0546L39.0281 48.8273L59.9046 33.3496L59.9057 33.3488L61.7469 31.9005ZM25.469 29.1799L23.9141 30.8447L23.6835 31.1947L23.5113 31.5798L23.3982 31.9941L23.3447 32.4318L23.3515 32.8868L23.4191 33.3531L23.5479 33.8246L23.7384 34.2951L23.9908 34.7583L24.3054 35.208L34.0079 47.5782L34.3678 47.9898L34.7587 48.3504L35.1743 48.6583L35.6086 48.912L36.2613 48.0708L36.9141 47.2296L36.4932 46.9165L36.0971 46.5503L35.732 46.1327L25.8832 33.588L25.5637 33.1322L25.3068 32.663L25.1125 32.1869L24.9804 31.7101L24.9101 31.2388L24.9013 30.7793L24.9533 30.3376L25.0657 29.9199L25.2378 29.532L25.469 29.1799ZM25.469 29.1799L25.7586 28.8693L23.9141 30.8447L25.469 29.1799Z" fill="url(#paint4_linear_3156_11463)"/>
<path fill-rule="evenodd" clip-rule="evenodd" d="M61.5761 27.5641L61.8544 27.9626L62.0856 28.3708L62.2695 28.7839L62.4059 29.1971L62.4946 29.6053L62.5352 30.0037L62.5274 30.3872L62.4708 30.7507L62.3649 31.089L62.2093 31.397L62.0035 31.6692L61.747 31.9005L40.8037 47.4172L40.8023 47.4182L40.4336 47.6462L40.0354 47.8092L39.6133 47.9085L39.1733 47.945L38.7212 47.9199L38.2632 47.8345L37.8053 47.6901L37.3535 47.488L36.9141 47.2296L36.4933 46.9165L38.4298 39.1473L57.3247 26.1504L57.6283 25.9816L57.9578 25.8711L58.308 25.8171L58.674 25.8176L59.0506 25.8707L59.433 25.9744L59.8163 26.127L60.1955 26.3267L60.5659 26.5719L60.9227 26.8609L61.261 27.1921L61.5761 27.5641ZM24.9535 30.3374L25.0658 29.9199L25.2378 29.5322L26.4979 28.4015L28.2747 28.2198L28.7409 28.3231L29.2039 28.482L29.6579 28.6946L30.0971 28.9593L30.5157 29.2744L30.9078 29.6383L31.2678 30.0495L38.4298 39.1473L36.4933 46.9165L36.0972 46.5503L35.7321 46.1327L25.8833 33.5879L25.5637 33.1322L25.3069 32.663L25.1126 32.1869L24.9805 31.7101L24.9102 31.2388L24.9014 30.7793L24.9535 30.3374ZM28.2747 28.2198L27.8113 28.174L27.3568 28.1876L26.9169 28.2628L26.4979 28.4015L28.2747 28.2198ZM26.4979 28.4015L26.1062 28.6058L25.7588 28.8692L25.4691 29.1799L25.2378 29.5322L26.4979 28.4015Z" fill="url(#paint5_linear_3156_11463)"/>
</g>
<defs>
<filter id="filter0_b_3156_11463" x="-5.38867" y="-13" width="90.3301" height="99.2778" filterUnits="userSpaceOnUse" color-interpolation-filters="sRGB">
<feFlood flood-opacity="0" result="BackgroundImageFix"/>
<feGaussianBlur in="BackgroundImageFix" stdDeviation="6.5"/>
<feComposite in2="SourceAlpha" operator="in" result="effect1_backgroundBlur_3156_11463"/>
<feBlend mode="normal" in="SourceGraphic" in2="effect1_backgroundBlur_3156_11463" result="shape"/>
</filter>
<filter id="filter1_d_3156_11463" x="6.63941" y="21.1768" width="65.1765" height="49.525" filterUnits="userSpaceOnUse" color-interpolation-filters="sRGB">
<feFlood flood-opacity="0" result="BackgroundImageFix"/>
<feColorMatrix in="SourceAlpha" type="matrix" values="0 0 0 0 0 0 0 0 0 0 0 0 0 0 0 0 0 0 127 0" result="hardAlpha"/>
<feOffset dx="-3.71229" dy="8.35266"/>
<feGaussianBlur stdDeviation="6.49651"/>
<feComposite in2="hardAlpha" operator="out"/>
<feColorMatrix type="matrix" values="0 0 0 0 0.103333 0 0 0 0 0.4104 0 0 0 0 0.43 0 0 0 0.25 0"/>
<feBlend mode="normal" in2="BackgroundImageFix" result="effect1_dropShadow_3156_11463"/>
<feBlend mode="normal" in="SourceGraphic" in2="effect1_dropShadow_3156_11463" result="shape"/>
</filter>
<linearGradient id="paint0_linear_3156_11463" x1="2.1028" y1="83.123" x2="58.5751" y2="14.4935" gradientUnits="userSpaceOnUse">
<stop offset="0.320833" stop-color="#97ECB7"/>
<stop offset="0.58125" stop-color="#91E6B0"/>
<stop offset="0.89375" stop-color="#2ED16B"/>
</linearGradient>
<linearGradient id="paint1_linear_3156_11463" x1="-16.6314" y1="12.9958" x2="62.3443" y2="91.8671" gradientUnits="userSpaceOnUse">
<stop stop-color="#7CCB99"/>
<stop offset="0.35896" stop-color="#4FD07F"/>
<stop offset="0.683604" stop-color="#0AAF48"/>
<stop offset="1" stop-color="#107D39"/>
</linearGradient>
<linearGradient id="paint2_linear_3156_11463" x1="9.65571" y1="76.0358" x2="66.1281" y2="7.4064" gradientUnits="userSpaceOnUse">
<stop offset="0.320833" stop-color="#A8FFC9"/>
<stop offset="0.685417" stop-color="#51DF86"/>
<stop offset="0.89375" stop-color="#29844B"/>
</linearGradient>
<linearGradient id="paint3_linear_3156_11463" x1="7.49551" y1="66.2166" x2="69.9877" y2="13.7902" gradientUnits="userSpaceOnUse">
<stop offset="0.180663" stop-color="white" stop-opacity="0.35"/>
<stop offset="0.533255" stop-color="white" stop-opacity="0"/>
</linearGradient>
<linearGradient id="paint4_linear_3156_11463" x1="21.5536" y1="13.7911" x2="22.0039" y2="54.0258" gradientUnits="userSpaceOnUse">
<stop offset="0.301696" stop-color="#86D5A3"/>
<stop offset="0.993284" stop-color="#7CD39D"/>
</linearGradient>
<linearGradient id="paint5_linear_3156_11463" x1="40.6892" y1="54.7352" x2="60.9581" y2="18.6527" gradientUnits="userSpaceOnUse">
<stop stop-color="white"/>
<stop offset="0.644664" stop-color="white" stop-opacity="0.57"/>
</linearGradient>
</defs>
</svg>
