<svg width="191" height="157" viewBox="0 0 191 157" fill="none" xmlns="http://www.w3.org/2000/svg">
<path d="M72.6143 127.455C72.6143 127.455 78.5438 124.666 80.7574 122.725C82.9711 120.785 85.7232 115.964 85.7232 115.964C85.7232 115.964 115.953 137.796 135.664 134.681C140.206 133.964 149.055 130.945 149.62 125.626C151.161 111.102 129.84 107.391 134.497 100.026C137.34 95.5297 146.171 102.221 146.171 102.221L182.799 120.237C182.799 120.237 170.145 151.43 139.437 152.68C101.662 154.218 72.6143 127.455 72.6143 127.455Z" fill="white"/>
<path fill-rule="evenodd" clip-rule="evenodd" d="M43.5742 5.29838C43.2305 5.16342 41.3842 2.90277 39.0403 2.49133C37.9752 2.30436 38.9419 3.66058 37.7697 3.67279C34.2785 3.70914 28.605 3.05324 27.554 3.67279C26.7729 4.13178 28.4932 5.73527 27.554 5.80888C18.6931 6.50343 5.17515 15.3507 2.24228 19.643C1.30891 21.009 8.85779 18.6914 7.65504 19.3667C6.30509 20.1247 4.80791 25.0877 3.91275 28.9207C3.29303 31.5603 2.90283 34.9573 2.76512 38.6527C2.65035 41.8431 2.69626 42.371 3.15531 44.1154C3.68322 46.0664 4.09637 46.6402 4.80791 46.3648C5.06039 46.273 5.17515 45.9287 5.17515 45.286C5.17515 44.7811 5.45058 43.2662 5.79487 41.912L6.39164 39.479L6.64412 40.4889C6.96546 41.6595 8.84758 45.286 10.5461 47.9256C10.6377 48.0657 11.0318 47.8875 11.3872 47.0284C11.7111 46.2456 11.5796 44.995 12.1298 43.6547C13.383 40.6017 15.8438 36.6322 18.6931 33.4547C22.9042 28.7587 24.3013 23.324 28.2487 18.9614C35.6154 10.82 44.8612 5.80362 43.5742 5.29838Z" fill="white"/>
<path fill-rule="evenodd" clip-rule="evenodd" d="M7.75952 20.4739C6.5778 21.4241 4.82367 29.1319 4.79358 29.2607C4.17385 31.9003 3.57648 41.0665 4.18711 42.8019C4.79773 44.5373 6.50757 38.2815 6.50757 38.2815C6.50757 38.2815 9.09196 44.9924 11.3755 46.8323C11.4731 46.9109 8.6612 38.5296 7.75952 33.6368C6.56925 27.1779 8.43207 19.933 7.75952 20.4739Z" fill="#E7EAEE"/>
<path fill-rule="evenodd" clip-rule="evenodd" d="M51.8056 155.464C54.009 154.982 57.7269 153.304 59.1504 152.73C60.5739 152.156 64.9115 146.031 66.4723 139.122C67.597 134.027 68.1708 126.773 67.5281 125.557C67.4332 125.384 67.086 122.086 68.0103 123.163C70.0646 125.557 72.5032 129.315 80.1978 122.581C82.2936 120.747 85.0713 118.38 84.3399 116.287C82.2936 110.432 73.4228 98.6415 72.0705 97.7484C70.4536 96.6805 62.2811 97.5879 50.1187 93.9982C36.3256 89.9271 30.5822 77.9391 25.1846 79.4996C20.8194 80.7616 10.361 88.517 7.73622 93.4282C-4.65524 116.614 10.361 132.861 13.7807 137.527L17.1011 138.961L17.2158 141.922L17.3765 143.781C17.6749 147.339 17.7897 147.66 19.3964 148.854C23.4131 151.907 31.3318 154.753 38.493 155.763C41.8211 156.222 49.0512 156.061 51.8056 155.464Z" fill="white"/>
<path fill-rule="evenodd" clip-rule="evenodd" d="M18.4064 140.838L18.5671 142.697C18.8655 146.255 18.9803 146.576 20.5869 147.77C22.9565 149.571 26.6841 151.3 30.813 152.622C33.683 153.542 36.747 154.264 39.6836 154.679C43.0117 155.138 50.2418 154.977 52.9961 154.38C54.3576 154.085 43.1591 145.287 36.562 147.77C31.4957 149.676 19.5546 135.134 24.4097 131.335C29.856 127.074 19.876 110.264 19.5546 106.615C19.2333 102.966 17.9678 102.094 17.9309 102.222C17.894 102.35 17.894 102.786 17.9933 103.838C18.4215 108.373 18.4064 140.838 18.4064 140.838Z" fill="#E7EAEE"/>
<path fill-rule="evenodd" clip-rule="evenodd" d="M17.2114 105.573C17.6933 105.479 18.1599 105.794 18.2537 106.276C19.986 115.176 27.3135 121.201 40.4161 124.351C53.5965 127.521 62.5744 127.35 67.305 123.967C67.7043 123.681 67.4066 126.127 67.1141 126.314C64.0287 128.293 53.5388 131.245 41.0207 128.577C25.0149 125.165 17.4997 111.707 16.5087 106.616C16.4149 106.134 16.7295 105.667 17.2114 105.573Z" fill="#FFB61D"/>
<path fill-rule="evenodd" clip-rule="evenodd" d="M10.5365 89.5161C10.9626 89.2723 26.8599 107.492 48.6764 111.616C70.4929 115.74 75.7751 113.117 76.6242 107.492C76.6975 107.007 77.1504 106.672 77.6358 106.746C78.1212 106.819 78.4553 107.272 78.3821 107.757C77.306 114.887 67.211 116.582 48.3774 113.368C29.7803 110.195 17.0301 102.655 10.2064 90.7291C9.96258 90.303 10.1104 89.7599 10.5365 89.5161Z" fill="#FFB61D"/>
<path fill-rule="evenodd" clip-rule="evenodd" d="M102.104 88.5056C101.507 88.299 100.865 87.84 100.451 87.3121L99.7629 86.4628L102.196 84.0528C105.937 80.3803 108.806 76.6161 111.285 72.1403C112.111 70.6484 114.2 65.6677 114.2 65.1857C114.2 65.025 114.453 64.3823 114.751 63.7167C115.21 62.7527 115.554 62.3854 116.541 61.8346C117.712 61.146 119.043 60.9165 119.617 61.3067C120.719 62.0411 120.719 64.3594 119.617 68.3531C118.4 72.7371 116.771 75.8816 113.397 80.4033C112.869 81.0919 111.882 82.4461 111.17 83.3871C109.265 85.9119 108.026 87.1284 106.35 88.0695C104.698 88.9876 103.734 89.1024 102.104 88.5056ZM118.584 86.4396L120.237 87.1741C120.579 87.3323 124.36 89.1487 128.9 91.3305C136.222 94.8483 145.52 99.3161 145.577 99.3161C145.668 99.3161 146.099 98.3202 146.196 97.1585C146.426 94.6567 147.275 91.2597 148.262 88.8956C148.721 87.8398 149.088 86.5202 149.088 86.4054C149.088 86.353 148.715 86.2025 148.104 85.9561C147.377 85.6628 146.313 85.2336 145.14 84.6723C139.356 81.895 128.041 76.2257 126.641 75.3764C125.263 74.5731 124.988 74.5042 124.988 75.0322C124.988 75.7207 123.588 78.9112 122.509 80.6326C121.935 81.5737 120.811 83.2722 120.007 84.3969L118.584 86.4396ZM145.186 95.1847C145.845 95.5662 144.704 96.1258 144.429 96.2176C142.807 96.3553 140.898 96.0503 139.333 95.1388C138.515 94.5588 132.075 90.9806 127.802 88.6071C125.849 87.522 124.349 86.6886 124.047 86.5086C123.083 85.9348 122.165 85.3151 122.004 85.1314C121.522 84.5117 121.981 84.2363 123.335 84.3511C124.149 84.4201 143.765 94.3608 145.186 95.1847ZM51.8838 155.275C53.6544 154.888 56.4029 153.728 58.153 152.989C58.5809 152.809 58.9491 152.653 59.2287 152.541C60.6522 151.967 64.9898 145.842 66.5506 138.933C67.6753 133.837 68.2491 126.584 67.6064 125.368C67.2189 124.663 69.521 127.027 71.2353 128.787C71.7551 129.32 72.2209 129.799 72.5413 130.119C82.5486 140.057 97.4449 148.045 112.915 151.786C120.627 153.668 126.113 154.334 133.481 154.334C145.852 154.334 155.607 151.901 164.467 146.553C164.888 146.299 165.282 146.066 165.658 145.843C168.746 144.015 170.586 142.925 175.622 137.257C181.27 130.899 186.295 116.141 187.97 111.045C188.705 108.75 190.495 99.6207 190.495 97.3425C190.495 94.6453 189.554 93.3717 188.269 92.0634C185.996 89.8369 182.921 89.0336 180.373 89.9976L179.179 90.4567L178.812 89.2402C178.284 87.404 177.183 85.935 175.484 84.8333C172.959 83.1577 172.592 83.0429 170.32 83.0429C168.552 83.0429 168.07 83.1348 166.946 83.6627L165.637 84.2594L165.362 83.4331C164.834 81.7346 163.063 79.3669 161.69 78.6819C160.471 78.0745 158.362 78.0188 156.892 78.2917C153.679 78.8885 151.384 80.3804 150.443 82.4691C150.167 83.1118 149.823 83.6168 149.685 83.6168C149.57 83.6168 145.049 82.3539 139.655 79.9669C138.75 79.5649 137.899 79.1878 137.1 78.8335L137.088 78.8283C127.402 74.5351 125.302 73.6046 125.493 72.4388C125.654 71.4518 125.608 70.901 125.332 70.0517C124.85 68.6287 124.3 68.2385 122.739 68.2385C121.499 68.2385 121.499 68.2385 121.637 67.6187C122.372 64.107 122.349 62.0871 121.568 60.8018C121.04 59.9525 120.421 59.6083 118.998 59.4017C118.171 59.2869 117.781 59.3558 116.863 59.8607C116.243 60.1821 115.715 60.4116 115.669 60.3657C115.623 60.3198 115.784 59.0574 116.037 57.5655C117.919 46.5252 116.465 37.013 111.668 26.9138C111.622 26.8171 111.568 26.7029 111.507 26.5721C110.049 23.4411 104.185 10.8514 87.4146 4.49884C86.6555 4.2113 85.9372 3.93327 85.2469 3.66607C79.5342 1.45486 75.7365 -0.0151371 66.5736 0.000117609C56.3033 0.0172157 52.8249 1.46909 46.0538 4.5677C45.1128 5.0038 44.2865 5.25628 44.2176 5.16447C44.1488 5.04971 43.7127 4.77428 43.2766 4.54475C42.8405 4.31522 41.8994 3.74141 41.2108 3.28235C39.2369 1.9511 38.0204 1.40023 37.4007 1.53795C36.6892 1.72157 36.6892 2.31834 37.4007 2.59377C37.6991 2.70854 38.0434 3.09873 38.1811 3.48893C38.4795 4.31522 38.8237 4.40703 39.0303 3.71845C39.1221 3.46597 39.2598 3.28235 39.3287 3.32826C39.3548 3.34131 39.4421 3.38218 39.5753 3.44454L39.5756 3.44466L39.5758 3.44475C39.9113 3.60182 40.5376 3.895 41.2108 4.22341C42.1519 4.68247 43.1848 5.16447 43.4602 5.27924C43.9652 5.46286 43.8045 5.60057 41.624 6.88592C33.1085 11.8896 26.1768 19.6706 22.2978 28.5303C21.701 29.8616 21.1731 30.6879 20.6223 31.1469C19.2222 32.3175 16.4678 35.6456 15.8252 36.9539C15.4809 37.6655 14.7464 38.7672 14.1726 39.4099C13.6217 40.0526 13.0249 40.8789 12.8183 41.2231C12.6347 41.5904 12.4511 41.8429 12.3822 41.797C12.3363 41.7281 12.4052 40.6034 12.5659 39.2951C12.9102 36.2424 12.9102 35.4391 12.6347 35.3702C12.2216 35.2554 11.6248 36.8621 11.3723 38.859C11.1887 40.0755 11.1428 41.9117 11.2576 43.7938L11.3953 46.7777L9.76564 44.1381C9.20431 43.254 8.65155 42.3699 8.25951 41.7429L8.25921 41.7424L8.25908 41.7422L8.25767 41.7399C8.00943 41.3429 7.82588 41.0493 7.74581 40.9248C7.14904 40.0526 6.80475 38.7443 7.05722 38.3082C7.19494 38.0557 7.17199 37.9409 6.94246 37.9409C6.46045 37.9409 5.51939 39.4787 4.89967 41.2461C4.60129 42.0724 4.3029 42.761 4.21109 42.761C3.8668 42.761 4.02747 34.5439 4.39471 31.9044C5.15215 26.6941 7.14904 20.2673 8.04419 20.2673C8.22781 20.2673 8.38848 20.1755 8.38848 20.0378C8.38848 19.6247 7.79171 19.7853 7.3097 20.3132C6.23093 21.4838 4.80786 25.0874 3.91271 28.9205C3.29298 31.5601 2.90279 34.9571 2.76507 38.6524C2.65031 41.8429 2.69621 42.3708 3.15527 44.1152C3.68318 46.0662 4.09633 46.64 4.80786 46.3645C5.06034 46.2727 5.1751 45.9284 5.1751 45.2858C5.1751 44.7808 5.45054 43.2659 5.79483 41.9117L6.3916 39.4787L6.64408 40.4887C6.96541 41.6592 8.84754 45.2858 10.546 47.9253C11.7166 49.7156 11.7396 49.8304 12.1298 52.6306C12.3363 54.2144 12.979 58.0665 14.4709 63.9922C15.7892 69.2279 23.1998 74.4218 25.0501 75.7186C25.294 75.8895 25.4412 75.9927 25.4653 76.0194C25.6948 76.2719 26.0161 76.4096 26.1998 76.3408C26.4063 76.2719 26.5211 76.3637 26.5211 76.6162C26.5211 76.8457 26.6818 77.1441 26.8654 77.2818C27.0949 77.4425 27.2556 78.0622 27.3015 79.141C27.4163 81.2985 29.023 85.43 30.2624 86.7842C31.0657 87.6564 32.7413 88.0237 34.6005 87.7023C35.8169 87.5187 36.1612 87.381 36.0465 87.1056C35.9776 86.922 36.4137 87.1515 37.0105 87.6105C43.9881 92.9356 51.0575 96.126 58.9992 97.5031C62.0748 98.0311 67.1703 98.3294 69.9476 98.1229H69.9477H69.9477H69.9478H69.9479H69.9479H69.948H69.9481C71.7285 98.0064 72.2179 97.9743 72.3088 98.1493C72.3432 98.2156 72.3203 98.3117 72.2888 98.4442C72.1281 99.0869 72.3347 99.4771 75.7087 105.192C78.3942 109.714 78.6237 110.012 81.6076 113.065C87.9425 119.607 94.8513 124.679 102.678 128.604C110.046 132.276 121.809 135.329 132.563 136.293C143.316 137.257 151.039 127.388 151.017 124.863C150.971 121.397 150.489 119.125 149.318 116.921C148.17 114.787 147.413 114.052 143.97 111.757C140.137 109.209 137.773 107.12 136.212 104.894C135.225 103.494 134.858 101.91 134.858 101.061C134.858 100.51 135.569 99.2705 136.625 99.018C137.589 98.7655 137.773 98.7885 138.852 99.3164C139.494 99.6148 141.17 100.395 142.547 101.061C143.947 101.703 145.301 102.346 145.577 102.484C146.389 102.709 146.732 104.299 146.918 105.16L146.918 105.161L146.918 105.161C146.96 105.353 146.993 105.509 147.023 105.605C147.344 106.799 148.865 108.34 149.846 108.865C151.569 109.786 155.814 109.909 156.985 108.647C157.283 108.326 158.272 107.93 158.476 108.05C158.68 108.17 159.417 109.163 159.417 109.966C159.44 111.344 160.152 112.606 161.667 113.868C164.536 116.255 166.762 116.829 169.011 115.773C170.182 115.223 171.141 115.007 171.141 115.007C171.141 115.007 172.098 116.228 172.156 116.646C172.607 119.907 177.435 121.274 178.72 121.412C179.015 121.441 179.588 121.315 180.171 121.187C180.949 121.016 181.744 120.841 181.911 121.03C182.239 121.4 176.425 131.014 175.622 132.231C167.979 143.707 153.105 150.73 134.904 151.465C123.083 151.947 108.554 148.642 95.953 142.628C87.8966 138.749 80.7583 133.998 73.1151 127.342C71.7838 126.194 70.246 124.886 69.6951 124.427C69.1443 123.991 67.836 122.499 66.826 121.121C65.1275 118.826 64.1635 118 64.1635 118.78C64.1635 119.125 65.2653 121.236 66.5276 123.325C67.0326 124.151 67.354 124.725 67.2392 124.633C67.1244 124.541 66.7572 126.194 66.4129 128.306C65.2882 135.077 63.429 141.756 61.5469 145.91C60.514 148.16 58.5336 149.84 57.9368 150.299C55.7333 151.974 52.4347 152.727 47.8671 153.186C42.083 153.76 33.5676 152.475 27.072 150.042C25.3505 149.399 20.9207 147.54 20.6223 147.333C20.6044 147.316 20.5027 146.655 20.3608 145.734L20.3607 145.734C20.3207 145.474 20.2775 145.193 20.2321 144.9C19.4058 139.231 18.2581 117.403 18.2581 107.304C18.2581 103.127 18.2122 102.208 17.9368 102.208C17.363 102.208 17.1335 102.759 16.881 104.733C16.3072 109.232 16.4219 132.713 17.0416 137.647L17.1794 138.772L16.399 138.336C15.2054 137.647 10.6608 133.034 9.07706 130.899C7.7363 129.074 6.93942 126.737 6.34323 124.989C6.20457 124.582 6.07676 124.207 5.9555 123.878C2.62735 114.651 3.79794 104.297 8.38848 94.9783C12.2904 87.0367 17.0876 82.6298 24.1111 80.4952C25.2587 80.1509 26.2686 79.7837 26.3834 79.6919C26.8195 79.2787 24.0193 79.4853 22.4814 79.9673C17.4777 81.5051 12.2445 85.7055 8.68687 91.0764C3.68318 98.6049 1.43382 109.714 3.01755 119.193C3.38479 121.443 4.87672 126.309 5.28987 126.653C5.32643 126.69 5.51507 127.085 5.80039 127.684L5.80062 127.684L5.80073 127.685C6.59017 129.341 8.11911 132.548 9.21478 133.998C10.546 135.811 14.5628 139.759 16.2383 140.976L17.2941 141.733L17.4548 143.592C17.7532 147.15 17.8679 147.471 19.4746 148.665C23.4914 151.717 31.41 154.564 38.5713 155.573C41.8994 156.033 49.1295 155.872 51.8838 155.275ZM129.464 133.723C116.128 132.552 100.016 126.194 88.3557 116.37C83.4438 112.216 77.063 104.137 74.5382 99.6609C74.0102 98.7428 73.6201 98.3067 73.161 98.1919C72.679 98.0542 73.0921 97.9165 75.0661 97.5951C83.3979 96.1721 91.5002 92.7062 98.0417 87.7714L99.0057 87.0598L99.2812 87.7255C99.9009 89.2174 102.288 90.7323 104.055 90.7323C104.767 90.7323 107.154 89.6535 108.6 88.6665L109.587 88.0009L110.39 88.8043C111.125 89.5387 111.262 89.5846 112.64 89.5846C114.223 89.5846 116.128 88.8731 117.184 87.8632L117.758 87.3353L119.388 88.4141C120.26 89.0338 122.693 90.388 124.782 91.4668C127.903 93.0734 131.208 94.9326 134.353 96.8606L134.858 97.182L134.376 97.8247C133.871 98.5132 132.93 99.8215 132.93 101.818C132.93 104.068 135.269 108.109 139.747 110.885C143.264 113.065 149.318 117.354 149.089 123.623C149.061 124.381 148.216 126.263 147.092 127.962C146.357 129.04 144.314 130.647 142.455 131.588C139.288 133.172 133.71 134.09 129.464 133.723ZM7.0799 30.688C7.69962 30.8257 8.11277 31.0323 8.02096 31.1241C7.72257 31.4225 6.13884 31.2848 5.77159 30.9175C5.19778 30.3667 5.33549 29.9765 6.13884 29.8158C6.55198 29.7469 7.17171 29.4026 7.516 29.0584C7.86029 28.7141 8.15867 28.5534 8.15867 28.6682C8.15867 28.9665 7.01104 30.0224 6.43722 30.2519C6.06998 30.4126 6.18474 30.4814 7.0799 30.688ZM16.215 31.0553C16.8806 30.6881 16.7429 30.4356 15.9625 30.5504C15.1821 30.6651 15.1362 30.5733 15.6412 29.7929C15.8478 29.4945 15.9625 29.0584 15.9166 28.8289C15.8478 28.5305 15.6871 28.6682 15.3199 29.4027C15.0444 29.9306 14.6542 30.3667 14.4706 30.3667C13.8968 30.3667 13.8509 30.8258 14.4017 31.0324C15.1133 31.3308 15.6641 31.3308 16.215 31.0553ZM8.27362 18.5232C7.72276 18.615 6.00131 19.3036 4.48643 20.061C2.9486 20.7955 1.64029 21.4152 1.54848 21.3923C-0.79269 21.1398 2.46659 17.2378 8.38839 13.2441C14.0577 9.41095 17.8908 7.39111 21.4485 6.35824C23.6749 5.71557 26.1767 5.62376 26.8883 6.15167C27.2785 6.45005 27.1407 6.47301 25.4422 6.49596C21.7698 6.49596 17.5236 8.37808 10.6148 12.9916C7.03418 15.3787 2.87974 18.7986 2.87974 19.3495C2.87974 19.4642 3.54537 19.2347 4.37166 18.8675C6.13902 18.0641 7.95228 17.651 8.75563 17.8346C9.60488 18.0641 9.42126 18.3625 8.27362 18.5232ZM17.1562 20.4969C19.3138 20.0608 19.4056 20.0379 19.4056 19.8083C19.4056 19.6936 18.5793 19.5788 17.5464 19.5329L15.6872 19.464L17.4087 17.5131C18.3497 16.4343 19.4515 15.3555 19.8417 15.103C20.6909 14.5522 20.7368 14.162 20.0482 13.9324L19.5203 13.7718L20.0941 13.5652C20.4155 13.4504 21.0123 13.4045 21.4254 13.4734C22.0451 13.5652 22.1828 13.5193 22.114 13.198C22.0451 12.8766 21.7926 12.8078 20.668 12.8307C17.3857 12.8766 15.9856 13.7488 18.5563 14.162C19.2678 14.2767 19.8646 14.4604 19.8646 14.5751C19.8646 14.6669 19.7499 14.7587 19.6121 14.7587C19.176 14.7587 15.4807 18.5 15.0216 19.4181C14.3101 20.7723 14.7003 20.9789 17.1562 20.4969ZM32.3052 11.5912C31.6395 11.6371 31.4789 11.7519 31.5248 12.0732L31.5319 12.1199C31.5576 12.2897 31.5724 12.3873 31.5344 12.4169C31.483 12.4569 31.3353 12.3731 30.9882 12.1762L30.928 12.1421C30.4919 11.9125 30.446 11.7978 30.6985 11.6141C30.8592 11.4764 31.2953 11.2699 31.6395 11.201L32.2822 11.0403L31.8002 10.5354C31.5477 10.237 31.41 9.96155 31.4789 9.86974C31.6625 9.68612 33.9119 9.93859 34.2332 10.1911C34.3709 10.3058 34.5775 10.2829 34.7152 10.1452C35.0365 9.82383 35.4726 10.0763 35.4726 10.5813C35.4726 10.8567 35.4038 10.8797 35.1972 10.6731C35.0136 10.4895 34.8529 10.4895 34.6463 10.6501C34.4627 10.8108 34.325 10.8108 34.2102 10.6272C34.1414 10.5124 33.7053 10.3976 33.2462 10.3976C32.8227 10.3976 32.6225 10.3976 32.5816 10.4784C32.545 10.5507 32.6365 10.6881 32.8101 10.9485C33.1762 11.5206 33.1546 11.5223 32.313 11.5906L32.3052 11.5912ZM28.8161 5.48608C28.8161 5.1877 28.5406 4.65979 28.1963 4.3155L27.5537 3.67282L30.9966 3.81054C32.9016 3.90235 35.0592 4.10892 35.8166 4.3155C36.5741 4.49912 37.4463 4.63683 37.7676 4.63683C38.2496 4.63683 38.1578 4.54502 37.2626 4.06302C35.7019 3.25967 33.705 2.86948 29.8719 2.59404C25.2813 2.27271 22.9631 2.70881 23.3992 3.85644C23.4681 4.08597 23.8353 4.20073 24.3862 4.20073C25.5109 4.20073 27.3471 4.86636 27.9668 5.48608C28.6324 6.15171 28.8161 6.15171 28.8161 5.48608ZM17.6155 66.2646C19.4747 68.6517 21.9306 71.3601 23.0782 72.2782C23.7668 72.829 24.3636 73.2881 24.4095 73.2881C24.4324 73.2881 23.9275 72.2323 23.2848 70.9469C20.6912 65.7826 19.1763 60.6412 18.4647 54.7194C18.3041 53.4111 18.0516 52.3093 17.7762 51.8503C17.2253 50.9322 17.2253 49.7386 17.7991 48.614C18.0975 48.0172 18.2582 47.2597 18.2582 46.4334V45.1711L17.1564 46.3187C16.0777 47.4434 15.0448 47.9024 15.0448 47.2138C15.0448 46.7089 16.7433 44.2759 17.6384 43.5185C18.35 42.9217 18.4418 42.7151 18.6713 40.9248C18.832 39.846 19.1992 37.941 19.4976 36.6786C19.8189 35.4162 20.0026 34.3374 19.9567 34.2915C19.796 34.1308 14.4021 40.3257 13.6676 42.302C13.5064 42.7359 13.0709 43.4955 12.7266 43.9546L12.1298 44.7208C12.1298 44.7208 12.3152 45.7937 12.52 47.1421C12.7269 48.5045 12.824 49.441 12.9105 50.2751C13.0262 51.391 13.1229 52.3236 13.4381 53.8472C13.8053 55.7293 14.1726 57.3589 14.2644 57.4737C14.3333 57.6114 14.6316 58.6672 14.93 59.8378C15.5727 62.4315 16.6515 65.0022 17.6155 66.2646ZM110.757 87.9777L110.275 87.4957C110.275 87.4957 118.276 77.3316 119.709 73.5864C120.803 70.7283 121.447 69.9179 122.315 69.9179C122.801 69.9179 123.198 70.0287 123.381 70.3042C123.703 70.7862 124.012 71.3829 123.599 73.4257C122.911 76.7309 121.855 78.9114 118.687 83.6167C117.953 84.6955 117.012 85.889 116.599 86.3022C115.635 87.1973 113.466 88.1155 112.203 88.322C111.4 88.4368 111.171 88.3909 110.757 87.9777Z" fill="#00160A"/>
<path d="M174.313 110.431C177.169 102.651 176.736 100.993 176.241 100.831C176.241 100.831 175.151 101.451 174.669 102.759C173.774 105.215 170.71 111.642 169.562 112.79C168.208 114.144 168.208 114.144 166.831 114.144C165.453 114.144 161.482 112.07 160.941 110.026C160.076 106.755 163.801 95.3915 163.893 94.7488L163.273 94.3127C162.86 94.7029 157.486 110.999 150.419 106.753C149.61 106.267 147.895 103.976 147.757 102.759C146.992 99.2246 150.501 86.8646 151.098 84.3258C151.632 82.0534 154.413 79.9443 157.833 79.9443C163.089 79.9443 162.383 84.5389 164.738 86.1579C165.781 86.8754 167.496 85.5746 168.024 85.4759C170.985 84.9251 172.12 85.5665 174.29 87.2892C175.966 88.619 177.205 91.2508 178.57 92.1781C179.328 92.6932 180.132 91.989 180.396 91.8568C181.476 91.3147 183.793 91.7191 184.435 92.1781C185.377 92.5889 187.686 94.8083 188.051 96.0991C189.704 101.949 184.484 114.919 182.513 117.352C179.251 121.379 171.458 118.212 174.313 110.431Z" fill="white"/>
<path fill-rule="evenodd" clip-rule="evenodd" d="M42.358 89.113C48.6471 93.0838 55.1318 95.6774 62.5226 96.389C68.3526 96.9398 76.2132 96.1824 81.8596 94.3462C86.6108 92.8083 93.0376 88.5482 97.3297 84.9446C105.662 77.967 110.918 67.068 113.213 55.4998C113.534 53.8702 114.024 49.7738 114.001 45.7111C114.001 40.9829 111.921 28.0619 105.616 20.6117C92.6118 5.24574 71.2361 -1.6762 53.2715 4.23815C46.7911 6.37165 39.8912 10.2371 34.681 15.2867C28.1165 21.6905 23.2735 30.4125 21.3455 39.3182C19.3256 48.7288 21.9531 59.9756 26.5207 69.2026C30.1701 76.5474 36.1837 85.188 42.358 89.113ZM103.642 61.3755C99.3267 74.3438 88.0799 84.0298 73.941 86.9677C71.7835 87.4038 70.2915 87.5645 67.2618 87.6104C65.1272 87.6793 62.9926 87.6563 62.5565 87.6104C52.6639 86.4169 45.1354 82.7674 38.2037 75.8357C35.1739 72.783 33.8886 71.1304 32.0065 67.8711C29.0456 62.7067 27.4618 57.4276 26.9798 51.0697C25.3272 29.2876 40.9121 11.132 62.8549 9.24993C71.4621 8.51544 81.0105 11.155 88.2635 16.2964C90.949 18.2015 95.8149 23.0215 97.3298 25.2709C97.9495 26.1661 103.963 34.9569 105.019 40.0065C106.373 46.571 105.845 54.7881 103.642 61.3755Z" fill="white"/>
<path fill-rule="evenodd" clip-rule="evenodd" d="M114.011 45.7113C114.011 61.1174 106.723 77.9603 97.318 85.1535C92.8308 88.5853 86.9669 92.7408 81.8604 94.3463C74.3769 96.699 62.5234 96.3891 62.5234 96.3891C62.5234 96.3891 74.6164 94.7725 79.0978 92.969C91.9486 87.7973 98.9637 79.8585 103.295 72.2412C111.846 57.2053 114.011 45.337 114.011 45.7113Z" fill="#E7EAEE"/>
<path fill-rule="evenodd" clip-rule="evenodd" d="M62.786 84.8566C56.6577 84.0762 50.5752 81.8957 45.6633 78.6593C42.7483 76.7542 38.3414 72.2785 36.2068 69.0881C33.1541 64.4975 31.1343 59.5856 30.1473 54.3065C29.4358 50.4734 29.4587 44.5746 30.1703 41.1546C30.9048 37.6658 31.8458 35.0033 33.5214 31.6293C35.4723 27.7273 37.5381 24.8582 40.6367 21.7596C45.9158 16.4805 52.0442 13.1294 59.3431 11.5227C61.7073 11.0177 70.2686 10.6046 70.567 10.9948C70.6359 11.1096 71.0949 11.4079 71.5769 11.6604C72.0589 11.9358 73.3443 12.8999 74.4001 13.8409C75.9838 15.2181 76.6954 16.0903 78.0725 18.2478C79.0136 19.7168 79.771 21.0481 79.771 21.1628C79.771 21.4153 80.5055 21.8744 80.9187 21.8744C81.4925 21.8744 81.8827 20.1529 81.9974 17.1232C82.0663 15.4476 82.204 14.0704 82.2958 14.0704C82.6172 14.0704 86.1519 16.0214 87.8045 17.1232C91.0408 19.2807 94.2771 22.3105 96.6642 25.4779C97.743 26.901 97.9037 27.2682 97.9037 28.1404C97.9037 28.9438 98.1332 29.5635 98.8447 30.803C100.635 33.9245 102.035 37.8494 102.884 42.1875C103.435 45.1025 103.435 50.6111 102.861 53.6638C101.301 62.0645 96.6642 70.4193 90.6277 75.7214C85.5092 80.1972 80.0694 82.9515 73.6427 84.3057C71.4392 84.7877 64.8288 85.109 62.786 84.8566ZM46.3751 69.1564C46.5817 68.9269 46.7194 68.5826 46.6506 68.4219C46.6299 68.3737 46.3425 68.2386 45.9218 68.0408C44.9412 67.5798 43.2363 66.7783 42.4974 65.9431C39.5595 62.592 38.4807 60.0901 37.8151 54.9258C37.1724 49.8991 37.7123 46.5009 38.8709 41.0394C39.4361 38.3751 40.9383 36.1745 41.8729 34.8053C42.5083 33.8744 42.8814 33.3278 42.5191 33.2814C41.6239 33.1437 41.4862 33.2125 40.5451 34.1077C38.5253 36.0357 37.6072 37.5735 36.6432 40.5344C35.1513 45.1709 34.863 57.7008 37.8151 63.3494C40.7672 68.998 45.8472 69.7532 46.3751 69.1564ZM79.0137 49.8763C78.6239 53.4419 76.9709 58.5984 75.0429 60.8477C74.1477 61.9035 70.8618 63.7168 68.0882 63.3496C65.4092 62.9948 63.314 61.7429 61.5237 59.0574C59.9859 56.7392 59.1917 53.9253 58.6546 50.3813C57.7273 44.2615 61.7762 37.1376 63.5206 35.3702C65.288 33.557 66.5504 32.9143 68.1571 32.8913C69.7178 32.8913 70.7278 33.2356 72.3115 34.3603C75.2035 36.3801 79.7711 42.9477 79.0137 49.8763ZM48.0734 30.8944C48.5324 30.3665 48.6013 30.1141 48.4636 29.1271C48.3717 28.209 48.1881 27.8417 47.7061 27.4515C46.8569 26.763 45.801 26.763 45.0206 27.4974C44.4698 28.0254 44.4009 28.209 44.4698 29.4714C44.5386 30.8256 44.5845 30.9174 45.342 31.3305C46.3519 31.8814 47.3389 31.7207 48.0734 30.8944ZM62.3962 16.7326C58.2647 19.6935 56.4744 20.91 54.6153 22.0577C53.1463 22.9758 52.6872 22.9987 52.6872 22.1724C52.6872 21.7363 53.0086 21.2543 53.8349 20.4969L54.9825 19.4411L52.7561 19.1427C50.2543 18.8213 47.8213 18.1328 47.2934 17.6048C46.4212 16.7097 47.1786 16.5031 49.6575 16.9622C50.7592 17.1458 52.8938 17.3753 54.4087 17.4212L57.163 17.536L59.1599 16.09C63.5439 12.9225 68.0885 11.1322 70.269 11.683C71.6232 12.0044 71.4625 12.3716 69.9247 12.5552C68.1574 12.7618 67.0786 13.3586 62.3962 16.7326Z" fill="white"/>
<path d="M68.2949 60.2051C68.2949 60.0903 68.4326 59.9756 68.6163 59.9756C68.7999 59.9756 69.0294 60.0903 69.0983 60.2051C69.1671 60.3428 69.0294 60.4346 68.7769 60.4346C68.5015 60.4346 68.2949 60.3428 68.2949 60.2051Z" fill="white"/>
<path d="M69.6719 59.9981C69.6719 59.7456 70.2457 59.5161 70.8884 59.5161C71.3933 59.5391 71.3933 59.5391 70.9572 59.8604C70.4523 60.2506 69.6719 60.3195 69.6719 59.9981Z" fill="white"/>
<path d="M66.1141 59.4015C66.0453 59.2179 65.9535 58.8966 65.8846 58.7129C65.8157 58.4834 65.9305 58.3687 66.2289 58.3687C66.4814 58.3687 66.6879 58.5064 66.6879 58.69C66.6879 58.8736 66.7568 59.172 66.8257 59.3786C66.9175 59.6311 66.8486 59.7458 66.5961 59.7458C66.3896 59.7458 66.16 59.5851 66.1141 59.4015Z" fill="white"/>
<path d="M67.3308 58.8278C67.2161 58.1392 67.4686 57.9097 68.2949 57.9097C68.5473 57.9097 68.7539 58.1392 68.8457 58.5294C69.0293 59.195 68.731 59.5164 67.9276 59.5164C67.5604 59.5164 67.3997 59.3557 67.3308 58.8278Z" fill="white"/>
<path d="M64.9895 58.9424C64.5534 58.5981 64.5534 58.5981 65.0354 58.5981C65.3338 58.5981 65.5404 58.7359 65.5404 58.9424C65.5404 59.3556 65.5404 59.3556 64.9895 58.9424Z" fill="white"/>
<path d="M69.603 58.9195C69.3046 58.6211 69.4424 57.726 69.8096 57.5883C70.4752 57.3358 70.7736 57.4505 70.9113 58.0473C71.0031 58.3916 71.049 58.69 71.0031 58.7129C70.8195 58.9195 69.7407 59.0572 69.603 58.9195Z" fill="white"/>
<path d="M71.6465 58.4377C71.5776 58.3688 71.5088 58.0705 71.5088 57.795C71.5088 57.4048 71.6924 57.2442 72.2433 57.1294C72.7253 57.0376 73.0237 57.0835 73.1614 57.2671C73.3909 57.6344 73.3909 58.0934 73.1843 58.2082C72.7712 58.4377 71.8072 58.5754 71.6465 58.4377Z" fill="white"/>
<path d="M63.9336 57.726C63.9336 57.4506 64.1402 57.221 64.4386 57.1522C65.0353 56.9915 65.0124 56.9686 65.1271 57.5653C65.173 57.9096 65.0583 58.0473 64.5763 58.0932C64.0713 58.1621 63.9336 58.0703 63.9336 57.726Z" fill="white"/>
<path d="M65.6789 57.7487C65.3576 57.4044 65.5641 56.7617 66.0002 56.7617C66.2986 56.7617 66.4593 56.9224 66.4593 57.1978C66.4593 57.6339 65.9314 58.0012 65.6789 57.7487Z" fill="white"/>
<path d="M67.0557 57.0602C66.8721 56.6241 67.2623 56.3027 68.0197 56.3027C68.364 56.3027 68.5247 56.4405 68.5247 56.7388C68.5247 56.9913 68.3181 57.2208 68.0197 57.3127C67.2623 57.4963 67.2164 57.4963 67.0557 57.0602Z" fill="white"/>
<path d="M73.6886 56.9912C73.7574 56.8765 73.8722 56.7617 73.941 56.7617C74.0099 56.7617 73.9869 56.8765 73.9181 56.9912C73.8492 57.129 73.7345 57.2208 73.6656 57.2208C73.5967 57.2208 73.6197 57.129 73.6886 56.9912Z" fill="white"/>
<path d="M69.1208 56.6015C68.9372 56.1425 69.1667 55.913 69.9012 55.7982C70.3143 55.7523 70.4979 55.8441 70.5438 56.1654C70.7045 56.9229 69.3962 57.336 69.1208 56.6015Z" fill="white"/>
<path d="M63.6124 56.2116C63.4058 55.4541 63.4517 55.3853 64.0485 55.3853C64.3698 55.3853 64.6223 55.4771 64.6223 55.5918C64.6223 55.7066 64.6912 55.9591 64.76 56.1427C64.8289 56.3722 64.6912 56.5099 64.301 56.5788C63.8649 56.6706 63.7042 56.5788 63.6124 56.2116Z" fill="white"/>
<path d="M71.2793 55.9586C71.2793 55.5454 71.44 55.3618 71.8761 55.247C72.5187 55.0864 72.886 55.4077 72.886 56.1422C72.886 56.4406 72.7024 56.5324 72.0826 56.5324C71.3711 56.5324 71.2793 56.4635 71.2793 55.9586Z" fill="white"/>
<path d="M62.924 55.9585C62.8551 55.7749 62.901 55.6143 63.0158 55.6143C63.1535 55.6143 63.2453 55.7749 63.2453 55.9585C63.2453 56.1422 63.1994 56.3028 63.1535 56.3028C63.1076 56.3028 63.0158 56.1422 62.924 55.9585Z" fill="white"/>
<path d="M65.2418 56.1428C64.9204 55.8444 65.1041 55.2017 65.5172 55.087C65.7697 55.0181 66.0222 55.0411 66.091 55.1099C66.3665 55.3624 66.2058 56.028 65.8615 56.1658C65.4254 56.3264 65.4254 56.3264 65.2418 56.1428Z" fill="white"/>
<path d="M73.4357 55.9818C73.1832 55.3161 73.4586 54.8112 74.1013 54.7423C74.5833 54.6734 74.721 54.7653 74.721 55.1325C74.721 55.8899 74.4685 56.3031 74.0095 56.3031C73.757 56.3031 73.5045 56.1654 73.4357 55.9818Z" fill="white"/>
<path d="M66.8482 55.6834C66.5728 55.4309 66.6646 54.9718 67.0548 54.8341C67.4909 54.6734 68.409 55.1325 68.1565 55.385C67.8352 55.6604 67.0089 55.867 66.8482 55.6834Z" fill="white"/>
<path d="M68.8461 55.1095C68.6396 54.7882 69.374 54.2373 69.9708 54.2373C70.2463 54.2373 70.361 54.375 70.3151 54.6275C70.2233 55.0866 69.0527 55.4538 68.8461 55.1095Z" fill="white"/>
<path d="M62.5562 54.9489C62.5562 54.8341 62.4873 54.5816 62.4185 54.3751C62.3496 54.1685 62.3726 54.0078 62.5103 54.0078C62.8087 54.0078 63.0382 54.88 62.7627 55.0636C62.648 55.1325 62.5562 55.0866 62.5562 54.9489Z" fill="white"/>
<path d="M63.1768 54.421C63.0391 53.9161 63.3145 53.5488 63.8424 53.5488C64.1408 53.5488 64.4392 54.444 64.2556 54.7424C64.0031 55.1326 63.2916 54.903 63.1768 54.421Z" fill="white"/>
<path d="M64.7832 54.5357C64.4389 54.1914 64.6455 53.3651 65.1046 53.2504C65.4488 53.1586 65.6325 53.2733 65.8161 53.6865C65.9538 53.9849 66.0227 54.2832 65.9768 54.3291C65.7472 54.5357 64.9209 54.6964 64.7832 54.5357Z" fill="white"/>
<path d="M70.9808 54.5358C70.6825 54.2374 70.8202 54.0538 71.5088 53.8013C72.0826 53.6177 72.2432 53.6406 72.358 53.916C72.5646 54.4669 71.4169 54.9948 70.9808 54.5358Z" fill="white"/>
<path d="M73.0002 54.0079C72.7707 53.6407 73.092 53.3193 73.6888 53.3193C74.4003 53.3193 74.6069 53.9161 73.9642 54.0997C73.2756 54.2833 73.1609 54.2604 73.0002 54.0079Z" fill="white"/>
<path d="M74.9512 53.4568C74.9512 53.1125 75.3643 52.7452 75.5479 52.9289C75.7086 53.0895 75.3873 53.7781 75.1577 53.7781C75.043 53.7781 74.9512 53.6404 74.9512 53.4568Z" fill="white"/>
<path d="M62.2584 53.1584C62.1666 53.0895 62.0977 52.7911 62.1207 52.5387C62.1207 52.1026 62.1436 52.1026 62.3502 52.6075C62.5797 53.1584 62.5338 53.4338 62.2584 53.1584Z" fill="white"/>
<path d="M62.694 52.8141C62.4874 52.0108 62.5104 51.9419 63.1071 51.9419C63.7728 51.9419 64.1859 52.7911 63.681 53.1125C63.153 53.4338 62.8547 53.342 62.694 52.8141Z" fill="white"/>
<path d="M70.5908 53.2733C70.5908 53.2045 70.7056 52.8372 70.8433 52.4241C71.1646 51.506 71.8762 51.4601 72.0368 52.3552C72.1057 52.6995 72.1287 52.9979 72.1057 53.0208C71.9909 53.1586 70.5908 53.3651 70.5908 53.2733Z" fill="white"/>
<path d="M64.3238 52.6992C64.2319 52.6303 64.1631 52.3549 64.1631 52.1024C64.1631 51.7352 64.2319 51.7122 64.5074 51.9418C64.691 52.1024 64.8517 52.3779 64.8517 52.5385C64.8517 52.8828 64.5762 52.9746 64.3238 52.6992Z" fill="white"/>
<path d="M72.5864 52.2401C72.4487 51.5286 72.7471 51.2072 73.4586 51.299C73.8029 51.3449 73.9177 51.5515 73.9177 52.0565C73.9177 52.6303 73.8259 52.768 73.3209 52.8139C72.8159 52.8828 72.7012 52.768 72.5864 52.2401Z" fill="white"/>
<path d="M74.836 52.3324C74.5376 51.4143 74.6294 51.1389 75.2491 51.07C75.8 51.0012 75.8689 51.07 75.8689 51.6668C75.8689 52.1717 75.7312 52.3783 75.3869 52.4701C75.1344 52.539 74.8819 52.4701 74.836 52.3324Z" fill="white"/>
<path d="M61.9141 51.0238C61.9141 50.5877 61.96 50.404 62.0288 50.6336C62.0747 50.8401 62.0747 51.2074 62.0288 51.4369C61.96 51.6435 61.9141 51.4599 61.9141 51.0238Z" fill="white"/>
<path d="M62.4878 51.3223C62.1894 51.0469 62.3271 50.1517 62.6944 50.014C63.2223 49.8075 63.4748 50.0599 63.4748 50.8174C63.4748 51.2994 63.36 51.483 63.0616 51.483C62.8321 51.483 62.5567 51.4141 62.4878 51.3223Z" fill="white"/>
<path d="M63.8645 50.7024C63.7727 50.3581 63.7268 49.9909 63.8186 49.922C64.0481 49.6925 64.1858 50.0597 64.117 50.7254L64.0481 51.368L63.8645 50.7024Z" fill="white"/>
<path d="M71.2793 50.5416C71.2793 50.2892 71.3941 50.1514 71.5088 50.2203C71.6465 50.2892 71.7384 50.5187 71.7384 50.7023C71.7384 50.8859 71.6465 51.0236 71.5088 51.0236C71.3941 51.0236 71.2793 50.8171 71.2793 50.5416Z" fill="white"/>
<path d="M72.3113 50.8401C71.99 50.4958 72.2424 49.876 72.7704 49.7383C73.436 49.5777 73.4589 49.5777 73.6655 50.2433C73.8032 50.6564 73.7114 50.7482 73.1146 50.8401C72.7474 50.9089 72.3802 50.886 72.3113 50.8401Z" fill="white"/>
<path d="M74.4235 50.4041C74.171 50.1745 74.2399 49.4171 74.4923 49.4171C74.6301 49.4171 74.7219 49.3253 74.7219 49.1876C74.7219 49.0728 74.5842 48.958 74.4005 48.958C74.0103 48.958 73.689 47.8334 74.0103 47.512C74.4235 47.0989 74.8825 47.535 75.158 48.6597C75.3186 49.2564 75.4793 49.945 75.5482 50.1745C75.64 50.4729 75.5482 50.5647 75.1121 50.5647C74.8137 50.5647 74.4923 50.4959 74.4235 50.4041Z" fill="white"/>
<path d="M75.6619 49.1873C75.5012 48.4987 75.0881 47.1216 74.7897 46.1117C74.3306 44.6427 74.2847 44.2754 74.5372 44.1148C74.6979 44 74.9045 43.9082 74.9733 43.9082C75.2258 43.9082 76.1439 48.6135 76.0521 49.5316L75.9832 50.4497L75.6619 49.1873Z" fill="white"/>
<path d="M61.6846 49.0732C61.6846 48.7059 61.7305 48.5682 61.7993 48.7978C61.8452 49.0043 61.8452 49.3257 61.7993 49.4863C61.7305 49.6241 61.6846 49.4634 61.6846 49.0732Z" fill="white"/>
<path d="M62.1436 49.0274C62.2354 48.2241 62.901 48.0404 63.0846 48.7749C63.2453 49.3717 63.2912 49.3028 62.6026 49.5324C62.1206 49.6701 62.0747 49.6242 62.1436 49.0274Z" fill="white"/>
<path d="M71.8292 48.8206C71.6456 48.1549 72.0358 47.7648 72.7703 47.8566C73.3212 47.9254 73.5277 48.9124 73.0687 49.2108C72.4949 49.578 71.967 49.4173 71.8292 48.8206Z" fill="white"/>
<path d="M63.4746 48.6368C63.4746 48.2466 63.5894 48.04 63.8419 48.04C64.0714 48.04 64.1632 48.2007 64.1173 48.545C64.0025 49.2795 63.4746 49.3483 63.4746 48.6368Z" fill="white"/>
<path d="M61.4322 47.6731C61.4322 47.4206 61.5011 47.3518 61.57 47.5354C61.6388 47.6961 61.6159 47.9026 61.547 47.9715C61.4781 48.0633 61.4093 47.9256 61.4322 47.6731Z" fill="white"/>
<path d="M61.8682 47.6041C61.8682 47.2598 62.0059 47.1221 62.3502 47.1221C62.6715 47.1221 62.7863 47.2368 62.7404 47.5123C62.6256 48.109 61.8682 48.1779 61.8682 47.6041Z" fill="white"/>
<path d="M63.1306 47.3976C62.9699 46.9845 62.9699 46.9845 63.6585 46.8009C64.0716 46.6632 64.1635 46.732 64.1635 47.0763C64.1635 47.6272 63.3372 47.9026 63.1306 47.3976Z" fill="white"/>
<path d="M71.4394 47.0758C71.2787 46.502 71.5771 46.2036 72.3805 46.2036C72.7706 46.2036 72.8854 46.3413 72.8854 46.7774C72.8854 47.1217 72.7477 47.3512 72.5641 47.3512C72.3805 47.3512 72.0821 47.4201 71.8984 47.489C71.6919 47.5578 71.5312 47.4201 71.4394 47.0758Z" fill="white"/>
<path d="M73.4358 46.548C73.2521 46.0889 73.5276 45.7446 74.0555 45.7446C74.3768 45.7446 74.4916 45.9053 74.4916 46.3184C74.4916 46.7316 74.3768 46.8923 74.0325 46.8923C73.7801 46.8923 73.5046 46.7316 73.4358 46.548Z" fill="white"/>
<path d="M61.6387 46.2266C61.6387 45.7446 62.1666 45.1938 62.3961 45.4462C62.4879 45.5151 62.5568 45.8364 62.5568 46.1348C62.5568 46.5021 62.4191 46.6627 62.0977 46.6627C61.7993 46.6627 61.6387 46.5021 61.6387 46.2266Z" fill="white"/>
<path d="M62.9015 45.9511C62.7178 45.3773 62.9244 45.1248 63.7048 45.0101C64.4163 44.9183 64.6459 45.6757 64.0261 46.1348C63.4294 46.5709 63.0621 46.502 62.9015 45.9511Z" fill="white"/>
<path d="M71.2096 45.8138C71.0489 45.676 70.9801 44.8268 71.1178 44.8268C71.1407 44.8268 71.485 44.735 71.8982 44.6202C72.5868 44.4137 72.6327 44.4366 72.6097 45.0563C72.5868 45.5154 72.449 45.7449 72.1048 45.8367C71.485 45.9974 71.3932 45.9974 71.2096 45.8138Z" fill="white"/>
<path d="M70.3604 45.2859C70.3604 45.1252 70.4292 45.0564 70.521 45.1252C70.5899 45.217 70.5899 45.3547 70.521 45.4466C70.4292 45.5154 70.3604 45.4466 70.3604 45.2859Z" fill="white"/>
<path d="M72.931 44.9182C72.9999 44.528 73.7114 43.9542 73.8721 44.1378C73.9409 44.2067 74.0557 44.4821 74.1245 44.7805C74.2852 45.2396 74.2164 45.2855 73.5737 45.2855C73.0228 45.2855 72.8621 45.1936 72.931 44.9182Z" fill="white"/>
<path d="M61.8682 44.8956C61.8682 44.7808 61.9829 44.5513 62.0977 44.3677C62.2813 44.0923 62.3272 44.1152 62.3272 44.5513C62.3272 44.8267 62.2354 45.0563 62.0977 45.0563C61.9829 45.0563 61.8682 44.9874 61.8682 44.8956Z" fill="white"/>
<path d="M62.5566 44.3906C62.5566 43.7479 63.0386 43.5414 63.4059 44.0234C63.6354 44.3677 63.6354 44.4824 63.4059 44.6431C62.9239 44.9415 62.5566 44.8497 62.5566 44.3906Z" fill="white"/>
<path d="M69.5345 44.0926C69.1213 43.6335 69.1213 43.6106 69.5115 43.7483C69.741 43.8401 70.0394 43.9089 70.1542 43.9089C70.269 43.9089 70.3608 44.0696 70.3608 44.2532C70.3608 44.7352 70.0394 44.6893 69.5345 44.0926Z" fill="white"/>
<path d="M64.5999 44.0692C63.6129 43.3118 63.4752 41.6133 64.3933 41.6133C65.013 41.6133 65.5868 42.5773 65.495 43.4724C65.4262 44.2987 65.1507 44.4824 64.5999 44.0692Z" fill="white"/>
<path d="M70.8879 44.2069C70.9797 44.1381 71.1174 44.1381 71.2093 44.2069C71.2781 44.2987 71.2093 44.3676 71.0486 44.3676C70.8879 44.3676 70.8191 44.2987 70.8879 44.2069Z" fill="white"/>
<path d="M74.3543 43.3116C74.4231 43.105 74.492 42.8985 74.492 42.8526C74.492 42.8066 74.6067 42.7607 74.7215 42.7607C74.8592 42.7607 74.951 42.9673 74.951 43.2198C74.951 43.4952 74.7904 43.6788 74.5838 43.6788C74.3313 43.6788 74.2624 43.5641 74.3543 43.3116Z" fill="white"/>
<path d="M62.3271 43.2429C62.3271 42.715 62.8092 41.8428 63.0846 41.8428C63.5666 41.8428 63.2223 43.3117 62.7173 43.4036C62.5108 43.4495 62.3271 43.3806 62.3271 43.2429Z" fill="white"/>
<path d="M67.4913 42.9906L66.8027 42.8299L67.4225 42.6692C68.0651 42.4856 68.5242 42.6233 68.5242 43.0135C68.5242 43.2431 68.5012 43.2431 67.4913 42.9906Z" fill="white"/>
<path d="M66.6885 41.8888C66.6885 40.9478 67.2164 40.8101 67.6984 41.6364C68.0197 42.1872 68.0427 42.302 67.7443 42.302C67.5607 42.302 67.2623 42.3709 67.0557 42.4397C66.7803 42.5545 66.6885 42.4168 66.6885 41.8888Z" fill="white"/>
<path d="M70.6819 42.2098C69.649 41.7508 68.9834 40.5343 68.9834 39.0883C68.9834 38.0554 69.0752 37.8029 69.6949 37.2291C70.0851 36.8619 70.4753 36.5635 70.5901 36.5635C71.095 36.5635 72.9542 38.3308 73.5739 39.4326L74.2855 40.695L73.528 41.4983C72.6558 42.4164 71.6918 42.6689 70.6819 42.2098Z" fill="white"/>
<path d="M65.8849 41.6133C65.816 41.4986 65.8619 41.3838 65.9767 41.3838C66.1144 41.3838 66.2292 41.4986 66.2292 41.6133C66.2292 41.751 66.1833 41.8428 66.1374 41.8428C66.0685 41.8428 65.9537 41.751 65.8849 41.6133Z" fill="white"/>
<path d="M62.8786 41.2462C62.9474 41.0396 63.0163 40.833 63.0163 40.7871C63.0163 40.7412 63.2229 40.6953 63.4753 40.6953C64.0492 40.6953 64.0721 41.0626 63.4983 41.3839C62.8786 41.7052 62.7179 41.6823 62.8786 41.2462Z" fill="white"/>
<path d="M64.6913 40.9706C64.1634 40.9018 64.0027 40.6034 64.347 40.3968C64.4388 40.3279 64.8519 40.2132 65.2651 40.1214C65.8848 39.9836 65.9996 40.0295 65.9996 40.4197C65.9996 40.9018 65.5176 41.1083 64.6913 40.9706Z" fill="white"/>
<path d="M66.459 40.1905C66.459 39.915 66.4819 39.7544 66.5278 39.8003C66.5508 39.8462 66.7344 40.0757 66.8951 40.3052C67.1705 40.6266 67.1476 40.6954 66.8262 40.6954C66.5967 40.6954 66.459 40.5118 66.459 40.1905Z" fill="white"/>
<path d="M63.2451 40.0298C63.2451 39.892 63.3599 39.7314 63.4746 39.6625C63.6124 39.5937 63.7042 39.6855 63.7042 39.8691C63.7042 40.0757 63.6124 40.2363 63.4746 40.2363C63.3599 40.2363 63.2451 40.1445 63.2451 40.0298Z" fill="white"/>
<path d="M64.0945 39.6855C63.9108 39.2264 65.5405 38.7215 65.8159 39.1576C66.0225 39.5248 65.8159 39.6855 64.9437 39.8691C64.4158 39.9839 64.1863 39.938 64.0945 39.6855Z" fill="white"/>
<path d="M66.2525 38.9504C66.2525 38.698 66.3214 38.6291 66.3903 38.8127C66.4591 38.9734 66.4362 39.18 66.3673 39.2488C66.2985 39.3406 66.2296 39.2029 66.2525 38.9504Z" fill="white"/>
<path d="M64.3019 38.5837C64.5773 38.0787 65.3806 37.2524 65.5872 37.2524C65.8167 37.2524 65.8397 38.3312 65.6102 38.4689C65.4954 38.5148 65.1282 38.6296 64.7839 38.7214C64.2789 38.8362 64.1641 38.8132 64.3019 38.5837Z" fill="white"/>
<path d="M66.1373 38.056C65.8848 37.3674 65.9996 37.0691 66.5504 36.9772C67.1242 36.8625 67.1242 36.8625 66.757 37.574C66.2979 38.4921 66.3209 38.4921 66.1373 38.056Z" fill="white"/>
<path d="M66 36.6782C66 36.6323 66.4591 36.311 67.0329 35.9897C67.7215 35.5765 68.2035 35.4388 68.5477 35.5306C68.9609 35.6683 68.8461 35.7601 67.8362 36.2421C66.7115 36.7471 66 36.9307 66 36.6782Z" fill="white"/>
<path d="M78.7384 16.3425C78.1187 15.4474 76.8104 14.0013 75.8694 13.1291C74.9283 12.2569 74.3086 11.5454 74.4922 11.5454C74.9972 11.5454 78.8532 12.6012 79.8172 13.0144C80.6206 13.3587 80.6435 13.4046 80.4369 14.1161C80.3222 14.5293 80.2304 15.5621 80.2304 16.4114C80.2304 17.2836 80.1615 17.9722 80.0697 17.9722C79.9549 17.9722 79.3811 17.2377 78.7384 16.3425Z" fill="white"/>
<path d="M32.0299 85.8663C31.0889 85.3843 30.8823 85.1088 29.6888 82.7447C27.9673 79.3936 27.9214 78.6132 29.551 80.5183C30.1937 81.2757 31.6856 82.8365 32.8562 83.9841C34.8531 85.9122 34.9449 86.0499 34.2793 85.9581C33.7973 85.8892 33.6137 85.9351 33.7284 86.1187C34.0039 86.5319 33.1317 86.4171 32.0299 85.8663Z" fill="white"/>
<path fill-rule="evenodd" clip-rule="evenodd" d="M70.4956 127.684C70.3052 127.232 70.5175 126.711 70.97 126.52L71.4644 126.31C76.2724 124.253 79.032 123.017 80.9072 121.055C82.7823 119.093 83.0067 116.211 83.359 114.457C83.4556 113.975 84.5455 114.821 85.0268 114.917C85.5081 115.014 85.8199 115.483 85.7232 115.964C85.2996 118.073 84.159 120.083 82.3227 121.991C80.4926 123.893 76.9493 125.932 71.6598 128.159C71.2073 128.349 70.6861 128.137 70.4956 127.684Z" fill="#00160A"/>
<path fill-rule="evenodd" clip-rule="evenodd" d="M92.2379 36.1028C92.6597 35.8517 93.2052 35.9901 93.4563 36.4119C95.9706 40.6356 97.3175 45.4637 97.3175 50.487C97.3175 65.7054 84.9806 78.0423 69.7622 78.0423C65.7184 78.0423 61.7962 77.17 58.2045 75.5084C57.759 75.3022 56.076 73.6608 57.7711 74.3284C59.4662 74.9959 66.0247 76.4943 69.8095 76.4943C84.046 76.4943 94.1175 64.7236 94.1175 50.487C94.1175 45.7861 92.2379 41.6134 91.9287 37.3212C91.8929 36.8237 91.816 36.3539 92.2379 36.1028Z" fill="#00160A"/>
<path fill-rule="evenodd" clip-rule="evenodd" d="M4.20494 103.377C4.51913 103 5.07961 102.238 5.45681 102.552C7.00424 103.841 8.65552 105.334 10.4219 105.623C12.2599 105.923 14.4405 105.923 16.9608 105.618C17.4481 105.559 17.891 105.906 17.95 106.393C18.009 106.88 17.6618 107.323 17.1744 107.382C14.498 107.706 12.1527 107.706 10.1356 107.377C8.0467 107.036 6.10412 106.116 4.31904 104.629C3.94183 104.315 3.89075 103.755 4.20494 103.377Z" fill="#00160A"/>
<path d="M23.0783 72.2783C21.9307 71.3602 19.4747 68.6518 17.6156 66.2647C16.6516 65.0023 15.5728 62.4316 14.9301 59.838C14.6317 58.6674 14.3333 57.6116 14.2645 57.4739C14.1727 57.3591 13.8054 55.7295 13.4382 53.8473C12.8873 51.1848 13.0038 50.3271 12.5201 47.1423C12.3153 45.7939 12.1299 44.721 12.1299 44.721L12.7267 43.9547C13.0709 43.4957 13.5065 42.736 13.6677 42.3021C14.4022 40.3258 19.7961 34.131 19.9568 34.2916C20.0027 34.3375 19.819 35.4163 19.4977 36.6787C19.1993 37.9411 18.8321 39.8462 18.6714 40.925C18.4419 42.7153 18.3501 42.9219 17.6385 43.5186C16.7434 44.2761 15.0449 46.709 15.0449 47.214C15.0449 47.9026 16.0777 47.4435 17.1565 46.3189L18.2583 45.1712V46.4336C18.2583 47.2599 18.0976 48.0174 17.7992 48.6141C17.2254 49.7388 17.2254 50.9323 17.7762 51.8505C18.0517 52.3095 18.3042 53.4112 18.4648 54.7195C19.1764 60.6413 20.6912 65.7827 23.2849 70.9471C23.9276 72.2324 24.4325 73.2883 24.4096 73.2883C24.3637 73.2883 23.7669 72.8292 23.0783 72.2783Z" fill="white"/>
<path d="M102.105 88.5057C101.508 88.2992 100.865 87.8401 100.452 87.3122L99.7637 86.4629L102.197 84.0529C105.938 80.3805 108.692 76.367 111.171 71.8912C111.997 70.3993 114.453 64.3825 114.752 63.7168C115.211 62.7528 115.555 62.3856 116.542 61.8347C117.713 61.1461 119.044 60.9166 119.618 61.3068C120.719 62.0413 120.719 64.3595 119.618 68.3533C118.401 72.7372 116.772 75.8818 113.398 80.4034C112.87 81.092 111.883 82.4462 111.171 83.3873C109.266 85.9121 108.027 87.1286 106.351 88.0696C104.699 88.9877 103.734 89.1025 102.105 88.5057Z" fill="white"/>
<path d="M110.757 87.9779L110.275 87.4958C110.275 87.4958 118.275 77.3317 119.709 73.5865C120.803 70.7284 121.447 69.918 122.315 69.918C122.801 69.918 123.198 70.0289 123.381 70.3043C123.703 70.7863 124.012 71.3831 123.599 73.4258C122.911 76.731 121.855 78.9115 118.687 83.6168C117.953 84.6956 117.012 85.8892 116.599 86.3023C115.635 87.1975 113.466 88.1156 112.203 88.3221C111.4 88.4369 111.171 88.391 110.757 87.9779Z" fill="white"/>
<path fill-rule="evenodd" clip-rule="evenodd" d="M124.196 77.3494C124.658 76.2904 124.988 75.3668 124.988 75.0325C124.988 74.5046 125.264 74.5735 126.641 75.3768C128.041 76.2261 139.357 81.8954 145.141 84.6727C147.298 85.7055 149.089 86.291 149.089 86.4058C149.089 86.5206 123.705 78.4722 124.196 77.3494Z" fill="#E7EAEE"/>
<path fill-rule="evenodd" clip-rule="evenodd" d="M45.6633 78.659C42.7483 76.7539 38.3414 72.2781 36.2068 69.0877C33.1541 64.4971 31.1343 59.5853 30.1473 54.3061C29.4358 50.473 29.4587 44.5742 30.1703 41.1542C30.9048 37.6654 31.8458 35.0029 33.5214 31.6289C35.4723 27.7269 37.5381 24.8578 40.6367 21.7592C43.6753 18.7206 30.1703 31.2865 33.5214 53.7696C36.2068 72.6104 47.748 80.0325 45.6633 78.659Z" fill="#E7EAEE"/>
</svg>
