<svg width="206" height="206" viewBox="0 0 206 206" fill="none" xmlns="http://www.w3.org/2000/svg">
<path fill-rule="evenodd" clip-rule="evenodd" d="M65 0H15C6.71573 0 0 6.71573 0 15V65H1V15C1 7.26801 7.26801 1 15 1H65V0ZM141 1V0H191C199.284 0 206 6.71573 206 15V65H205V15C205 7.26801 198.732 1 191 1H141ZM141 205H191C198.732 205 205 198.732 205 191V141H206V191C206 199.284 199.284 206 191 206H141V205ZM1 141V191C1 198.732 7.26801 205 15 205H65V206H15C6.71573 206 0 199.284 0 191V141H1Z" fill="black"/>
<mask id="mask0_686_14733" style="mask-type:alpha" maskUnits="userSpaceOnUse" x="7" y="5" width="190" height="193">
<rect x="7" y="5" width="190" height="193" fill="#D9D9D9"/>
</mask>
<g mask="url(#mask0_686_14733)">
<path d="M74.6892 174.511C75.6108 166.953 69.7179 152.055 65.6372 149.188C78.21 146.21 106.72 151.514 128.954 136.956C120.32 158.781 132.25 178.817 137.543 188.412L91.2323 210.575L64.1016 191.715C72.0427 182.163 74.066 179.621 74.6892 174.511Z" fill="white" stroke="#333333" stroke-width="1.74605" stroke-linecap="round" stroke-linejoin="round"/>
<mask id="mask1_686_14733" style="mask-type:alpha" maskUnits="userSpaceOnUse" x="63" y="130" width="76" height="82">
<path d="M74.6892 174.513C75.6108 166.956 69.7244 150.274 65.6437 147.406C78.2165 144.429 105.836 146.102 128.07 131.544C120.659 156.69 132.25 178.819 137.543 188.415L91.2323 210.577L64.1016 191.718C67.0793 190.505 73.8676 181.25 74.6892 174.513Z" fill="#FFF2D1" stroke="#333333" stroke-width="1.74605" stroke-linecap="round" stroke-linejoin="round"/>
</mask>
<g mask="url(#mask1_686_14733)">
<path fill-rule="evenodd" clip-rule="evenodd" d="M112.076 142.945C108.42 141.982 105.746 141.494 104.418 141.494L47.6399 144.699L40.7715 181.559L58.7403 189.494C72.782 180.454 94.6647 169.945 112.076 162.409V142.945Z" fill="#333333"/>
</g>
<path fill-rule="evenodd" clip-rule="evenodd" d="M41.1687 75.6144C39.0302 43.9009 64.1782 17 95.9637 17C127.749 17 152.897 43.9009 150.759 75.6145L150.158 84.519L151.573 84.6513C155.2 84.9906 157.9 88.2091 157.602 91.84L156.354 107.097C156.057 110.728 152.876 113.397 149.248 113.057L148.24 112.963L148.104 114.988C146.254 142.422 123.461 163.73 95.9637 163.73C68.4669 163.73 45.6737 142.422 43.8237 114.988L43.8122 114.816L42.678 114.922C39.0509 115.262 35.8696 112.593 35.5725 108.962L34.3241 93.7048C34.027 90.0739 36.7266 86.8555 40.3538 86.5162L41.8941 86.3721L41.1687 75.6144Z" fill="white"/>
<path d="M41.1687 75.6144L42.0397 75.5557V75.5557L41.1687 75.6144ZM150.759 75.6145L149.888 75.5557L150.759 75.6145ZM150.158 84.519L149.287 84.4603C149.255 84.9325 149.606 85.3441 150.077 85.3882L150.158 84.519ZM151.573 84.6513L151.654 83.7821L151.573 84.6513ZM157.602 91.84L156.732 91.7688L157.602 91.84ZM156.354 107.097L155.484 107.026L156.354 107.097ZM149.248 113.057L149.33 112.188L149.248 113.057ZM148.24 112.963L148.322 112.094C148.087 112.072 147.854 112.146 147.674 112.298C147.495 112.451 147.385 112.669 147.369 112.904L148.24 112.963ZM148.104 114.988L147.233 114.929L148.104 114.988ZM43.8237 114.988L42.9527 115.046L43.8237 114.988ZM43.8122 114.816L44.6832 114.757C44.6674 114.522 44.5573 114.304 44.378 114.151C44.1986 113.999 43.9653 113.925 43.7308 113.947L43.8122 114.816ZM42.678 114.922L42.7594 115.791H42.7594L42.678 114.922ZM35.5725 108.962L36.4427 108.891L35.5725 108.962ZM34.3241 93.7048L33.454 93.776L34.3241 93.7048ZM40.3538 86.5162L40.2724 85.6469H40.2724L40.3538 86.5162ZM41.8941 86.3721L41.9754 87.2413C42.4467 87.1972 42.797 86.7856 42.7651 86.3133L41.8941 86.3721ZM95.9637 16.127C63.6729 16.127 38.1251 43.4555 40.2976 75.6732L42.0397 75.5557C39.9352 44.3463 64.6835 17.873 95.9637 17.873V16.127ZM151.63 75.6732C153.802 43.4555 128.255 16.127 95.9637 16.127V17.873C127.244 17.873 151.992 44.3463 149.888 75.5557L151.63 75.6732ZM151.029 84.5777L151.63 75.6732L149.888 75.5557L149.287 84.4603L151.029 84.5777ZM150.077 85.3882L151.491 85.5205L151.654 83.7821L150.24 83.6498L150.077 85.3882ZM151.491 85.5205C154.643 85.8153 156.99 88.6145 156.732 91.7688L158.473 91.9112C158.809 87.8037 155.757 84.1659 151.654 83.7821L151.491 85.5205ZM156.732 91.7688L155.484 107.026L157.224 107.169L158.473 91.9112L156.732 91.7688ZM155.484 107.026C155.226 110.173 152.473 112.482 149.33 112.188L149.167 113.927C153.278 114.311 156.887 111.284 157.224 107.169L155.484 107.026ZM149.33 112.188L148.322 112.094L148.159 113.832L149.167 113.927L149.33 112.188ZM148.975 115.046L149.111 113.022L147.369 112.904L147.233 114.929L148.975 115.046ZM95.9637 164.603C123.92 164.603 147.094 142.939 148.975 115.046L147.233 114.929C145.414 141.905 123.001 162.857 95.9637 162.857V164.603ZM42.9527 115.046C44.8336 142.939 68.0075 164.603 95.9637 164.603V162.857C68.9263 162.857 46.5138 141.905 44.6948 114.929L42.9527 115.046ZM42.9411 114.875L42.9527 115.046L44.6948 114.929L44.6832 114.757L42.9411 114.875ZM42.7594 115.791L43.8935 115.685L43.7308 113.947L42.5967 114.053L42.7594 115.791ZM34.7024 109.034C35.0392 113.149 38.6482 116.176 42.7594 115.791L42.5967 114.053C39.4536 114.347 36.7001 112.038 36.4427 108.891L34.7024 109.034ZM33.454 93.776L34.7024 109.034L36.4427 108.891L35.1942 93.6336L33.454 93.776ZM40.2724 85.6469C36.1692 86.0308 33.1179 89.6685 33.454 93.776L35.1942 93.6336C34.9361 90.4794 37.284 87.6802 40.4351 87.3854L40.2724 85.6469ZM41.8128 85.5028L40.2724 85.6469L40.4351 87.3854L41.9754 87.2413L41.8128 85.5028ZM40.2976 75.6732L41.0231 86.4308L42.7651 86.3133L42.0397 75.5557L40.2976 75.6732Z" fill="#333333"/>
<path d="M89.5627 143.658C94.3085 143.658 103.429 143.449 107.906 136.665" stroke="#333333" stroke-width="2.1801" stroke-linecap="round" stroke-linejoin="round"/>
<path d="M25.569 199.967L68.3098 187.322L135.405 183.414L186.051 196.342C195.805 198.832 203.268 206.691 205.251 216.559L214 260.096H0L7.23206 220.389C9.00263 210.667 16.0937 202.77 25.569 199.967Z" fill="white" stroke="#333333" stroke-width="1.51102" stroke-linecap="round" stroke-linejoin="round"/>
<path d="M85.1278 219.984L80.3601 202.503L85.1278 185.929L105.788 187.064L113.28 204.092L105.788 219.984H85.1278Z" fill="white"/>
<path d="M105.788 224.845H85.1278L76.8281 260.008H96.1348H115.441L105.788 224.845Z" fill="white"/>
<path d="M115.441 260.008L105.788 224.845H85.1278L76.8281 260.008M80.3601 202.503L85.1278 219.984H105.788L113.28 204.092L105.788 187.064L85.1278 185.929L80.3601 202.503Z" stroke="#333333" stroke-width="1.51102" stroke-linecap="round" stroke-linejoin="round"/>
<path d="M95.8012 186.029L69.0355 176.933L57.8286 194.758L75.2458 221.395L95.8012 186.029Z" fill="white" stroke="#333333" stroke-width="1.51102" stroke-linecap="round" stroke-linejoin="round"/>
<path d="M96.1615 185.744L134.113 173.958L145.792 192.122L116.866 223.135L96.1615 185.744Z" fill="white" stroke="#333333" stroke-width="1.51102" stroke-linecap="round" stroke-linejoin="round"/>
</g>
</svg>
