<svg width="53" height="54" viewBox="0 0 53 54" fill="none" xmlns="http://www.w3.org/2000/svg">
<g clip-path="url(#clip0_686_16184)">
<path d="M29.6422 32.5121V28.8048C29.6422 27.343 28.4582 26.1538 27.0029 26.1538C25.5476 26.1538 24.3636 27.343 24.3636 28.8048V32.152C24.3636 36.1857 22.8841 40.0584 20.1975 43.0566L16.4934 47.1906C16.1822 47.5379 16.2103 48.0728 16.5561 48.3855C16.9018 48.6981 17.4344 48.6699 17.7457 48.3226L21.4498 44.1886C24.4152 40.8791 26.0483 36.6045 26.0483 32.152V28.8048C26.0483 28.2761 26.4765 27.8459 27.0029 27.8459C27.5293 27.8459 27.9576 28.2761 27.9576 28.8048V32.5121C27.9576 37.476 26.1268 42.2324 22.8024 45.9055L19.1917 49.8948C18.8788 50.2404 18.9042 50.7757 19.2484 51.09C19.4098 51.2374 19.6125 51.31 19.8147 51.31C20.0438 51.31 20.272 51.2167 20.4382 51.033L24.0488 47.0437C27.6558 43.0585 29.6422 37.8978 29.6422 32.5121Z" fill="white"/>
<path d="M33.236 28.8048C33.236 25.3525 30.4398 22.5439 27.0027 22.5439C23.5657 22.5439 20.7695 25.3525 20.7695 28.8048V32.152C20.7695 35.2925 19.6176 38.3075 17.526 40.6417L14.8927 43.5807C14.5815 43.928 14.6095 44.463 14.9553 44.7757C15.3011 45.0883 15.8336 45.0599 16.1449 44.7127L18.7783 41.7738C21.1487 39.1283 22.4542 35.7112 22.4542 32.152V28.8048C22.4542 26.2856 24.4947 24.2361 27.0028 24.2361C29.511 24.2361 31.5514 26.2856 31.5514 28.8048V32.5121C31.5514 38.3758 29.3888 43.9947 25.4616 48.3337L22.4152 51.6997C22.1021 52.0454 22.1275 52.5806 22.4718 52.8949C22.6332 53.0424 22.8359 53.1149 23.038 53.1149C23.2671 53.1149 23.4954 53.0216 23.6616 52.838L26.7081 49.4719C30.9177 44.8208 33.236 38.7978 33.236 32.5121V28.8048Z" fill="white"/>
<path d="M36.8299 28.8048C36.8299 23.362 32.4215 18.9341 27.0027 18.9341C21.5839 18.9341 17.1755 23.362 17.1755 28.8048V32.152C17.1755 34.3992 16.3513 36.5566 14.8546 38.2268L12.4835 40.8731C12.1723 41.2204 12.2004 41.7554 12.5462 42.0681C12.8919 42.3807 13.4245 42.3522 13.7358 42.0051L16.1069 39.3589C17.8824 37.3774 18.8602 34.8179 18.8602 32.152V28.8048C18.8602 24.2951 22.5129 20.6262 27.0027 20.6262C31.4926 20.6262 35.1453 24.2951 35.1453 28.8048V32.5121C35.1453 39.2758 32.6506 45.7571 28.1208 50.7618L27.2777 51.6934C26.9648 52.0392 26.9901 52.5743 27.3344 52.8886C27.4958 53.0359 27.6986 53.1086 27.9007 53.1086C28.1298 53.1086 28.358 53.0153 28.5242 52.8316L29.3672 51.9001C34.1795 46.5831 36.8298 39.6977 36.8298 32.5121V28.8048H36.8299Z" fill="white"/>
<path d="M13.5817 28.805C13.5817 29.2724 13.9589 29.6511 14.4241 29.6511C14.8893 29.6511 15.2664 29.2724 15.2664 28.805C15.2664 25.956 16.2962 23.204 18.1661 21.0557C20.0187 18.9273 22.5613 17.5355 25.3255 17.1366C25.786 17.0701 26.1056 16.6413 26.0395 16.1789C25.9733 15.7163 25.546 15.3957 25.086 15.4617C21.9233 15.9182 19.0153 17.5092 16.8978 19.942C14.7594 22.3986 13.5817 25.5463 13.5817 28.805Z" fill="white"/>
<path d="M15.2662 32.1522C15.2662 31.6848 14.8891 31.3062 14.4239 31.3062C13.9587 31.3062 13.5815 31.6848 13.5815 32.1522C13.5815 33.5061 13.085 34.8058 12.1834 35.812L10.0743 38.166C9.76307 38.5132 9.79115 39.0482 10.137 39.3609C10.298 39.5064 10.4994 39.578 10.7002 39.578C10.9307 39.578 11.1603 39.4835 11.3266 39.2979L13.4356 36.9441C14.616 35.6266 15.2662 33.9249 15.2662 32.1522Z" fill="white"/>
<path d="M38.7708 39.7048C38.3205 39.5871 37.8605 39.8572 37.7426 40.3091C37.4316 41.5025 37.0448 42.6889 36.5925 43.8353C36.4211 44.2697 36.6328 44.7614 37.0653 44.9335C37.1672 44.974 37.2721 44.9932 37.3754 44.9932C37.7107 44.9932 38.0277 44.7907 38.1588 44.4586C38.636 43.2487 39.0443 41.9969 39.3724 40.7375C39.4901 40.2856 39.2207 39.8232 38.7708 39.7048Z" fill="white"/>
<path d="M35.9666 18.7795C35.6206 18.4669 35.088 18.4955 34.777 18.843C34.4661 19.1904 34.4944 19.7254 34.8403 20.0377C37.318 22.2749 38.7389 25.4702 38.7389 28.8045V32.5118C38.7389 33.9189 38.6423 35.3367 38.4518 36.7262C38.3883 37.1892 38.7104 37.616 39.1712 37.6798C39.2102 37.6852 39.2489 37.6878 39.2872 37.6878C39.7014 37.6878 40.0625 37.3807 40.1206 36.957C40.3216 35.4913 40.4236 33.9957 40.4236 32.5117V28.8045C40.4237 24.991 38.7991 21.337 35.9666 18.7795Z" fill="white"/>
<path d="M32.029 18.1528C32.146 18.2088 32.2692 18.2352 32.3906 18.2352C32.7054 18.2352 33.0074 18.0571 33.1517 17.7526C33.3517 17.3308 33.1733 16.8259 32.7533 16.6251C31.5397 16.0447 30.2498 15.6531 28.9195 15.4612C28.4583 15.3952 28.0321 15.716 27.966 16.1784C27.8998 16.6408 28.2195 17.0697 28.6799 17.1361C29.8421 17.3038 30.9688 17.6459 32.029 18.1528Z" fill="white"/>
<path d="M27.0027 11.7144C26.6876 11.7144 26.3689 11.7232 26.0552 11.7405C25.5907 11.7662 25.2348 12.1654 25.2605 12.6318C25.2862 13.0984 25.6831 13.4577 26.1479 13.4299C26.4308 13.4143 26.7184 13.4064 27.0026 13.4064C35.4558 13.4064 42.3331 20.3139 42.3331 28.8046V32.512C42.3331 32.9793 42.7102 33.358 43.1754 33.358C43.6406 33.358 44.0177 32.9793 44.0177 32.512V28.8048C44.0179 19.3811 36.3849 11.7144 27.0027 11.7144Z" fill="white"/>
<path d="M17.7926 16.3048C17.9585 16.3048 18.1262 16.2556 18.2727 16.1533C19.6741 15.1744 21.2133 14.4437 22.8475 13.9808C23.2953 13.854 23.556 13.3866 23.4297 12.9369C23.3035 12.4872 22.8379 12.2258 22.3904 12.3521C20.5754 12.8661 18.8665 13.6775 17.311 14.7638C16.929 15.0306 16.8347 15.5579 17.1003 15.9414C17.264 16.1781 17.5261 16.3048 17.7926 16.3048Z" fill="white"/>
<path d="M11.6724 32.1518V28.8046C11.6724 24.8687 13.1564 21.1203 15.8509 18.2497C16.17 17.9097 16.1544 17.3743 15.8159 17.0537C15.4774 16.7331 14.9442 16.749 14.6252 17.0889C11.6347 20.2747 9.98772 24.4355 9.98772 28.8046V32.1518C9.98772 32.6124 9.81881 33.0545 9.5122 33.3966L8.47355 34.5557C8.16233 34.9031 8.19041 35.438 8.53622 35.7506C8.69716 35.8962 8.89864 35.9679 9.09946 35.9679C9.32992 35.9679 9.55948 35.8735 9.72581 35.6879L10.7645 34.5288C11.3499 33.8752 11.6724 33.031 11.6724 32.1518Z" fill="white"/>
<path d="M46.5421 22.2172C45.6182 19.4595 44.15 16.9681 42.1781 14.8123C41.8633 14.4682 41.3305 14.4454 40.988 14.7616C40.6454 15.0778 40.6229 15.613 40.9376 15.9572C42.7488 17.9374 44.0973 20.2251 44.9455 22.7568C45.0639 23.1102 45.392 23.3332 45.7437 23.3332C45.8327 23.3332 45.9234 23.3189 46.0124 23.2888C46.4533 23.1397 46.6905 22.66 46.5421 22.2172Z" fill="white"/>
<path d="M33.6595 9.21231C33.2196 9.06103 32.7405 9.29669 32.5898 9.7389C32.4392 10.181 32.674 10.662 33.1141 10.8132C34.9715 11.4515 36.7154 12.3763 38.2973 13.5622C38.4485 13.6756 38.6252 13.7302 38.8004 13.7302C39.0572 13.7302 39.3108 13.6127 39.4762 13.39C39.7545 13.0156 39.6777 12.4854 39.3049 12.206C37.5824 10.915 35.683 9.90766 33.6595 9.21231Z" fill="white"/>
<path d="M13.9147 15.0882C17.458 11.6759 22.1061 9.79661 27.0028 9.79661C27.912 9.79661 28.8264 9.86238 29.7202 9.99188C30.181 10.0593 30.6078 9.73784 30.6743 9.27533C30.7408 8.81281 30.4215 8.38392 29.961 8.31714C28.9875 8.17613 27.9922 8.10449 27.0028 8.10449C21.6694 8.10449 16.6073 10.1509 12.7488 13.8668C8.90238 17.5712 6.65291 22.5423 6.41481 27.8645C6.39392 28.3313 6.75376 28.7268 7.21839 28.7477C7.23131 28.7484 7.24411 28.7486 7.25691 28.7486C7.7047 28.7486 8.07746 28.3944 8.09779 27.9405C8.31623 23.0546 10.3821 18.4903 13.9147 15.0882Z" fill="white"/>
<path d="M27.0029 4.49463C25.1192 4.49463 23.2422 4.71393 21.424 5.14643C20.9713 5.25405 20.6913 5.71002 20.7984 6.16464C20.9057 6.61925 21.3596 6.9006 21.8122 6.79287C23.5034 6.39082 25.2498 6.18675 27.0029 6.18675C33.1796 6.18675 38.9452 8.65848 43.2375 13.1464C43.4029 13.3194 43.6237 13.4065 43.8451 13.4065C44.055 13.4065 44.2652 13.3282 44.4285 13.1706C44.764 12.8468 44.7748 12.3112 44.4525 11.9744C42.216 9.63596 39.5889 7.79641 36.6444 6.50712C33.5945 5.1717 30.3506 4.49463 27.0029 4.49463Z" fill="white"/>
<path d="M8.08202 15.0313C8.23611 15.1525 8.41907 15.2112 8.60079 15.2112C8.8509 15.2112 9.09844 15.0999 9.26454 14.8868C11.6652 11.8069 14.8256 9.39115 18.4041 7.90039C18.8338 7.72136 19.0377 7.22636 18.8595 6.79476C18.6813 6.36316 18.1882 6.15807 17.7587 6.33732C13.9131 7.93931 10.5171 10.5349 7.93815 13.8435C7.65131 14.2115 7.71578 14.7433 8.08202 15.0313Z" fill="white"/>
<path d="M15.3232 5.25325C15.446 5.25325 15.5708 5.22618 15.6887 5.16887C19.2353 3.44889 23.0419 2.57689 27.0027 2.57689C29.0668 2.57689 31.1225 2.82078 33.1126 3.30179C33.5646 3.41076 34.0197 3.13145 34.1285 2.67717C34.2374 2.22289 33.9589 1.76591 33.5065 1.6566C31.3877 1.14445 29.1994 0.884766 27.0027 0.884766C22.7861 0.884766 18.7331 1.8134 14.9564 3.64506C14.5374 3.84823 14.3618 4.35406 14.5641 4.77484C14.7093 5.07705 15.01 5.25325 15.3232 5.25325Z" fill="white"/>
<path d="M36.6335 4.42523C37.5019 4.77257 38.3614 5.17191 39.1882 5.61197C39.3138 5.67898 39.4488 5.71068 39.5818 5.71068C39.8837 5.71068 40.1756 5.54722 40.3268 5.26057C40.5445 4.8477 40.388 4.33566 39.9769 4.11681C39.0967 3.64832 38.1815 3.22315 37.2567 2.85325C36.8245 2.68032 36.3347 2.89217 36.1625 3.32614C35.9904 3.76023 36.2014 4.25241 36.6335 4.42523Z" fill="white"/>
</g>
<defs>
<clipPath id="clip0_686_16184">
<rect width="52" height="52.2301" fill="white" transform="translate(0.5 0.884766)"/>
</clipPath>
</defs>
</svg>
