<svg width="56" height="56" viewBox="0 0 56 56" fill="none" xmlns="http://www.w3.org/2000/svg">
<g opacity="0.3" filter="url(#filter0_f_686_16783)">
<path d="M27.4622 10.0484C27.82 10.0162 28.18 10.0162 28.5378 10.0484L29.6049 10.1445C29.9627 10.1767 30.3169 10.241 30.6632 10.3365L31.696 10.6216C32.0423 10.7171 32.3793 10.8436 32.703 10.9995L33.6683 11.4644C33.992 11.6202 34.301 11.8049 34.5917 12.0161L35.4584 12.6458C35.7491 12.857 36.0202 13.0938 36.2684 13.3535L37.0088 14.1278C37.2571 14.3875 37.4815 14.669 37.6795 14.9688L38.2697 15.8629C38.4676 16.1628 38.6382 16.4798 38.7794 16.8102L39.2004 17.7953C39.3417 18.1257 39.4529 18.468 39.5328 18.8183L39.7712 19.8628C39.8512 20.213 39.8995 20.5698 39.9156 20.9287L39.9637 21.999C39.9798 22.3579 39.9637 22.7175 39.9154 23.0735L39.7716 24.1352C39.7234 24.4912 39.6433 24.8422 39.5323 25.1839L39.2012 26.2028C39.0902 26.5445 38.9487 26.8755 38.7784 27.1919L38.2708 28.1353C38.1005 28.4517 37.9022 28.7521 37.6782 29.033L37.0102 29.8706C36.7862 30.1515 36.5374 30.4117 36.2669 30.6481L35.4601 31.3529C35.1895 31.5893 34.8983 31.8009 34.5899 31.9852L33.6702 32.5347C33.3618 32.719 33.0374 32.8752 32.701 33.0014L31.698 33.3778C31.3617 33.5041 31.0146 33.5999 30.6611 33.664L29.607 33.8553C29.2535 33.9195 28.8949 33.9517 28.5357 33.9517H27.4643C27.1051 33.9517 26.7465 33.9195 26.393 33.8553L25.3389 33.664C24.9854 33.5999 24.6384 33.5041 24.302 33.3778L23.299 33.0014C22.9626 32.8752 22.6383 32.719 22.3298 32.5347L21.4102 31.9852C21.1017 31.8009 20.8105 31.5893 20.5399 31.353L19.7331 30.6481C19.4626 30.4117 19.2138 30.1515 18.9898 29.8706L18.3218 29.033C18.0978 28.7521 17.8995 28.4517 17.7292 28.1353L17.2216 27.1919C17.0513 26.8755 16.9098 26.5445 16.7988 26.2028L16.4677 25.1839C16.3567 24.8422 16.2766 24.4912 16.2284 24.1352L16.0846 23.0735C16.0363 22.7175 16.0202 22.3579 16.0363 21.999L16.0844 20.9287C16.1005 20.5698 16.1488 20.213 16.2288 19.8628L16.4672 18.8183C16.5471 18.468 16.6584 18.1257 16.7996 17.7953L17.2206 16.8102C17.3618 16.4798 17.5324 16.1628 17.7303 15.8629L18.3205 14.9688C18.5185 14.669 18.7429 14.3875 18.9912 14.1278L19.7316 13.3535C19.9798 13.0938 20.251 12.857 20.5416 12.6458L21.4083 12.0161C21.699 11.8049 22.008 11.6202 22.3317 11.4644L23.297 10.9995C23.6207 10.8436 23.9577 10.7171 24.3041 10.6216L25.3368 10.3365C25.6831 10.241 26.0373 10.1767 26.3952 10.1445L27.4622 10.0484Z" fill="#072C27"/>
</g>
<g opacity="0.4" filter="url(#filter1_f_686_16783)">
<path d="M27.4621 15.0484C27.82 15.0162 28.18 15.0162 28.5378 15.0484L29.7834 15.1605C30.1412 15.1928 30.4954 15.257 30.8418 15.3526L32.0473 15.6853C32.3936 15.7809 32.7307 15.9074 33.0544 16.0633L34.1811 16.6059C34.5048 16.7618 34.8139 16.9464 35.1045 17.1576L36.1163 17.8927C36.407 18.1039 36.6781 18.3407 36.9264 18.6004L37.7906 19.5044C38.0389 19.764 38.2633 20.0455 38.4613 20.3453L39.1502 21.3891C39.3482 21.6889 39.5187 22.0059 39.66 22.3363L40.1515 23.4863C40.2927 23.8166 40.4039 24.159 40.4839 24.5093L40.7622 25.7285C40.8421 26.0788 40.8904 26.4356 40.9065 26.7945L40.9627 28.0438C40.9788 28.4027 40.9626 28.7624 40.9144 29.1184L40.7465 30.3577C40.6983 30.7137 40.6182 31.0647 40.5072 31.4064L40.1207 32.5958C40.0097 32.9375 39.8682 33.2685 39.6979 33.5849L39.1053 34.6862C38.9351 35.0026 38.7367 35.303 38.5127 35.5839L37.733 36.5617C37.509 36.8426 37.2602 37.1028 36.9896 37.3391L36.0478 38.162C35.7773 38.3984 35.486 38.61 35.1776 38.7942L34.104 39.4357C33.7956 39.6199 33.4713 39.7761 33.1349 39.9024L31.964 40.3418C31.6277 40.4681 31.2806 40.5638 30.9271 40.628L29.6966 40.8513C29.3431 40.9154 28.9846 40.9477 28.6253 40.9477H27.3747C27.0154 40.9477 26.6568 40.9154 26.3033 40.8513L25.0728 40.628C24.7193 40.5638 24.3723 40.4681 24.0359 40.3418L22.8651 39.9024C22.5287 39.7761 22.2043 39.6199 21.8959 39.4357L20.8223 38.7942C20.5139 38.61 20.2227 38.3984 19.9521 38.162L19.0103 37.3391C18.7397 37.1028 18.491 36.8426 18.2669 36.5617L17.4872 35.5839C17.2632 35.303 17.0649 35.0026 16.8946 34.6862L16.302 33.5849C16.1318 33.2685 15.9903 32.9375 15.8792 32.5958L15.4928 31.4064C15.3818 31.0647 15.3017 30.7137 15.2534 30.3577L15.0856 29.1184C15.0373 28.7624 15.0212 28.4027 15.0373 28.0438L15.0934 26.7945C15.1095 26.4356 15.1578 26.0788 15.2378 25.7285L15.5161 24.5093C15.596 24.159 15.7073 23.8166 15.8485 23.4863L16.34 22.3363C16.4812 22.0059 16.6518 21.6889 16.8497 21.3891L17.5387 20.3453C17.7366 20.0455 17.9611 19.764 18.2093 19.5044L19.0736 18.6004C19.3219 18.3407 19.593 18.1039 19.8836 17.8927L20.8954 17.1576C21.1861 16.9464 21.4951 16.7618 21.8188 16.6059L22.9456 16.0633C23.2693 15.9074 23.6063 15.7809 23.9527 15.6853L25.1582 15.3526C25.5045 15.257 25.8587 15.1928 26.2166 15.1605L27.4621 15.0484Z" fill="#29844B"/>
</g>
<path d="M27.462 2.04845C27.8199 2.01624 28.1799 2.01624 28.5377 2.04845L30.319 2.20876C30.6768 2.24097 31.031 2.30525 31.3773 2.40083L33.1013 2.87662C33.4477 2.9722 33.7847 3.0987 34.1084 3.25458L35.7197 4.03056C36.0434 4.18644 36.3525 4.37109 36.6431 4.58227L38.09 5.63349C38.3807 5.84467 38.6518 6.08153 38.9001 6.34121L40.136 7.63389C40.3843 7.89357 40.6087 8.17504 40.8067 8.47488L41.7919 9.96746C41.9898 10.2673 42.1604 10.5843 42.3016 10.9147L43.0045 12.5592C43.1458 12.8896 43.257 13.232 43.337 13.5822L43.7349 15.3258C43.8149 15.6761 43.8632 16.0329 43.8793 16.3918L43.9595 18.1784C43.9757 18.5373 43.9595 18.897 43.9113 19.253L43.6712 21.0253C43.623 21.3813 43.5429 21.7323 43.4319 22.074L42.8792 23.7749C42.7682 24.1166 42.6267 24.4476 42.4564 24.764L41.6089 26.3389C41.4387 26.6552 41.2404 26.9557 41.0164 27.2366L39.9013 28.6348C39.6773 28.9157 39.4285 29.176 39.1579 29.4123L37.8111 30.589C37.5405 30.8254 37.2493 31.037 36.9409 31.2213L35.4056 32.1386C35.0972 32.3228 34.7728 32.479 34.4364 32.6053L32.762 33.2337C32.4257 33.3599 32.0786 33.4557 31.7251 33.5199L29.9654 33.8392C29.6119 33.9034 29.2534 33.9356 28.8941 33.9356H27.1057C26.7464 33.9356 26.3878 33.9034 26.0343 33.8392L24.2746 33.5199C23.9211 33.4557 23.5741 33.3599 23.2377 33.2337L21.5633 32.6053C21.2269 32.479 20.9026 32.3228 20.5942 32.1386L19.0589 31.2213C18.7505 31.037 18.4592 30.8254 18.1887 30.589L16.8418 29.4123C16.5713 29.176 16.3225 28.9157 16.0985 28.6348L14.9834 27.2366C14.7594 26.9557 14.5611 26.6552 14.3908 26.3389L13.5433 24.764C13.3731 24.4476 13.2316 24.1166 13.1206 23.7749L12.5679 22.074C12.4569 21.7323 12.3768 21.3813 12.3285 21.0253L12.0885 19.253C12.0403 18.897 12.0241 18.5373 12.0402 18.1784L12.1205 16.3918C12.1366 16.0329 12.1849 15.6761 12.2648 15.3258L12.6628 13.5822C12.7428 13.232 12.854 12.8896 12.9952 12.5592L13.6981 10.9147C13.8393 10.5843 14.0099 10.2673 14.2078 9.96746L15.1931 8.47488C15.391 8.17504 15.6155 7.89357 15.8638 7.63389L17.0997 6.34121C17.348 6.08153 17.6191 5.84467 17.9097 5.63349L19.3566 4.58227C19.6473 4.37109 19.9563 4.18644 20.28 4.03056L21.8914 3.25458C22.2151 3.0987 22.5521 2.9722 22.8984 2.87662L24.6224 2.40083C24.9688 2.30525 25.323 2.24097 25.6808 2.20876L27.462 2.04845Z" fill="url(#paint0_linear_686_16783)"/>
<path d="M31.0595 12.0554C31.0595 12.0554 30.5266 14.3391 28.8805 15.989C27.2344 17.6389 25.4892 19.7126 26.8521 22.4597L27.6721 21.6833C27.6721 21.6833 26.8303 20.4949 27.3512 19.3897C27.7728 18.556 28.2582 17.756 28.8032 16.9971C29.4439 17.6033 29.8281 18.4319 29.8769 19.3125C29.8769 19.3125 30.3543 18.847 30.075 17.3517C30.073 17.3517 32.6778 15.2363 31.0595 12.0554Z" fill="white"/>
<path d="M24.8534 12C24.8534 12 25.2496 14.759 27.5791 16.5317C27.5791 16.5317 26.2281 17.8171 26.0835 19.2472C25.8685 18.6772 25.8339 18.0549 25.9845 17.4646C25.9845 17.4646 23.3677 15.7454 24.8534 12Z" fill="white"/>
<path d="M28.2941 18.5381C28.4949 18.8332 28.6336 19.1661 28.7017 19.5164C28.7698 19.8668 28.7659 20.2274 28.6903 20.5762C28.4249 21.7289 27.6048 22.9807 26.2538 23.2362C24.9029 23.4917 21.9514 23.0203 19.9011 19.5562L20.0081 19.4928C20.0081 19.4928 21.5849 22.1944 24.8197 22.8222C25.156 22.0336 25.2704 21.1681 25.1507 20.3192C25.0309 19.4703 24.6816 18.6702 24.1402 18.0053C23.7468 17.5416 23.2511 17.1755 22.6922 16.9358C21.8068 16.5733 19.7605 15.9593 18.7186 14.4243C18.7186 14.4243 16.5911 17.9895 19.6575 21.8695C22.8804 25.9576 27.5137 24.5058 28.5556 23.1431C29.2687 22.2082 30.3166 19.9345 28.6844 17.934L28.2941 18.5381Z" fill="white"/>
<path d="M37.2755 14.4164C37.2755 14.4164 35.9008 16.0999 34.2606 16.6466C32.6205 17.1932 31.0912 18.1459 30.8198 20.0969C30.5485 22.0478 31.1586 22.9391 31.1586 22.9391C31.1586 22.9391 34.4092 22.3191 35.8572 19.6532L35.9681 19.7344C35.9681 19.7344 33.6109 24.2404 29.2332 23.1471L28.5181 23.9076C28.5181 23.9076 32.0836 25.504 35.6255 22.741C39.1673 19.978 37.2755 14.4164 37.2755 14.4164Z" fill="white"/>
<path d="M28.005 14.7848C28.6537 14.7848 29.1796 14.259 29.1796 13.6103C29.1796 12.9616 28.6537 12.4358 28.005 12.4358C27.3562 12.4358 26.8303 12.9616 26.8303 13.6103C26.8303 14.259 27.3562 14.7848 28.005 14.7848Z" fill="white"/>
<defs>
<filter id="filter0_f_686_16783" x="10.0303" y="4.02429" width="35.9395" height="35.9275" filterUnits="userSpaceOnUse" color-interpolation-filters="sRGB">
<feFlood flood-opacity="0" result="BackgroundImageFix"/>
<feBlend mode="normal" in="SourceGraphic" in2="BackgroundImageFix" result="shape"/>
<feGaussianBlur stdDeviation="3" result="effect1_foregroundBlur_686_16783"/>
</filter>
<filter id="filter1_f_686_16783" x="0.03125" y="0.024292" width="55.9375" height="55.9235" filterUnits="userSpaceOnUse" color-interpolation-filters="sRGB">
<feFlood flood-opacity="0" result="BackgroundImageFix"/>
<feBlend mode="normal" in="SourceGraphic" in2="BackgroundImageFix" result="shape"/>
<feGaussianBlur stdDeviation="7.5" result="effect1_foregroundBlur_686_16783"/>
</filter>
<linearGradient id="paint0_linear_686_16783" x1="27.9999" y1="2.02429" x2="27.9999" y2="33.9356" gradientUnits="userSpaceOnUse">
<stop stop-color="#29844B"/>
<stop offset="1" stop-color="#072C27"/>
</linearGradient>
</defs>
</svg>
