<svg width="88" height="88" viewBox="0 0 88 88" fill="none" xmlns="http://www.w3.org/2000/svg">
<g opacity="0.3" filter="url(#filter0_f_439_13445)">
<path d="M43.4622 10.0486C43.82 10.0164 44.18 10.0164 44.5378 10.0486L48.4618 10.4017C48.8196 10.4339 49.1738 10.4982 49.5201 10.5938L53.318 11.6419C53.6643 11.7375 54.0013 11.864 54.325 12.0199L57.8747 13.7293C58.1984 13.8852 58.5074 14.0698 58.7981 14.281L61.9854 16.5968C62.2761 16.8079 62.5472 17.0448 62.7955 17.3045L65.5181 20.1521C65.7664 20.4118 65.9909 20.6933 66.1888 20.9931L68.3592 24.2812C68.5571 24.581 68.7277 24.898 68.8689 25.2284L70.4174 28.8511C70.5586 29.1815 70.6698 29.5239 70.7498 29.8742L71.6264 33.7152C71.7064 34.0654 71.7547 34.4222 71.7708 34.7811L71.9476 38.7169C71.9637 39.0758 71.9476 39.4355 71.8993 39.7915L71.3705 43.6956C71.3222 44.0517 71.2421 44.4026 71.1311 44.7443L69.9137 48.4913C69.8026 48.833 69.6611 49.164 69.4909 49.4804L67.624 52.9498C67.4537 53.2661 67.2554 53.5666 67.0314 53.8475L64.575 56.9277C64.3509 57.2086 64.1022 57.4688 63.8316 57.7052L60.8647 60.2973C60.5941 60.5337 60.3028 60.7453 59.9944 60.9296L56.6123 62.9503C56.3039 63.1346 55.9795 63.2908 55.6432 63.417L51.9546 64.8014C51.6182 64.9276 51.2712 65.0234 50.9177 65.0875L47.0412 65.791C46.6877 65.8552 46.3292 65.8874 45.9699 65.8874H42.0301C41.6708 65.8874 41.3123 65.8552 40.9588 65.791L37.0823 65.0875C36.7288 65.0234 36.3818 64.9276 36.0454 64.8014L32.3568 63.417C32.0205 63.2908 31.6961 63.1346 31.3877 62.9503L28.0056 60.9296C27.6972 60.7453 27.4059 60.5337 27.1354 60.2973L24.1684 57.7052C23.8979 57.4688 23.6491 57.2086 23.4251 56.9277L20.9686 53.8475C20.7446 53.5666 20.5463 53.2661 20.3761 52.9497L18.5091 49.4804C18.3389 49.164 18.1974 48.833 18.0864 48.4913L16.8689 44.7443C16.7579 44.4026 16.6778 44.0517 16.6295 43.6956L16.1007 39.7915C16.0525 39.4355 16.0363 39.0758 16.0524 38.7169L16.2292 34.7811C16.2453 34.4222 16.2936 34.0654 16.3736 33.7152L17.2503 29.8742C17.3302 29.5239 17.4415 29.1815 17.5827 28.8511L19.1311 25.2284C19.2723 24.898 19.4429 24.581 19.6408 24.2812L21.8112 20.9931C22.0092 20.6933 22.2336 20.4118 22.4819 20.1521L25.2045 17.3045C25.4528 17.0448 25.7239 16.8079 26.0146 16.5968L29.202 14.281C29.4926 14.0698 29.8017 13.8852 30.1254 13.7293L33.675 12.0199C33.9987 11.864 34.3357 11.7375 34.6821 11.6419L38.4799 10.5938C38.8262 10.4982 39.1804 10.4339 39.5382 10.4017L43.4622 10.0486Z" fill="#072C27"/>
</g>
<g opacity="0.4" filter="url(#filter1_f_439_13445)">
<path d="M43.4621 15.0486C43.82 15.0164 44.18 15.0164 44.5378 15.0486L48.6403 15.4178C48.9981 15.45 49.3523 15.5143 49.6987 15.6099L53.6693 16.7057C54.0156 16.8013 54.3527 16.9278 54.6764 17.0837L58.3875 18.8708C58.7112 19.0267 59.0203 19.2114 59.3109 19.4226L62.6433 21.8437C62.934 22.0549 63.2051 22.2917 63.4534 22.5514L66.2999 25.5286C66.5482 25.7883 66.7727 26.0698 66.9706 26.3696L69.2398 29.8073C69.4377 30.1071 69.6083 30.4242 69.7495 30.7545L71.3684 34.5421C71.5096 34.8725 71.6208 35.2149 71.7008 35.5651L72.6174 39.5809C72.6973 39.9312 72.7456 40.2879 72.7617 40.6469L72.9465 44.7618C72.9627 45.1207 72.9465 45.4803 72.8983 45.8364L72.3454 49.9181C72.2971 50.2742 72.217 50.6252 72.106 50.9669L70.8332 54.8843C70.7221 55.226 70.5806 55.557 70.4104 55.8734L68.4585 59.5006C68.2882 59.817 68.0899 60.1175 67.8659 60.3984L65.2977 63.6188C65.0737 63.8997 64.8249 64.1599 64.5544 64.3963L61.4524 67.1064C61.1819 67.3427 60.8906 67.5544 60.5822 67.7386L57.0462 69.8513C56.7377 70.0356 56.4134 70.1918 56.077 70.318L52.2206 71.7653C51.8843 71.8916 51.5372 71.9874 51.1837 72.0515L47.1308 72.787C46.7773 72.8511 46.4188 72.8834 46.0595 72.8834H41.9404C41.5812 72.8834 41.2226 72.8511 40.8691 72.787L36.8162 72.0515C36.4627 71.9874 36.1157 71.8916 35.7793 71.7653L31.9229 70.318C31.5866 70.1918 31.2622 70.0356 30.9538 69.8513L27.4178 67.7386C27.1094 67.5544 26.8181 67.3427 26.5475 67.1064L23.4456 64.3963C23.175 64.1599 22.9262 63.8997 22.7022 63.6188L20.134 60.3984C19.91 60.1175 19.7117 59.817 19.5415 59.5006L17.5896 55.8734C17.4193 55.557 17.2778 55.226 17.1668 54.8843L15.8939 50.9668C15.7829 50.6252 15.7028 50.2742 15.6546 49.9181L15.1017 45.8364C15.0534 45.4803 15.0373 45.1207 15.0534 44.7618L15.2382 40.6469C15.2543 40.2879 15.3026 39.9312 15.3826 39.5809L16.2992 35.5651C16.3791 35.2149 16.4904 34.8725 16.6316 34.5421L18.2505 30.7545C18.3917 30.4242 18.5623 30.1071 18.7602 29.8073L21.0294 26.3696C21.2273 26.0698 21.4518 25.7883 21.7 25.5286L24.5466 22.5514C24.7949 22.2917 25.066 22.0549 25.3566 21.8437L28.689 19.4226C28.9797 19.2114 29.2887 19.0267 29.6124 18.8708L33.3236 17.0837C33.6473 16.9278 33.9843 16.8013 34.3307 16.7057L38.3013 15.6099C38.6476 15.5143 39.0018 15.45 39.3597 15.4178L43.4621 15.0486Z" fill="#29844B"/>
</g>
<path d="M43.4622 2.04857C43.82 2.01636 44.18 2.01636 44.5378 2.04857L49.176 2.46601C49.5338 2.49822 49.888 2.5625 50.2344 2.65808L54.7235 3.89698C55.0698 3.99257 55.4068 4.11906 55.7305 4.27495L59.9263 6.2955C60.25 6.45139 60.559 6.63603 60.8497 6.84721L64.6172 9.58446C64.9078 9.79564 65.1789 10.0325 65.4272 10.2922L68.6454 13.6582C68.8937 13.9179 69.1182 14.1993 69.3161 14.4992L71.8816 18.3857C72.0795 18.6855 72.2501 19.0026 72.3913 19.3329L74.2216 23.6151C74.3628 23.9454 74.474 24.2878 74.554 24.6381L75.5902 29.1782C75.6702 29.5285 75.7185 29.8852 75.7346 30.2442L75.9436 34.8964C75.9597 35.2553 75.9435 35.6149 75.8953 35.971L75.2702 40.5857C75.222 40.9417 75.1418 41.2927 75.0308 41.6344L73.5918 46.0634C73.4807 46.4051 73.3393 46.7361 73.169 47.0525L70.9622 51.1533C70.792 51.4697 70.5937 51.7702 70.3697 52.0511L67.4661 55.692C67.2421 55.9729 66.9933 56.2331 66.7228 56.4695L63.2158 59.5334C62.9452 59.7698 62.654 59.9814 62.3456 60.1657L58.3479 62.5542C58.0394 62.7385 57.7151 62.8947 57.3787 63.0209L53.0188 64.6572C52.6824 64.7835 52.3354 64.8792 51.9819 64.9434L47.3998 65.7749C47.0463 65.8391 46.6877 65.8713 46.3285 65.8713H41.6716C41.3123 65.8713 40.9537 65.8391 40.6002 65.7749L36.0182 64.9434C35.6646 64.8792 35.3176 64.7835 34.9813 64.6572L30.6213 63.0209C30.2849 62.8947 29.9606 62.7385 29.6522 62.5542L25.6544 60.1657C25.346 59.9814 25.0548 59.7698 24.7842 59.5334L21.2772 56.4695C21.0067 56.2331 20.7579 55.9729 20.5339 55.692L17.6304 52.0511C17.4063 51.7702 17.208 51.4697 17.0378 51.1533L14.831 47.0525C14.6608 46.7361 14.5193 46.4051 14.4082 46.0634L12.9692 41.6344C12.8582 41.2927 12.7781 40.9417 12.7298 40.5857L12.1047 35.971C12.0565 35.6149 12.0403 35.2553 12.0565 34.8964L12.2654 30.2442C12.2815 29.8852 12.3298 29.5285 12.4098 29.1782L13.446 24.6381C13.526 24.2878 13.6372 23.9454 13.7784 23.6151L15.6087 19.3329C15.7499 19.0026 15.9205 18.6855 16.1184 18.3857L18.6839 14.4992C18.8818 14.1993 19.1063 13.9179 19.3546 13.6582L22.5728 10.2922C22.8211 10.0325 23.0922 9.79564 23.3828 9.58447L27.1504 6.84721C27.441 6.63603 27.7501 6.45139 28.0738 6.2955L32.2695 4.27495C32.5932 4.11906 32.9302 3.99257 33.2766 3.89698L37.7656 2.65808C38.112 2.5625 38.4662 2.49822 38.824 2.46601L43.4622 2.04857Z" fill="url(#paint0_linear_439_13445)"/>
<path d="M50.1188 22.1108C50.1188 22.1108 49.0531 26.6782 45.7609 29.978C42.4686 33.2777 38.9783 37.4252 41.704 42.9195L43.3442 41.3666C43.3442 41.3666 41.6604 38.9899 42.7024 36.7795C43.5455 35.1119 44.5164 33.512 45.6063 31.9942C46.8877 33.2067 47.6561 34.8637 47.7536 36.625C47.7536 36.625 48.7084 35.6941 48.1498 32.7033C48.1458 32.7033 53.3555 28.4727 50.1188 22.1108Z" fill="white"/>
<path d="M37.7067 22C37.7067 22 38.499 27.5181 43.158 31.0634C43.158 31.0634 40.4561 33.6343 40.1669 36.4943C39.7369 35.3544 39.6677 34.1098 39.9688 32.9292C39.9688 32.9292 34.7353 29.4908 37.7067 22Z" fill="white"/>
<path d="M44.5882 35.0762C44.9898 35.6664 45.2671 36.3322 45.4033 37.0329C45.5395 37.7336 45.5318 38.4547 45.3806 39.1524C44.8497 41.4578 43.2096 43.9614 40.5076 44.4724C37.8057 44.9834 31.9027 44.0406 27.8023 37.1123L28.0162 36.9856C28.0162 36.9856 31.1698 42.3887 37.6393 43.6445C38.312 42.0672 38.5409 40.3362 38.3014 38.6384C38.0619 36.9405 37.3631 35.3404 36.2805 34.0106C35.4935 33.0833 34.5022 32.351 33.3844 31.8715C31.6135 31.1466 27.521 29.9186 25.4371 26.8486C25.4371 26.8486 21.1822 33.9789 27.315 41.7391C33.7608 49.9152 43.0273 47.0116 45.1112 44.2862C46.5374 42.4165 48.6332 37.8689 45.3687 33.868L44.5882 35.0762Z" fill="white"/>
<path d="M62.551 26.833C62.551 26.833 59.8015 30.2001 56.5212 31.2934C53.2409 32.3867 50.1824 34.2921 49.6396 38.194C49.0969 42.0958 50.3171 43.8784 50.3171 43.8784C50.3171 43.8784 56.8183 42.6385 59.7144 37.3066L59.9362 37.4691C59.9362 37.4691 55.2217 46.481 46.4663 44.2943L45.0361 45.8155C45.0361 45.8155 52.1672 49.0083 59.2509 43.4823C66.3345 37.9563 62.551 26.833 62.551 26.833Z" fill="white"/>
<path d="M44.0098 27.5697C45.3073 27.5697 46.3591 26.518 46.3591 25.2206C46.3591 23.9233 45.3073 22.8716 44.0098 22.8716C42.7123 22.8716 41.6605 23.9233 41.6605 25.2206C41.6605 26.518 42.7123 27.5697 44.0098 27.5697Z" fill="white"/>
<defs>
<filter id="filter0_f_439_13445" x="10.0464" y="4.02441" width="67.9072" height="67.8628" filterUnits="userSpaceOnUse" color-interpolation-filters="sRGB">
<feFlood flood-opacity="0" result="BackgroundImageFix"/>
<feBlend mode="normal" in="SourceGraphic" in2="BackgroundImageFix" result="shape"/>
<feGaussianBlur stdDeviation="3" result="effect1_foregroundBlur_439_13445"/>
</filter>
<filter id="filter1_f_439_13445" x="0.0473633" y="0.0244141" width="87.9052" height="87.8589" filterUnits="userSpaceOnUse" color-interpolation-filters="sRGB">
<feFlood flood-opacity="0" result="BackgroundImageFix"/>
<feBlend mode="normal" in="SourceGraphic" in2="BackgroundImageFix" result="shape"/>
<feGaussianBlur stdDeviation="7.5" result="effect1_foregroundBlur_439_13445"/>
</filter>
<linearGradient id="paint0_linear_439_13445" x1="44" y1="2.02441" x2="44" y2="65.8713" gradientUnits="userSpaceOnUse">
<stop stop-color="#29844B"/>
<stop offset="1" stop-color="#072C27"/>
</linearGradient>
</defs>
</svg>
