<svg width="25" height="24" viewBox="0 0 25 24" fill="none" xmlns="http://www.w3.org/2000/svg">
<path d="M17.5 20.5H7.5C4.5 20.5 2.5 19 2.5 15.5V8.5C2.5 5 4.5 3.5 7.5 3.5H17.5C20.5 3.5 22.5 5 22.5 8.5V15.5C22.5 19 20.5 20.5 17.5 20.5Z" stroke="#29844B" stroke-width="1.5" stroke-miterlimit="10" stroke-linecap="round" stroke-linejoin="round"/>
<path d="M12.5 15C14.1569 15 15.5 13.6569 15.5 12C15.5 10.3431 14.1569 9 12.5 9C10.8431 9 9.5 10.3431 9.5 12C9.5 13.6569 10.8431 15 12.5 15Z" stroke="#29844B" stroke-width="1.5" stroke-miterlimit="10" stroke-linecap="round" stroke-linejoin="round"/>
<path d="M9 6H7.5C6.12 6 5 7.12 5 8.5V10" stroke="#29844B" stroke-width="1.5" stroke-miterlimit="10" stroke-linecap="round" stroke-linejoin="round"/>
<path d="M16 6H17.5C18.88 6 20 7.12 20 8.5V10" stroke="#29844B" stroke-width="1.5" stroke-miterlimit="10" stroke-linecap="round" stroke-linejoin="round"/>
<path d="M9 18H7.5C6.12 18 5 16.88 5 15.5V14" stroke="#29844B" stroke-width="1.5" stroke-miterlimit="10" stroke-linecap="round" stroke-linejoin="round"/>
<path d="M16 18H17.5C18.88 18 20 16.88 20 15.5V14" stroke="#29844B" stroke-width="1.5" stroke-miterlimit="10" stroke-linecap="round" stroke-linejoin="round"/>
</svg>
