<svg width="124" height="124" viewBox="0 0 124 124" fill="none" xmlns="http://www.w3.org/2000/svg">
<g clip-path="url(#clip0_3484_24422)">
<path d="M15.6016 87.2531C15.6016 89.9756 16.6831 92.5866 18.6081 94.5116C20.5332 96.4367 23.1442 97.5182 25.8666 97.5182C28.5891 97.5182 31.2001 96.4367 33.1251 94.5116C35.0502 92.5866 36.1317 89.9756 36.1317 87.2531C36.1317 84.5307 35.0502 81.9197 33.1251 79.9946C31.2001 78.0696 28.5891 76.9881 25.8666 76.9881C23.1442 76.9881 20.5332 78.0696 18.6081 79.9946C16.6831 81.9197 15.6016 84.5307 15.6016 87.2531Z" stroke="black" stroke-width="7.69881" stroke-linecap="round" stroke-linejoin="round"/>
<path d="M77.1924 87.2531C77.1924 89.9756 78.2739 92.5866 80.199 94.5116C82.124 96.4367 84.735 97.5182 87.4575 97.5182C90.1799 97.5182 92.7909 96.4367 94.716 94.5116C96.641 92.5866 97.7225 89.9756 97.7225 87.2531C97.7225 84.5307 96.641 81.9197 94.716 79.9946C92.7909 78.0696 90.1799 76.9881 87.4575 76.9881C84.735 76.9881 82.124 78.0696 80.199 79.9946C78.2739 81.9197 77.1924 84.5307 77.1924 87.2531Z" stroke="black" stroke-width="7.69881" stroke-linecap="round" stroke-linejoin="round"/>
<path d="M36.1318 92.3857H77.1921M97.7223 92.3857H107.987V61.5905M107.987 61.5905C107.987 52.0618 105.284 42.9235 100.471 36.1857C95.6583 29.4479 89.1308 25.6627 82.3247 25.6627H77.1921L84.8909 61.5905H107.987Z" stroke="black" stroke-width="7.69881" stroke-linecap="round" stroke-linejoin="round"/>
<path d="M61.7949 92.3857V25.6627H77.1925" stroke="black" stroke-width="7.69881" stroke-linecap="round" stroke-linejoin="round"/>
<path d="M15.6016 87.2531V61.5905H61.7944" stroke="black" stroke-width="7.69881" stroke-linecap="round" stroke-linejoin="round"/>
</g>
<defs>
<clipPath id="clip0_3484_24422">
<rect width="123.181" height="123.181" fill="white" transform="translate(0.204102)"/>
</clipPath>
</defs>
</svg>
