<svg width="392" height="379" viewBox="0 0 392 379" fill="none" xmlns="http://www.w3.org/2000/svg">
<path d="M128.458 131.183C129.022 130.85 129.749 131.038 130.082 131.602L131.424 133.866C136.753 142.808 138.885 145.711 141.151 147.024C143.013 148.103 144.938 147.768 148.463 145.701L148.934 145.418C151.15 144.037 161.293 137.069 165.215 134.567C165.767 134.215 166.5 134.377 166.852 134.929C167.204 135.481 167.042 136.214 166.49 136.566L165.887 136.955C161.516 139.788 151.699 146.53 149.961 147.569C145.694 150.121 142.928 150.694 140.156 149.184L139.962 149.076C136.984 147.35 134.667 144.04 128.04 132.807C127.707 132.243 127.894 131.516 128.458 131.183Z" fill="white"/>
<path d="M147.658 144.888C148.307 144.801 148.904 145.256 148.991 145.905C149.394 148.921 150.362 151.945 151.897 154.981C152.193 155.565 151.959 156.279 151.374 156.574C150.79 156.87 150.077 156.636 149.781 156.051C148.129 152.785 147.08 149.506 146.641 146.22C146.554 145.571 147.009 144.974 147.658 144.888Z" fill="white"/>
<path fill-rule="evenodd" clip-rule="evenodd" d="M285.78 217.301C285.588 217.785 285.169 218.455 284.682 219.089L285.102 219.524L285.588 220.042L285.696 220.146C285.743 220.188 285.781 220.213 285.807 220.22C285.965 220.243 286.074 220.388 286.053 220.547C286.03 220.701 285.886 220.813 285.729 220.79C285.586 220.787 285.069 220.585 284.452 220.084C284.341 219.994 284.229 219.889 284.116 219.774C283.76 220.171 283.401 220.512 283.091 220.724C282.634 221.039 282.238 221.064 282.05 220.937C281.864 220.812 281.685 220.395 281.988 219.551C282.035 219.398 282.198 219.318 282.349 219.365C282.499 219.413 282.582 219.574 282.535 219.726C282.489 219.883 282.483 220.026 282.482 220.14L282.657 220.021C282.719 219.976 282.783 219.927 282.841 219.868C283.053 219.659 283.289 219.406 283.527 219.132C283.151 218.694 282.767 218.181 282.457 217.588C282.306 217.3 282.185 216.993 282.07 216.67C281.991 216.49 282.073 216.278 282.254 216.199C282.434 216.119 282.646 216.202 282.725 216.382C283.07 217.105 283.512 217.729 283.947 218.263L284.093 218.438C284.489 217.918 284.83 217.393 284.985 216.993C285.071 216.775 285.318 216.666 285.537 216.75C285.757 216.837 285.866 217.083 285.78 217.301Z" fill="white"/>
<path fill-rule="evenodd" clip-rule="evenodd" d="M109.37 67.7331L108.648 67.6022C104.612 66.852 101.518 65.931 95.7383 63.9271C95.0754 63.6972 94.7244 62.9736 94.9542 62.3108C95.184 61.6479 95.9076 61.2969 96.5705 61.5267L98.0109 62.0225C103.081 63.7528 105.926 64.546 109.811 65.2311C122.885 67.5364 132.674 60.8243 133.475 48.0234C133.518 47.3232 134.122 46.7911 134.822 46.8349C135.522 46.8787 136.054 47.4818 136.01 48.182C135.109 62.5786 123.865 70.2889 109.37 67.7331Z" fill="#00160A"/>
<path fill-rule="evenodd" clip-rule="evenodd" d="M142.037 81.4417L142.767 83.0627L144.429 83.54C144.519 83.5658 144.571 83.6596 144.546 83.7495C144.538 83.7772 144.523 83.8024 144.502 83.8228L143.239 85.0805L143.31 86.8905C143.313 86.984 143.24 87.0627 143.147 87.0664C143.115 87.0676 143.084 87.06 143.057 87.0443L141.626 86.2297C141.582 86.2043 141.528 86.2005 141.48 86.2195L139.95 86.8271C139.863 86.8616 139.765 86.8191 139.73 86.7322C139.719 86.7028 139.715 86.6707 139.721 86.6396L140.043 84.857L138.967 83.4357C138.91 83.3611 138.925 83.2549 139 83.1985C139.023 83.181 139.05 83.1698 139.078 83.1658L140.791 82.9246L141.739 81.4209C141.789 81.3417 141.894 81.318 141.973 81.3679C142.001 81.3857 142.023 81.4113 142.037 81.4417Z" fill="#00160A"/>
<path d="M309.131 40.6997C309.785 40.6531 310.352 41.1447 310.398 41.7979C310.445 42.451 309.953 43.0182 309.3 43.0648C304.622 43.3986 300.947 45.2115 299.315 49.6962C299.217 49.9662 299.136 50.2267 299.069 50.4743L299.025 50.6445L299.097 50.4951C301.152 46.2988 305.116 43.3831 309.709 42.6431L310.01 42.598C310.658 42.5075 311.257 42.9598 311.348 43.6083C311.438 44.2568 310.986 44.8559 310.338 44.9464C306.07 45.542 302.42 48.378 300.828 52.4457L300.725 52.7187C299.968 54.7977 298.151 55.7947 296.982 54.0154C296.269 52.9303 296.316 51.0029 297.087 48.8852C299.042 43.5137 303.528 41.0994 309.131 40.6997Z" fill="white"/>
<path d="M303.73 31.8672C304.383 31.8206 304.951 32.3123 304.997 32.9654C305.044 33.6185 304.552 34.1858 303.899 34.2323C296.457 34.7633 289.931 39.5963 287.335 46.7302C286.565 48.8449 286.422 50.6529 286.698 51.5686L286.731 51.6708L286.784 51.5952C286.916 51.3943 287.065 51.106 287.211 50.732L287.274 50.5665C290.016 43.0312 296.666 37.7541 304.465 36.6654C305.114 36.5749 305.713 37.0272 305.804 37.6757C305.894 38.3242 305.442 38.9233 304.793 39.0138C297.97 39.9661 292.139 44.5196 289.627 51.044L289.502 51.3775C288.485 54.1718 286.285 55.3789 284.88 53.2393C283.916 51.773 283.984 49.0051 285.107 45.9192C288.026 37.8985 295.364 32.4641 303.73 31.8672Z" fill="white"/>
<path d="M296.454 20.09C297.107 20.0434 297.675 20.5351 297.721 21.1882C297.768 21.8413 297.276 22.4086 296.623 22.4552C286.009 23.2124 276.701 30.1058 272.998 40.2807C271.737 43.7434 271.632 46.6783 272.321 47.8983L272.383 48.0015C272.485 48.1566 272.451 48.1611 272.477 48.1397L272.493 48.1293C272.842 47.9379 273.302 47.2858 273.723 46.2042L273.806 45.9821C277.589 35.5898 286.76 28.312 297.516 26.8105C298.165 26.72 298.764 27.1723 298.854 27.8208C298.945 28.4693 298.493 29.0684 297.844 29.1589C288.077 30.5223 279.733 37.0606 276.173 46.4221L276.035 46.7931C274.719 50.4085 272.08 51.857 270.402 49.3036C269.151 47.3999 269.242 43.6671 270.77 39.4697C274.796 28.4079 284.915 20.9133 296.454 20.09Z" fill="white"/>
<path d="M283.462 9.02236C284.105 8.89652 284.728 9.31541 284.854 9.95798C284.979 10.6005 284.561 11.2235 283.918 11.3493C274.309 13.2312 266.581 20.5706 264.34 30.2786C263.582 33.5641 263.811 36.2356 264.555 37.2548L264.654 37.3826L264.662 37.4004L264.676 37.3897C264.942 37.1491 265.254 36.5346 265.496 35.582L265.546 35.3727C267.851 25.3883 275.463 17.6597 285.186 15.0643C285.819 14.8954 286.469 15.2713 286.637 15.9039C286.806 16.5366 286.43 17.1863 285.798 17.3552C277.038 19.6936 270.156 26.5901 267.947 35.5273L267.857 35.9061C267.044 39.4275 264.709 41.1085 262.819 38.8794C261.435 37.249 261.096 33.7896 262.03 29.7452C264.483 19.1176 272.943 11.0824 283.462 9.02236Z" fill="white"/>
<path d="M152.038 155.242L152.723 154.993C159.191 152.672 164.649 151.648 166.035 153.058C167.251 154.295 168.335 156.536 169.362 159.821C169.557 160.446 169.209 161.111 168.584 161.307C167.959 161.502 167.294 161.154 167.099 160.529C166.21 157.687 165.304 155.775 164.447 154.829L164.412 154.792L164.381 154.794C164.219 154.761 163.975 154.744 163.665 154.75C162.982 154.763 162.048 154.884 160.933 155.105C158.639 155.559 155.739 156.405 152.859 157.467C148.044 159.243 144.032 161.33 141.817 163.215C141.003 163.908 139.517 161.98 140.947 160.875C143.519 158.888 147.419 156.946 152.038 155.242Z" fill="white"/>
<path d="M148.783 132.845C148.783 136.8 152.965 141.082 153.855 141.325C154.486 141.498 143.606 148.588 143.606 148.588C139.674 149.105 137.365 145.782 137.365 140.831C137.365 140.176 148.783 132.19 148.783 132.845Z" fill="white"/>
<path fill-rule="evenodd" clip-rule="evenodd" d="M135.953 134.923C137.33 134.655 138.266 133.508 138.043 132.36C137.82 131.212 136.523 130.499 135.145 130.767C133.768 131.034 132.832 132.182 133.055 133.33C133.278 134.477 134.576 135.191 135.953 134.923Z" fill="#FFB61D"/>
<path d="M276.291 2.44747C276.936 2.33511 277.55 2.76695 277.662 3.41202C277.775 4.05708 277.343 4.67109 276.698 4.78345C273.63 5.31785 270.536 7.17482 267.346 10.1285C263.204 13.9639 260.469 19.2636 258.96 26.3297C257.745 32.0227 258.866 39.1362 262.043 45.3898C265.657 52.5044 272.051 54.2628 279.506 55.6244C287.158 57.0222 289.273 56.159 296.505 53.5881L297.17 53.3464C298.159 52.972 302.78 51.164 303.891 50.828C306.229 50.121 307.823 50.1801 308.98 51.4125C309.428 51.8899 309.404 52.6402 308.926 53.0883C308.479 53.5083 307.791 53.5136 307.338 53.1193L307.251 53.0351C306.91 52.6715 306.204 52.6294 304.785 53.0364L304.577 53.0977C303.508 53.4208 298.497 55.3876 297.848 55.6244C290.038 58.4755 287.389 59.4746 279.079 57.957C270.846 56.453 263.86 54.2016 259.929 46.4636C256.513 39.7388 255.309 32.0742 256.641 25.8347C258.251 18.2932 261.233 12.558 265.735 8.3887C269.26 5.12504 272.771 3.06051 276.291 2.44747Z" fill="white"/>
<path d="M332.064 96.7848C325.305 96.4392 319.983 101.659 319.927 108.666C319.88 114.57 323.205 119.432 327.774 120.374C329.621 120.754 333.168 120.296 335.798 118.821C339.793 116.679 342.846 112.275 343.232 108.522C343.859 102.408 338.91 97.1348 332.064 96.7848Z" fill="white"/>
<path d="M209.592 95.5502C211.75 99.9104 215.103 109.982 213.653 109.933C209.625 109.799 204.237 103.609 200.468 95.2394L200.17 94.5662C196.879 86.9674 194.909 82.1935 197.197 81.2791C199.564 80.3332 205.136 86.551 209.592 95.5502Z" fill="white"/>
<path fill-rule="evenodd" clip-rule="evenodd" d="M197.196 81.1838C199.563 80.2379 205.217 86.1717 209.673 95.1708C211.832 99.5311 213.296 103.714 213.678 106.713C213.678 106.713 206.388 91.351 201.94 85.7242C200.232 83.5628 197.196 81.1838 197.196 81.1838Z" fill="#E7EAEE"/>
<path d="M195.955 119.873C196.128 119.242 196.781 118.871 197.412 119.044C198.044 119.218 198.415 119.87 198.241 120.502C198.018 121.314 194.877 123.444 188.025 127.668L183.7 130.315C175.162 135.513 169.465 138.839 168.752 138.839C164.038 138.839 159.79 134.391 156.689 127.374C153.981 121.247 152.575 113.954 153.21 109.175C153.408 107.683 158.378 103.822 166.051 98.6481L167.151 97.9115C173.939 93.3888 179.742 90.0346 181.842 89.6111C182.484 89.4816 183.109 89.8969 183.238 90.5387C183.319 90.9402 164.606 106.714 162.778 117.183C161.541 124.271 166.22 136.353 168.542 136.463L168.752 136.467C168.564 136.467 168.624 136.423 168.646 136.411L168.86 136.301C169.017 136.218 169.204 136.117 169.42 135.999L170.406 135.447C170.783 135.233 171.204 134.992 171.664 134.727L172.841 134.043C175.087 132.732 177.89 131.062 180.749 129.332L183.468 127.679C186.775 125.659 189.762 123.796 192.007 122.349L193.164 121.598C193.88 121.128 194.486 120.721 194.97 120.384L195.145 120.261C195.412 120.073 195.634 119.911 195.807 119.778C195.807 119.778 196.002 119.701 195.955 119.873Z" fill="white"/>
<path fill-rule="evenodd" clip-rule="evenodd" d="M198.305 96.213C195.44 89.8519 194.174 84.0225 195.134 80.4927C193.4 81.0436 191.233 82.0337 189.082 83.2677C186.223 84.9081 183.953 86.7417 183.901 87.1398C183.348 91.3006 185.469 99.3952 188.994 106.612C192.765 114.331 197.251 119.289 200.724 119.289C201.056 119.289 202.008 119.093 202.961 118.76C204.318 118.286 205.589 117.595 206.63 116.691C207.148 116.241 207.683 115.733 208.243 115.165L208.918 114.468C209.315 114.048 209.726 113.595 210.366 112.877L211.258 111.881L211.297 111.839C206.83 110.206 202.157 104.452 198.662 96.9905L198.305 96.213ZM181.55 86.8275C181.919 84.0518 192.311 78.052 197.053 77.6643C197.251 77.5399 197.464 77.4321 197.69 77.3416C201.797 75.7005 208.055 82.7304 213.075 92.6218L213.419 93.3084C215.685 97.8847 217.231 102.3 217.652 105.603C218.155 109.55 217.012 112.167 214.016 112.301C213.936 112.612 213.733 112.872 213.464 113.029L213.417 113.052L213.3 113.169C213.183 113.29 213.045 113.44 212.831 113.677L211.358 115.321C210.823 115.911 210.444 116.31 209.931 116.83C209.331 117.439 208.752 117.988 208.185 118.481C205.89 120.474 202.496 121.66 200.724 121.66C199.784 121.66 198.833 121.441 197.88 121.024C196.863 122.085 193.731 124.151 188.025 127.668L183.7 130.315C175.162 135.513 169.464 138.839 168.752 138.839C167.138 138.839 165.578 138.317 164.1 137.349C164.087 137.359 164.073 137.368 164.059 137.377L163.455 137.766C161.355 139.127 157.996 141.392 154.88 143.493L154.685 143.624C155.089 146.503 156.006 149.39 157.44 152.287C162.532 150.712 166.565 150.18 167.729 151.365C168.945 152.602 170.029 154.842 171.056 158.128C171.251 158.753 170.903 159.418 170.278 159.613C169.653 159.808 168.988 159.46 168.792 158.835C167.904 155.993 166.998 154.081 166.141 153.136L166.105 153.099L166.075 153.1C165.913 153.067 165.669 153.05 165.359 153.056C164.676 153.069 163.742 153.19 162.627 153.411C160.332 153.866 157.433 154.711 154.553 155.773C147.97 158.202 142.889 161.211 141.845 163.491C141.539 164.159 141.578 165.135 141.944 166.631L142.011 166.9C142.066 167.112 142.124 167.322 142.198 167.588L142.627 169.103C142.644 169.169 142.662 169.237 142.684 169.323C142.849 169.956 142.468 170.604 141.835 170.768C141.201 170.933 140.554 170.552 140.389 169.918L140.179 169.152L139.828 167.914C139.788 167.768 139.752 167.633 139.716 167.495C139.161 165.353 139.071 163.852 139.689 162.504C140.736 160.218 144.01 157.85 148.57 155.697L147.578 153.135L147.333 152.487C146.958 151.477 146.521 150.107 146.253 149.108C142.691 151.028 140.21 151.349 137.724 149.995L137.531 149.886C137.039 149.601 136.565 149.273 136.087 148.874L122.192 157.313C122.321 157.592 122.452 157.872 122.584 158.155C123.207 159.492 122.107 160.439 120.421 161.176L120.239 161.253C118.789 161.854 117.481 161.991 116.702 161.136C113.471 157.59 110.051 149.106 111.891 147.166C112.244 146.793 113.177 146.239 114.941 145.313L115.078 145.242C115.115 145.216 115.154 145.192 115.194 145.171L128.183 138.133C128.213 138.117 128.243 138.102 128.274 138.089C127.472 136.763 126.593 135.287 125.622 133.64C125.503 133.45 125.444 133.234 125.444 133.018C125.443 132.732 125.545 132.447 125.747 132.223C125.769 132.199 125.791 132.175 125.815 132.153C128.487 129.616 132.131 126.971 136.704 124.122L137.257 123.779C139.233 122.561 143.24 120.276 146.643 118.334L146.643 118.334C149.284 116.829 151.561 115.53 152.247 115.096L152.413 114.986C152.661 114.804 152.956 114.733 153.239 114.764C153.014 112.707 152.994 110.796 153.209 109.175C153.408 107.683 158.377 103.822 166.051 98.6482L167.15 97.9115C173.582 93.6266 179.129 90.3904 181.48 89.7019C181.417 88.6402 181.438 87.6731 181.55 86.8275ZM181.74 92.106C179.437 92.9478 173.67 96.3717 167.377 100.614L166.369 101.298C163.537 103.23 160.921 105.114 158.945 106.65L158.396 107.08C157.514 107.779 156.8 108.381 156.283 108.864C156.023 109.106 155.819 109.314 155.674 109.479L155.573 109.597C155.551 109.62 155.546 109.612 155.554 109.537L155.56 109.487C155.557 109.506 155.555 109.523 155.554 109.537L155.522 109.791C154.382 119.797 161.617 136.137 168.542 136.463L168.705 136.466C168.719 136.467 168.734 136.467 168.752 136.467L168.705 136.466C168.574 136.459 168.626 136.422 168.646 136.411L168.86 136.301C169.017 136.218 169.204 136.117 169.419 135.999L170.406 135.447C170.783 135.233 171.204 134.993 171.664 134.727L172.84 134.043C175.087 132.732 177.89 131.062 180.749 129.332L183.468 127.679C186.775 125.659 189.762 123.796 192.007 122.35L193.164 121.598C193.88 121.128 194.485 120.721 194.969 120.384L195.145 120.261C195.401 120.081 195.616 119.924 195.786 119.794C192.732 117.553 189.725 113.415 187.056 108.042L186.864 107.652C184.291 102.386 182.43 96.6823 181.74 92.106ZM153.566 117.062C152.71 117.601 150.188 119.041 147.381 120.644L147.381 120.644L147.38 120.645L147.38 120.645C144.053 122.545 140.326 124.673 138.502 125.798C134.193 128.454 130.718 130.917 128.138 133.235L128.993 134.677C132.732 140.95 134.897 144.251 136.638 146.116C136.06 144.744 135.76 143.002 135.76 140.818C135.76 140.718 135.772 140.621 135.796 140.528C135.68 140.073 135.842 139.574 136.243 139.279L137.05 138.679C137.533 138.314 138.327 137.708 139.229 137.018L139.23 137.017L139.237 137.012L139.238 137.012L139.238 137.011L139.238 137.011C141.221 135.496 143.726 133.581 144.62 132.941C147.432 130.927 149.504 129.797 151.391 129.405C152.293 129.217 152.993 129.751 153.196 130.576L153.229 130.727C153.276 130.972 153.285 131.214 153.284 131.742L153.283 131.909C153.273 133.882 153.469 135.021 154.304 136.336C154.876 137.236 155.716 138.057 156.887 138.792C157.01 138.869 157.113 138.965 157.197 139.074C159.085 137.806 160.854 136.626 162.159 135.78C160.103 133.79 158.25 130.908 156.688 127.374C155.234 124.083 154.155 120.456 153.566 117.062ZM215.3 105.903C214.917 102.904 213.453 98.7209 211.294 94.3606C206.838 85.3614 200.937 78.5977 198.57 79.5436C196.281 80.458 196.879 86.9674 200.17 94.5662L200.467 95.2394C204.236 103.609 209.625 109.799 213.652 109.933C215.102 109.982 215.669 108.797 215.3 105.903ZM129.499 140.093C131.556 143.419 133.058 145.616 134.368 147.144L121.195 155.145C119.846 152.187 118.638 149.433 117.467 146.636L129.313 140.218C129.38 140.182 129.442 140.14 129.499 140.093ZM155.166 153.035C153.888 150.391 153.005 147.74 152.52 145.083C150.817 146.229 149.336 147.221 148.384 147.839C148.547 148.657 149.153 150.599 149.675 151.979L150.648 154.484L150.741 154.728C151.697 154.325 152.697 153.931 153.732 153.549L154.417 153.3C154.668 153.209 154.918 153.121 155.166 153.035ZM155.123 140.469C153.909 139.627 152.978 138.669 152.303 137.607C151.211 135.889 150.925 134.422 150.912 132.205L150.912 132.006L150.744 132.069C149.542 132.536 148.107 133.38 146.305 134.653L146.001 134.869C145.143 135.483 142.701 137.35 140.731 138.855L140.729 138.856C139.635 139.693 138.686 140.418 138.236 140.754L138.131 140.832C138.133 144.777 139.118 146.587 140.949 147.465L141.095 147.532C141.532 147.725 141.843 147.822 142.733 148.066C142.751 148.071 142.769 148.076 142.786 148.082C143.709 147.771 144.767 147.253 146.031 146.512L146.502 146.229C147.546 145.578 150.348 143.689 153.43 141.611L153.47 141.583L153.53 141.543C154.056 141.188 154.589 140.829 155.123 140.469ZM115.372 147.77L115.554 148.203C116.813 151.188 118.121 154.145 119.606 157.37L120.184 158.621C119.995 158.748 119.746 158.883 119.472 159.003C119.079 159.174 118.68 159.295 118.38 159.335L118.284 159.345L118.14 159.172C117.018 157.79 115.715 155.442 114.774 153.108C114.272 151.864 113.915 150.724 113.754 149.847C113.689 149.49 113.658 149.191 113.661 148.963L113.668 148.813C113.67 148.777 113.67 148.758 113.661 148.755L113.697 148.731C113.897 148.593 114.409 148.293 115.17 147.88L115.372 147.77ZM131.726 145.158C131.267 144.691 130.517 144.684 130.049 145.142C129.227 145.949 128.075 146.7 126.062 147.817L124.014 148.953C123.473 149.262 123.03 149.527 122.629 149.788C122.294 150.005 121.994 150.215 121.725 150.423C121.207 150.824 121.111 151.568 121.512 152.086C121.912 152.604 122.657 152.7 123.175 152.299C123.389 152.134 123.636 151.961 123.919 151.777C124.181 151.607 124.469 151.431 124.802 151.236L125.455 150.863L127.536 149.71C129.534 148.588 130.739 147.787 131.71 146.835C132.177 146.376 132.184 145.626 131.726 145.158Z" fill="#00160A"/>
<path d="M105.206 265.555C111.135 298.61 133.356 323.459 161.711 329.318C166.916 330.393 175.929 330.535 185.261 329.327C197.286 327.771 208.988 324.201 219.28 318.415C247.552 303.22 269.006 272.209 271.786 245.061C274.229 221.216 265.119 199.186 248.627 183.471C248.627 183.471 196.821 208.916 171.39 223.38C149.26 235.965 105.206 265.555 105.206 265.555Z" fill="white"/>
<path d="M225.857 166.983C215.23 161.74 201.916 157.598 188.861 156.931C140.98 154.483 103.322 192.733 102.93 242.069C102.93 242.069 156.37 208.03 184.133 191.607C197.946 183.436 225.857 166.983 225.857 166.983Z" fill="white"/>
<path fill-rule="evenodd" clip-rule="evenodd" d="M324.342 141.838C324.181 150.081 315.459 163.801 301.437 179.326C291.281 190.573 279.462 201.444 269.552 208.769L268.935 209.221L269.344 211.041C271.754 221.603 274.9 233.084 273.712 244.663C270.827 272.765 248.846 304.47 219.798 320.048C209.204 325.991 197.162 329.656 184.809 331.251L183.632 331.397C174.421 332.482 165.608 332.302 160.221 331.191C139.315 326.881 121.615 312.267 110.914 291.116C110.878 291.045 110.85 290.972 110.829 290.898C109.421 291.701 107.525 292.6 106.66 292.894L104.288 293.695C78.7293 302.291 53.3911 309.484 43.04 304.995C39.0995 303.286 37.7527 299.999 39.4006 295.584C41.0022 291.293 45.4427 285.764 52.8929 278.883L53.3023 278.507C60.3619 272.035 76.0392 260.21 100.334 243.031L100.341 242.715C101.526 191.812 141.066 153.006 190.767 156.174C205.969 157.143 218.076 162.545 224.122 165.862L226.782 164.435C251.722 151.099 271.734 141.725 287.003 136.114C312.112 126.887 324.53 131.201 324.342 141.838ZM287.82 141.582C259.743 151.9 215.37 175.105 153.589 212.432L151.711 213.567C103.604 242.689 71.7485 264.814 54.9043 280.254L54.0741 281.021L53.287 281.759C40.6425 293.706 38.4012 300.398 43.9832 302.819C53.5387 306.963 79.1998 299.977 104.33 291.734L106.659 290.966C108.9 290.224 110.387 289.798 111.306 289.601C111.346 289.572 111.39 289.546 111.437 289.523C111.751 289.364 112.103 289.358 112.407 289.477C112.472 289.49 112.515 289.511 112.538 289.539C112.743 289.65 112.917 289.822 113.03 290.045C123.418 310.578 140.536 323.091 160.7 327.248C165.934 328.327 174.765 328.485 183.954 327.348L184.506 327.279C196.574 325.72 208.328 323.763 218.658 317.969C247.043 302.746 268.55 271.725 271.353 244.421C272.551 232.751 271.022 221.296 266.958 210.635C266.622 210.87 266.29 211.1 265.96 211.325C265.336 211.75 265.568 211.061 266.658 209.257C266.716 209.022 266.846 208.808 267.032 208.647L267.368 208.115C267.485 207.93 267.609 207.737 267.738 207.537L269.144 206.352C282.388 195.15 292.566 185.612 299.678 177.737L300.489 176.833C313.648 162.108 321.828 149.1 321.963 141.794C322.111 133.78 311.537 132.867 287.82 141.582ZM168.768 291.518C171.949 301.24 167.137 307.493 158.665 307.817C150.838 308.115 143.71 303.183 144.073 296.174C144.387 290.117 148.535 283.641 153.641 281.263C159.817 278.387 165.613 281.876 168.768 291.518ZM154.893 283.95C150.807 285.853 147.293 291.34 147.034 296.328C146.777 301.295 152.267 305.095 158.553 304.855C165.124 304.604 168.497 300.221 165.951 292.44C163.3 284.338 159.27 281.912 154.893 283.95ZM233.444 271.706C237.503 279.376 236.441 286.91 230.2 290.288L230.025 290.38L229.934 290.47C221.565 298.758 211.109 299.763 204.291 293.756L204.057 293.546C196.203 286.352 198.074 273.991 210.572 264.301C218.614 258.065 228.439 262.247 233.444 271.706ZM212.129 266.309C200.783 275.106 199.189 285.64 205.774 291.673C210.497 295.999 217.475 296.239 223.993 292.039L224.12 291.955L224.073 291.945C223.622 291.825 223.259 291.461 223.157 290.987L223.137 290.866C223.054 290.17 223.552 289.538 224.248 289.455C225.842 289.266 227.225 288.882 228.398 288.331L228.558 288.253L228.752 288.052C229.517 287.247 230.264 286.371 230.987 285.424L231.228 285.106C231.499 284.742 231.928 284.565 232.35 284.599L232.382 284.602L232.399 284.571C233.921 281.563 233.56 277.487 231.333 273.15L231.2 272.894C226.847 264.669 218.711 261.206 212.129 266.309ZM287.679 175.142C287.026 177.462 285.039 180.645 281.993 184.414C276.683 190.986 268.707 198.634 261.735 203.864L263.281 202.163C263.266 202.15 263.253 202.132 263.242 202.111L262.708 201.131C259.219 194.762 255.332 188.48 249.05 183.359C232.79 190.063 214.145 199.227 197.159 208.81L191.591 211.957C150.589 235.183 129.017 249.088 105.949 266.182C106.82 270.103 107.917 273.93 109.231 277.637C109.437 278.219 106.743 280.396 106.25 280.127C101.648 283.211 94.4422 285.45 90.3396 285.567C86.3413 285.68 84.0314 284.062 85.2214 280.834C86.2169 278.135 89.9669 274.284 96.7154 269.124L97.4847 268.54L99.0403 267.371C124.439 248.356 149.583 232.926 195.994 206.744L197.936 205.655C229.768 187.886 266.63 171.878 283.513 170.401C286.984 170.098 288.558 172.018 287.679 175.142ZM102.861 268.483L97.5397 272.498C92.7926 276.098 89.3701 278.76 87.5214 280.468L87.3857 280.594C85.1292 282.711 87.6833 283.27 90.2729 283.197C94.1954 283.085 100.205 280.111 105.291 277.403C104.351 274.492 103.54 271.514 102.861 268.483ZM186.099 255.609C186.734 255.77 187.118 256.415 186.956 257.05C186.795 257.685 186.15 258.069 185.516 257.907C182.327 257.098 180.444 257.409 179.833 258.267C179.428 258.837 179.652 259.808 180.41 260.428C181.003 260.913 181.791 261.144 182.334 261.026C182.806 260.923 183.07 260.56 183.07 259.649C183.07 258.994 183.601 258.464 184.256 258.464C184.91 258.464 185.441 258.994 185.441 259.649C185.441 261.629 184.451 262.992 182.838 263.343C181.542 263.625 180.031 263.182 178.909 262.263C177.251 260.908 176.71 258.566 177.901 256.892C179.207 255.058 182.068 254.586 186.099 255.609ZM134.02 251.257C135.848 251.805 136.636 253.209 136.884 255.315L136.909 255.543L136.939 255.89C136.943 255.948 136.947 256.007 136.951 256.07L137.013 257.274L137.032 257.545C137.042 257.664 137.052 257.762 137.065 257.848L137.096 258.03L137.115 258.109L137.148 258.138C137.514 258.497 137.612 259.059 137.375 259.522L137.314 259.628C136.959 260.178 136.226 260.336 135.675 259.981C134.918 259.493 134.746 258.99 134.654 257.548L134.579 256.137C134.57 256.009 134.561 255.899 134.549 255.774C134.414 254.393 134.077 253.749 133.339 253.528C131.269 252.908 130.08 253.541 129.704 254.926C129.368 256.159 129.853 257.455 130.703 257.815L130.918 257.895C131.474 258.133 131.768 258.758 131.581 259.345C131.382 259.969 130.715 260.313 130.091 260.115C127.833 259.395 126.761 256.713 127.416 254.303C128.147 251.614 130.689 250.259 134.02 251.257ZM219.556 233.103C222.839 237.719 222.229 243.591 216.961 246.249C216.377 246.544 215.664 246.309 215.369 245.724C215.074 245.14 215.309 244.427 215.893 244.132C219.707 242.208 220.142 238.018 217.624 234.477C215.177 231.037 211.771 230.659 209.431 234.376C206.95 238.316 207.13 240.629 208.916 241.671C210.335 242.498 212.618 242.324 213.246 241.648L213.307 241.574C213.687 241.041 214.427 240.916 214.96 241.296C215.494 241.675 215.618 242.416 215.238 242.949C213.921 244.8 210.159 245.141 207.722 243.719C204.602 241.9 204.303 238.07 207.424 233.113C210.767 227.805 216.218 228.41 219.556 233.103ZM170.401 226.304C171.017 226.304 171.524 226.775 171.581 227.376L171.587 227.49C171.587 227.699 171.781 227.932 172.477 228.442L173.135 228.914C173.853 229.438 174.199 229.763 174.526 230.28C175.273 231.462 175.697 232.665 175.697 234.08C175.697 237.704 170.254 242.632 164.312 244.825C157.189 247.453 151.354 245.504 149.766 238.195C149.627 237.555 150.033 236.924 150.673 236.785C151.313 236.646 151.944 237.052 152.083 237.692C153.315 243.364 157.57 244.785 163.491 242.6C168.604 240.713 173.326 236.438 173.326 234.08C173.326 233.168 173.048 232.38 172.522 231.547L172.45 231.447C172.329 231.295 172.141 231.129 171.801 230.877L171.019 230.314C169.719 229.355 169.216 228.709 169.216 227.49C169.216 226.835 169.746 226.304 170.401 226.304ZM175.966 160.592L175.218 160.676C134.761 165.541 104.412 197.899 102.756 241.321L107.097 238.267C119.557 229.521 134.019 219.531 150.484 208.297L153.692 206.358C163.27 200.579 172.428 195.141 181.17 190.039C181.01 189.76 180.966 189.416 181.074 189.086C181.685 187.22 182.25 185.967 183.285 184.711C186.524 180.781 190.962 178.862 194.106 181.329C194.416 181.572 194.572 181.938 194.559 182.304L197.353 180.71C206.148 175.703 214.47 171.079 222.325 166.832L219.257 165.959C214.707 164.678 209.047 163.16 203.409 161.99C203.46 165.742 200.652 168.738 195.986 170.799C192.02 172.55 186.852 173.493 183.177 173.274C176.301 172.864 172.432 166.834 175.966 160.592ZM246.934 212.079C249.836 220.006 247.442 227.214 240.198 227.167C229.876 227.099 219.797 218.087 221.426 210.013C222.153 206.412 224.861 203.226 229.569 201.636C237.089 199.096 243.981 204.01 246.934 212.079ZM230.327 203.882C226.436 205.196 224.313 207.695 223.75 210.483C222.457 216.89 231.232 224.737 240.213 224.796C245.357 224.829 247.126 219.502 244.707 212.894C242.148 205.902 236.426 201.822 230.327 203.882ZM143.149 175.815L143.233 175.938L143.804 176.845C144.083 177.306 144.334 177.758 144.572 178.245C147.198 183.614 147.13 190.652 142.686 200.421C140.673 204.847 135.545 210.795 131.067 214.344C125.348 218.876 121.079 219.906 115.983 219.346L114.471 219.168L114.286 219.152C114.185 219.144 114.12 219.144 114.049 219.146L113.946 219.15C113.867 219.154 113.84 219.15 113.835 219.14L113.835 219.132L113.797 219.193C113.453 219.686 112.785 219.848 112.248 219.55C111.676 219.232 111.47 218.51 111.789 217.938C112.215 217.171 112.927 216.825 113.833 216.782C114.074 216.771 114.328 216.779 114.63 216.804L114.983 216.838L115.961 216.957C120.603 217.52 124.296 216.684 129.594 212.486C133.8 209.152 138.689 203.481 140.528 199.439C144.686 190.297 144.747 184 142.442 179.287C142.289 178.973 142.128 178.675 141.955 178.375L141.707 177.961L141.21 177.175C140.862 176.62 141.029 175.888 141.584 175.54C142.104 175.214 142.78 175.341 143.149 175.815ZM283.72 172.763C276.141 173.426 264.26 177.17 250.562 182.739L250.962 183.094C254.775 186.514 262.466 194.624 264.873 200.409L267.271 197.75C273.188 191.168 277.48 186.227 280.149 182.924L280.69 182.247C283.24 179.009 284.889 176.304 285.397 174.5L285.469 174.226C285.785 172.923 285.419 172.615 283.72 172.763ZM170.198 176.615C173.148 178.041 174.346 181.217 172.405 184.097C172.039 184.64 171.302 184.783 170.759 184.417C170.216 184.051 170.073 183.314 170.439 182.771C171.507 181.187 170.904 179.59 169.166 178.749C167.335 177.864 165.329 178.373 164.294 180.306C163.34 182.086 163.274 184.497 164.036 186.075C164.705 187.461 165.678 187.727 167.163 186.609C167.686 186.215 168.429 186.32 168.823 186.843C169.217 187.366 169.112 188.11 168.589 188.503C165.883 190.54 163.205 189.809 161.9 187.106C160.807 184.839 160.894 181.63 162.204 179.186C163.874 176.068 167.279 175.204 170.198 176.615ZM185.115 186.219C184.562 186.89 184.167 187.598 183.801 188.506C186.856 186.731 189.859 184.997 192.811 183.304L192.725 183.254L192.642 183.195C190.832 181.774 187.641 183.154 185.115 186.219ZM180.059 160.229L179.022 160.302L178.952 160.39C174.854 165.569 176.432 169.773 182.029 170.37C186.049 170.799 196.72 167.816 197.972 166.77C199.191 165.75 200.733 163.406 200.971 161.506C197.349 160.825 193.806 160.325 190.646 160.163C187.417 159.998 184.232 160.002 181.101 160.168L180.059 160.229Z" fill="#00160A"/>
<path d="M287.101 141.877C312.211 132.649 311.636 135.387 287.919 144.102C259.842 154.42 153.857 219.07 153.857 219.07C105.75 248.192 102.151 243.697 148.779 215.358L151.654 213.615C152.195 213.287 205.283 179.782 243.217 161.856C247.486 159.839 284.242 142.927 287.101 141.877Z" fill="white"/>
<path fill-rule="evenodd" clip-rule="evenodd" d="M330.457 95.9399C322.676 95.5421 316.603 101.589 316.54 109.5C316.487 116.128 320.289 121.756 325.738 122.879C327.173 123.175 331.313 123.175 334.905 121.16L335.202 120.996C339.73 118.432 342.81 113.554 343.222 109.542C343.953 102.427 338.237 96.3378 330.457 95.9399ZM318.234 109.513C318.234 109.462 318.235 109.411 318.236 109.36C318.284 109.344 318.331 109.324 318.378 109.299C324.478 106.013 328.244 103.509 329.747 101.701C330.74 100.507 331.224 99.1603 331.185 97.6972C332.21 97.8103 333.186 98.0352 334.102 98.3571C334.096 98.4009 334.094 98.4457 334.096 98.4913C334.17 100.597 333.609 102.28 332.416 103.591C331.044 105.097 329.383 106.53 327.494 107.882C325.474 109.327 323.306 110.603 321.137 111.695C320.632 111.95 320.15 112.183 319.698 112.392L319.044 112.689C318.95 112.731 318.863 112.769 318.783 112.803L318.588 112.885C318.348 111.818 318.224 110.686 318.234 109.513ZM319.064 114.523C319.6 116.01 320.377 117.328 321.339 118.401L321.845 118.11C329.806 113.501 334.748 109.881 336.618 107.326C338.509 104.744 339.183 102.761 338.76 101.413C338.75 101.381 338.742 101.349 338.736 101.318C337.903 100.443 336.911 99.6908 335.793 99.0974C335.746 101.336 335.038 103.226 333.668 104.731C332.21 106.332 330.46 107.842 328.479 109.259C326.383 110.76 324.141 112.079 321.899 113.208C321.246 113.537 320.63 113.831 320.064 114.088L319.404 114.38L319.064 114.523ZM325.404 121.05C324.404 120.751 323.472 120.26 322.633 119.611C330.828 114.871 335.928 111.136 337.984 108.327C339.26 106.585 340.076 105.018 340.408 103.62C340.82 104.39 341.132 105.21 341.332 106.068C341.289 106.155 341.261 106.251 341.25 106.354C341.043 108.334 340.023 110.299 338.157 112.256C336.366 114.134 332.502 116.844 326.596 120.348L325.404 121.05ZM328.266 121.324C330.084 121.209 332.308 120.675 334.105 119.668C337.447 117.876 340.13 114.5 341.143 111.248C340.653 111.983 340.066 112.708 339.383 113.425C337.544 115.353 333.848 117.975 328.266 121.324ZM318.726 107.182L318.425 107.345C319.386 101.75 323.857 97.7344 329.487 97.618C329.547 98.7174 329.205 99.7039 328.445 100.618C327.216 102.095 323.957 104.306 318.726 107.182Z" fill="#00160A"/>
<path fill-rule="evenodd" clip-rule="evenodd" d="M391.594 79.7125C391.752 79.7307 391.862 79.8736 391.844 80.0305C391.843 80.2616 391.694 80.3865 391.494 80.4677C391.314 80.54 391.026 80.5123 390.859 80.535C389.025 80.6766 387.583 79.3271 386.949 77.5878C386.34 75.9169 386.502 73.919 387.608 72.6868C387.735 72.5416 387.956 72.527 388.101 72.6543C388.246 72.7816 389.071 73.0028 388.944 73.1481C388.032 74.2125 387.415 74.8583 388.275 77.3847C389.135 79.9112 391.476 79.699 391.594 79.7125Z" fill="#E7EAEE"/>
<path fill-rule="evenodd" clip-rule="evenodd" d="M99.5883 97.8012C99.1064 97.4703 98.4474 97.5928 98.1165 98.0747C97.7856 98.5567 97.908 99.2156 98.39 99.5465C98.9195 99.9101 99.3875 100.246 99.8005 100.558C99.3557 100.912 98.9115 101.317 98.45 101.778L97.5138 102.729C97.1022 103.144 97.1052 103.815 97.5204 104.226C97.9356 104.638 98.6058 104.635 99.0174 104.22L100.141 103.084C100.598 102.639 101.026 102.267 101.457 101.958C102.414 102.906 102.705 103.602 102.721 104.294L102.721 104.471L102.726 104.579C102.781 105.113 103.231 105.53 103.779 105.53C104.364 105.53 104.838 105.056 104.838 104.471L104.838 104.263C104.818 103.185 104.438 102.159 103.413 100.987C104.09 100.785 104.853 100.672 105.777 100.624C106.361 100.594 106.81 100.096 106.779 99.5119C106.749 98.928 106.251 98.4795 105.667 98.51C104.061 98.5938 102.814 98.8614 101.702 99.3699C101.238 98.9905 100.712 98.5924 100.118 98.1709L99.5883 97.8012Z" fill="#00160A"/>
<path fill-rule="evenodd" clip-rule="evenodd" d="M258.203 329.755L258.937 329.758C263.042 329.796 266.249 330.166 272.289 331.136C272.981 331.247 273.453 331.899 273.342 332.591C273.23 333.284 272.579 333.756 271.886 333.644L269.907 333.333C264.909 332.565 262.029 332.295 258.203 332.295C244.928 332.295 236.453 340.605 237.887 353.351C237.966 354.048 237.464 354.677 236.767 354.755C236.07 354.834 235.441 354.332 235.363 353.635C233.75 339.301 243.485 329.755 258.203 329.755ZM268.484 334.884L268.36 334.775C268.241 334.672 268.056 334.686 267.956 334.807C267.851 334.927 267.867 335.108 267.986 335.211L268.114 335.32C268.234 335.422 268.414 335.409 268.519 335.288C268.619 335.168 268.607 334.986 268.484 334.884ZM245.466 337.541C245.01 337.174 244.344 337.247 243.977 337.703C242.499 339.542 241.421 341.335 240.749 343.086C240.095 344.788 239.872 347.648 240.042 351.738L240.082 352.601C240.113 353.185 240.611 353.634 241.195 353.603C241.779 353.572 242.227 353.074 242.197 352.49C241.972 348.218 242.163 345.307 242.725 343.845C243.313 342.314 244.279 340.707 245.628 339.029C245.994 338.573 245.921 337.907 245.466 337.541ZM257.018 334.039C257.537 333.77 258.176 333.972 258.445 334.492C258.714 335.011 258.511 335.649 257.992 335.918C255.842 337.032 254.2 338.899 253.055 341.561C251.827 344.418 250.822 346.967 250.041 349.208C249.848 349.76 249.244 350.051 248.692 349.859C248.14 349.666 247.849 349.062 248.042 348.51C248.841 346.22 249.864 343.625 251.111 340.725C252.441 337.631 254.414 335.388 257.018 334.039ZM263.172 333.983C262.787 333.543 262.118 333.499 261.678 333.884C259.911 335.432 258.554 336.84 257.603 338.117C256.66 339.385 255.555 341.281 254.277 343.817C254.014 344.339 254.224 344.976 254.746 345.239C255.268 345.502 255.904 345.292 256.168 344.77C257.396 342.333 258.445 340.533 259.302 339.381C260.152 338.238 261.41 336.934 263.073 335.476C263.513 335.091 263.557 334.422 263.172 333.983ZM259.307 345.937C258.868 346.322 258.199 346.278 257.814 345.838C257.428 345.399 257.472 344.73 257.912 344.345C259.575 342.888 260.833 341.583 261.683 340.44C262.541 339.288 263.59 337.488 264.818 335.051C265.081 334.529 265.718 334.319 266.24 334.582C266.762 334.845 266.972 335.482 266.708 336.004C265.43 338.54 264.325 340.436 263.382 341.704C262.432 342.981 261.074 344.389 259.307 345.937ZM251.293 334.902C250.811 334.569 250.152 334.69 249.82 335.171C247.453 338.598 245.942 341.159 245.274 342.898C244.604 344.644 244.14 346.997 243.871 349.971C243.819 350.553 244.248 351.068 244.83 351.121C245.413 351.173 245.927 350.744 245.98 350.162C246.233 347.366 246.66 345.194 247.25 343.658C247.801 342.226 249.083 340.017 251.087 337.068L251.562 336.374C251.894 335.893 251.774 335.234 251.293 334.902Z" fill="#00160A"/>
<path fill-rule="evenodd" clip-rule="evenodd" d="M231.197 328.659L231.927 330.28L233.59 330.757C233.68 330.783 233.731 330.877 233.706 330.967C233.698 330.994 233.683 331.02 233.662 331.04L232.399 332.298L232.47 334.108C232.473 334.201 232.401 334.28 232.307 334.284C232.276 334.285 232.244 334.277 232.217 334.262L230.786 333.447C230.742 333.422 230.688 333.418 230.64 333.437L229.11 334.044C229.023 334.079 228.925 334.036 228.89 333.949C228.879 333.92 228.876 333.888 228.881 333.857L229.203 332.074L228.127 330.653C228.071 330.578 228.085 330.472 228.16 330.416C228.183 330.398 228.21 330.387 228.239 330.383L229.952 330.142L230.9 328.638C230.949 328.559 231.054 328.535 231.133 328.585C231.161 328.603 231.184 328.629 231.197 328.659Z" fill="#00160A"/>
<path fill-rule="evenodd" clip-rule="evenodd" d="M290.101 101.717C290.49 102.063 290.976 102.686 291.406 103.36L291.958 103.115L292.611 102.835C292.743 102.775 292.828 102.728 292.854 102.69C292.929 102.549 293.102 102.496 293.244 102.57C293.382 102.645 293.438 102.819 293.362 102.958C293.311 103.091 292.944 103.508 292.262 103.916C292.139 103.99 292.002 104.059 291.856 104.126C292.107 104.596 292.305 105.05 292.397 105.415C292.537 105.951 292.426 106.332 292.241 106.466C292.061 106.598 291.608 106.623 290.918 106.05C290.791 105.953 290.771 105.773 290.867 105.647C290.963 105.522 291.143 105.499 291.27 105.596C291.401 105.692 291.534 105.747 291.641 105.787L291.589 105.581C291.568 105.508 291.543 105.431 291.508 105.356C291.384 105.086 291.227 104.777 291.051 104.46C290.511 104.664 289.897 104.849 289.234 104.938C288.911 104.981 288.582 104.99 288.239 104.987C288.043 105 287.872 104.851 287.859 104.653C287.846 104.457 287.996 104.286 288.192 104.273C288.99 104.196 289.728 103.995 290.379 103.768L290.592 103.691C290.24 103.141 289.863 102.641 289.539 102.358C289.364 102.203 289.346 101.934 289.5 101.757C289.657 101.579 289.925 101.562 290.101 101.717Z" fill="#00160A"/>
<path fill-rule="evenodd" clip-rule="evenodd" d="M57.0234 245.025C55.9163 245.098 54.1606 245.38 52.7254 245.949C51.4978 246.437 51.4978 259.689 55.6948 260.746C59.8676 262.138 64.4303 260.295 63.8855 253.203C63.8758 253.055 63.7557 252.652 63.618 252.189C63.4164 251.512 63.1772 250.708 63.1916 250.394C63.2482 249.28 62.9556 248.342 62.1833 247.752C61.3513 245.988 59.7208 244.851 57.0234 245.025ZM56.4225 257.52C54.3684 255.985 54.4405 248.822 56.7848 248.344C58.2437 249.465 59.5754 251.084 60.0246 254.204C59.5219 255.922 58.4607 256.917 57.5328 257.786C57.4336 257.879 57.3358 257.97 57.2405 258.061C56.9756 257.911 56.7027 257.727 56.4225 257.52Z" fill="white"/>
<path fill-rule="evenodd" clip-rule="evenodd" d="M53.9288 253.344C53.7426 252.23 53.8696 250.982 54.4298 249.651C54.6839 249.048 55.3518 248.557 56.1874 248.227C57.1642 247.841 58.3591 247.65 59.1126 247.6C60.9482 247.482 62.0575 248.251 62.6233 249.443C63.1487 249.842 63.3475 250.477 63.3087 251.23C63.292 251.588 63.7639 252.882 63.7802 253.13C64.149 257.926 61.0434 259.174 58.204 258.233C57.1253 258.782 56.0847 258.873 55.3017 258.291C54.5992 257.771 54.06 256.675 53.9365 254.742C53.9036 254.243 53.901 253.777 53.9288 253.344ZM58.9652 250.185C57.336 250.505 57.2679 255.208 58.6905 256.211C58.8846 256.346 59.0736 256.466 59.2572 256.564C59.9448 255.944 60.4576 255.443 60.7486 254.417C61.0395 253.392 59.9755 250.918 58.9652 250.185Z" fill="#FFB61D"/>
<path fill-rule="evenodd" clip-rule="evenodd" d="M165.104 370.8C164.622 370.469 163.963 370.592 163.632 371.074C163.301 371.556 163.424 372.215 163.906 372.546C164.435 372.909 164.903 373.245 165.316 373.557C164.871 373.911 164.427 374.316 163.966 374.777L163.029 375.728C162.618 376.144 162.621 376.814 163.036 377.225C163.451 377.637 164.121 377.634 164.533 377.219L165.656 376.083C166.113 375.638 166.542 375.266 166.972 374.957C167.93 375.905 168.221 376.601 168.237 377.293L168.237 377.47L168.242 377.578C168.296 378.112 168.747 378.529 169.295 378.529C169.88 378.529 170.354 378.055 170.354 377.47L170.354 377.262C170.334 376.184 169.953 375.158 168.929 373.986C169.606 373.784 170.368 373.672 171.293 373.623C171.877 373.593 172.325 373.095 172.295 372.511C172.264 371.927 171.766 371.478 171.183 371.509C169.577 371.593 168.329 371.86 167.218 372.369C166.754 371.99 166.228 371.591 165.634 371.17L165.104 370.8Z" fill="#00160A"/>
<path fill-rule="evenodd" clip-rule="evenodd" d="M165.104 370.8C164.622 370.469 163.963 370.592 163.632 371.074C163.301 371.556 163.424 372.215 163.906 372.546C164.435 372.909 164.903 373.245 165.316 373.557C164.871 373.911 164.427 374.316 163.966 374.777L163.029 375.728C162.618 376.144 162.621 376.814 163.036 377.225C163.451 377.637 164.121 377.634 164.533 377.219L165.656 376.083C166.113 375.638 166.542 375.266 166.972 374.957C167.93 375.905 168.221 376.601 168.237 377.293L168.237 377.47L168.242 377.578C168.296 378.112 168.747 378.529 169.295 378.529C169.88 378.529 170.354 378.055 170.354 377.47L170.354 377.262C170.334 376.184 169.953 375.158 168.929 373.986C169.606 373.784 170.368 373.672 171.293 373.623C171.877 373.593 172.325 373.095 172.295 372.511C172.264 371.927 171.766 371.478 171.183 371.509C169.577 371.593 168.329 371.86 167.218 372.369C166.754 371.99 166.228 371.591 165.634 371.17L165.104 370.8Z" fill="#00160A"/>
<path fill-rule="evenodd" clip-rule="evenodd" d="M201.281 341.8L202.011 343.421L203.674 343.898C203.764 343.924 203.815 344.018 203.79 344.108C203.782 344.136 203.767 344.161 203.746 344.181L202.483 345.439L202.554 347.249C202.557 347.342 202.485 347.421 202.391 347.425C202.36 347.426 202.328 347.418 202.301 347.403L200.87 346.588C200.826 346.563 200.772 346.559 200.724 346.578L199.194 347.185C199.107 347.22 199.009 347.178 198.974 347.091C198.963 347.061 198.96 347.029 198.965 346.998L199.287 345.215L198.211 343.794C198.155 343.72 198.169 343.613 198.244 343.557C198.267 343.539 198.294 343.528 198.323 343.524L200.036 343.283L200.984 341.779C201.033 341.7 201.138 341.676 201.217 341.726C201.245 341.744 201.268 341.77 201.281 341.8Z" fill="#00160A"/>
<path fill-rule="evenodd" clip-rule="evenodd" d="M109.511 330.662L110.751 331.936L112.477 331.815C112.57 331.809 112.651 331.879 112.657 331.973C112.659 332.001 112.654 332.03 112.642 332.056L111.885 333.67L112.57 335.347C112.606 335.434 112.564 335.532 112.478 335.568C112.448 335.58 112.416 335.583 112.385 335.578L110.763 335.302C110.712 335.293 110.66 335.308 110.622 335.342L109.392 336.436C109.322 336.499 109.215 336.492 109.153 336.422C109.132 336.399 109.118 336.37 109.112 336.339L108.805 334.553L107.308 333.586C107.229 333.535 107.207 333.43 107.258 333.352C107.273 333.327 107.295 333.308 107.32 333.294L108.848 332.481L109.224 330.744C109.244 330.653 109.334 330.595 109.426 330.615C109.458 330.622 109.488 330.638 109.511 330.662Z" fill="#00160A"/>
<path fill-rule="evenodd" clip-rule="evenodd" d="M90.1504 214.579L90.8799 216.2L92.5427 216.677C92.6326 216.703 92.6846 216.797 92.6588 216.887C92.6508 216.914 92.6359 216.94 92.6155 216.96L91.3521 218.218L91.4229 220.028C91.4265 220.121 91.3537 220.2 91.2603 220.204C91.2287 220.205 91.1973 220.197 91.1698 220.181L89.7396 219.367C89.6949 219.341 89.641 219.338 89.5932 219.357L88.0635 219.964C87.9766 219.999 87.8781 219.956 87.8436 219.869C87.8319 219.84 87.8287 219.808 87.8343 219.777L88.1563 217.994L87.0802 216.573C87.0238 216.498 87.0385 216.392 87.113 216.336C87.136 216.318 87.1631 216.307 87.1917 216.303L88.9048 216.062L89.8527 214.558C89.9026 214.479 90.0072 214.455 90.0863 214.505C90.1145 214.523 90.1368 214.549 90.1504 214.579Z" fill="#00160A"/>
<path fill-rule="evenodd" clip-rule="evenodd" d="M89.9808 216.194L90.2906 216.882L90.997 217.085C91.0352 217.096 91.0572 217.136 91.0463 217.174C91.0429 217.186 91.0366 217.197 91.0279 217.205L90.4912 217.739L90.5213 218.508C90.5229 218.548 90.4919 218.581 90.4522 218.583C90.4388 218.583 90.4255 218.58 90.4138 218.574L89.8063 218.228C89.7873 218.217 89.7644 218.215 89.7441 218.223L89.0943 218.481C89.0574 218.496 89.0156 218.478 89.0009 218.441C88.996 218.429 88.9946 218.415 88.997 218.402L89.1338 217.645L88.6767 217.041C88.6527 217.009 88.659 216.964 88.6906 216.94C88.7004 216.933 88.7119 216.928 88.724 216.926L89.4517 216.824L89.8543 216.185C89.8755 216.151 89.92 216.141 89.9536 216.162C89.9655 216.17 89.975 216.181 89.9808 216.194Z" fill="#E7EAEE"/>
<path fill-rule="evenodd" clip-rule="evenodd" d="M3.43363 285.7L4.16309 287.321L5.82594 287.798C5.91585 287.824 5.96781 287.918 5.94201 288.008C5.93405 288.036 5.91914 288.061 5.8987 288.081L4.63532 289.339L4.70609 291.149C4.70975 291.242 4.63694 291.321 4.54347 291.325C4.51186 291.326 4.48053 291.318 4.45304 291.303L3.02276 290.488C2.97806 290.463 2.92422 290.459 2.87642 290.478L1.34669 291.085C1.25976 291.12 1.16129 291.077 1.12677 290.99C1.11509 290.961 1.11188 290.929 1.1175 290.898L1.43949 289.115L0.363445 287.694C0.306984 287.619 0.32167 287.513 0.396247 287.457C0.419243 287.439 0.446304 287.428 0.474865 287.424L2.18796 287.183L3.13591 285.679C3.18579 285.6 3.29038 285.576 3.3695 285.626C3.39767 285.644 3.41997 285.67 3.43363 285.7Z" fill="#00160A"/>
<path fill-rule="evenodd" clip-rule="evenodd" d="M76.7253 140.143L77.2552 140.513C77.8498 140.935 80.0697 143.027 80.534 143.406C81.6439 142.897 82.8916 142.629 84.4973 142.545C85.0812 142.515 85.5792 142.963 85.6097 143.547C85.6402 144.131 85.1916 144.629 84.6078 144.66C83.6827 144.708 82.92 144.821 82.243 145.023C83.2685 146.195 83.6489 147.22 83.6686 148.298L83.6687 148.507C83.6687 149.091 83.1948 149.565 82.6102 149.565C82.0621 149.565 81.6113 149.149 81.5571 148.615L81.5516 148.507L81.5516 148.329C81.536 147.638 81.2446 146.942 80.2875 145.993C79.8565 146.302 79.4281 146.675 78.971 147.12L77.8478 148.255C77.4362 148.67 76.766 148.673 76.3508 148.262C75.9355 147.85 75.9326 147.18 76.3442 146.765L77.2803 145.814C77.7419 145.352 78.1861 144.947 78.6308 144.593C77.8498 142.81 74.9226 140.898 75.2535 140.417C75.5844 139.935 76.2434 139.812 76.7253 140.143Z" fill="#00160A"/>
<path fill-rule="evenodd" clip-rule="evenodd" d="M280.963 262.225L282.405 263.264L284.084 262.846C284.174 262.823 284.266 262.878 284.289 262.969C284.296 262.997 284.296 263.027 284.288 263.054L283.823 264.775L284.789 266.307C284.839 266.387 284.815 266.491 284.736 266.541C284.709 266.558 284.678 266.567 284.647 266.567L283.001 266.577C282.949 266.577 282.901 266.601 282.869 266.641L281.848 267.932C281.79 268.006 281.684 268.018 281.61 267.96C281.585 267.94 281.567 267.914 281.556 267.884L280.943 266.18L279.301 265.487C279.215 265.45 279.174 265.351 279.211 265.265C279.222 265.238 279.24 265.215 279.262 265.197L280.625 264.132L280.694 262.356C280.698 262.262 280.777 262.189 280.87 262.193C280.904 262.194 280.936 262.205 280.963 262.225Z" fill="#00160A"/>
<path fill-rule="evenodd" clip-rule="evenodd" d="M297.529 195.881L297.966 197.604L299.521 198.363C299.605 198.404 299.64 198.505 299.599 198.589C299.586 198.615 299.567 198.638 299.543 198.654L298.081 199.673L297.836 201.468C297.823 201.561 297.738 201.626 297.645 201.613C297.614 201.609 297.584 201.596 297.56 201.576L296.293 200.525C296.253 200.492 296.201 200.479 296.151 200.49L294.539 200.822C294.447 200.841 294.358 200.782 294.339 200.691C294.332 200.66 294.335 200.628 294.346 200.598L294.972 198.898L294.159 197.312C294.117 197.229 294.15 197.126 294.233 197.084C294.258 197.071 294.287 197.064 294.316 197.065L296.045 197.125L297.24 195.809C297.302 195.74 297.409 195.735 297.479 195.797C297.503 195.82 297.521 195.849 297.529 195.881Z" fill="#00160A"/>
<path fill-rule="evenodd" clip-rule="evenodd" d="M259.803 126.535L260.239 128.258L261.794 129.017C261.878 129.058 261.913 129.16 261.872 129.244C261.859 129.27 261.84 129.292 261.817 129.308L260.354 130.328L260.109 132.122C260.097 132.215 260.011 132.28 259.919 132.267C259.887 132.263 259.858 132.25 259.834 132.23L258.566 131.179C258.527 131.147 258.475 131.134 258.424 131.144L256.812 131.477C256.721 131.496 256.631 131.437 256.612 131.345C256.606 131.314 256.608 131.282 256.619 131.252L257.246 129.553L256.433 127.966C256.39 127.883 256.423 127.781 256.506 127.738C256.532 127.725 256.561 127.719 256.589 127.72L258.318 127.78L259.513 126.463C259.576 126.394 259.683 126.389 259.752 126.452C259.777 126.474 259.794 126.503 259.803 126.535Z" fill="#00160A"/>
<path fill-rule="evenodd" clip-rule="evenodd" d="M371.257 143.418L371.901 143.361C372.628 143.302 373.287 143.269 373.887 143.261C374.409 142.157 375.193 141.15 376.369 140.054C376.797 139.655 377.467 139.679 377.865 140.106C378.264 140.534 378.241 141.204 377.813 141.602C377.135 142.234 376.624 142.811 376.235 143.4C377.774 143.64 378.724 144.18 379.432 144.994L379.566 145.153C379.942 145.601 379.884 146.268 379.436 146.644C379.016 146.997 378.403 146.967 378.018 146.593L377.945 146.514L377.83 146.378C377.374 145.858 376.703 145.512 375.361 145.401C375.229 145.915 375.14 146.475 375.076 147.11L374.946 148.702C374.897 149.285 374.386 149.718 373.803 149.669C373.22 149.621 372.787 149.109 372.836 148.527L372.942 147.197C372.999 146.546 373.078 145.95 373.191 145.393C372.676 145.42 372.101 145.463 371.461 145.525C370.879 145.582 370.362 145.155 370.306 144.574C370.249 143.992 370.676 143.474 371.257 143.418Z" fill="#00160A"/>
<path fill-rule="evenodd" clip-rule="evenodd" d="M285.78 216.49C285.588 216.974 285.169 217.644 284.682 218.278L285.102 218.714L285.588 219.232L285.696 219.336C285.743 219.377 285.781 219.403 285.807 219.41C285.965 219.433 286.074 219.577 286.053 219.736C286.03 219.891 285.886 220.003 285.729 219.98C285.586 219.977 285.069 219.775 284.452 219.274C284.341 219.183 284.229 219.078 284.116 218.964C283.76 219.361 283.401 219.701 283.091 219.913C282.634 220.228 282.238 220.253 282.05 220.126C281.864 220.002 281.685 219.584 281.988 218.74C282.035 218.588 282.198 218.507 282.349 218.555C282.499 218.602 282.582 218.763 282.535 218.916C282.489 219.072 282.483 219.215 282.482 219.33L282.657 219.21C282.719 219.166 282.783 219.116 282.841 219.058C283.053 218.849 283.289 218.596 283.527 218.321C283.151 217.884 282.767 217.37 282.457 216.778C282.306 216.489 282.185 216.182 282.07 215.86C281.991 215.68 282.073 215.468 282.254 215.388C282.434 215.309 282.646 215.391 282.725 215.571C283.07 216.295 283.512 216.919 283.947 217.453L284.093 217.627C284.489 217.108 284.83 216.582 284.985 216.182C285.071 215.964 285.318 215.855 285.537 215.939C285.757 216.026 285.866 216.272 285.78 216.49Z" fill="#E7EAEE"/>
<path fill-rule="evenodd" clip-rule="evenodd" d="M275.444 0.754109C276.089 0.641751 276.703 1.07359 276.815 1.71866C276.927 2.36372 276.496 2.97773 275.851 3.09009C272.783 3.62449 269.09 5.45835 265.9 8.41207C261.758 12.2475 258.703 17.6607 257.194 24.7268C255.979 30.4198 257.096 37.9153 260.272 44.1688C263.886 51.2835 269.696 56.1207 277.151 57.4823C284.804 58.8801 291.278 58.012 298.51 55.4412L299.175 55.1995C299.387 55.1194 299.764 54.9738 300.238 54.791C301.979 54.1191 305.022 52.9452 305.895 52.6811C308.233 51.9741 309.828 52.0332 310.985 53.2655C311.433 53.743 311.409 54.4933 310.931 54.9413C310.484 55.3614 309.796 55.3667 309.343 54.9723L309.256 54.8881C308.914 54.5246 308.209 54.4825 306.789 54.8895L306.582 54.9507C305.812 55.1836 302.994 56.2703 301.237 56.9478L301.237 56.9478L301.236 56.9481L301.234 56.9486C300.555 57.2107 300.034 57.4114 299.853 57.4775C292.043 60.3286 285.034 61.3326 276.725 59.8149C268.491 58.311 262.089 52.9806 258.158 45.2427C254.742 38.5178 253.543 30.4713 254.875 24.2318C256.485 16.6903 259.787 10.8415 264.289 6.67224C267.814 3.40857 271.924 1.36715 275.444 0.754109ZM283.462 6.48173C284.104 6.35588 284.727 6.77477 284.853 7.41734C284.979 8.05991 284.56 8.68283 283.918 8.80868C274.308 10.6906 266.581 18.0299 264.34 27.7379C263.581 31.0235 263.81 33.695 264.555 34.7142L264.654 34.842L264.661 34.8598L264.675 34.849C264.942 34.6085 265.253 33.994 265.495 33.0414L265.546 32.8321C267.851 22.8477 275.463 15.1191 285.186 12.5236C285.818 12.3547 286.468 12.7307 286.637 13.3633C286.806 13.9959 286.43 14.6457 285.797 14.8146C277.038 17.1529 270.155 24.0494 267.947 32.9866L267.856 33.3655C267.043 36.8869 264.709 38.5678 262.818 36.3388C261.435 34.7084 261.095 31.249 262.029 27.2045C264.483 16.577 272.943 8.54177 283.462 6.48173ZM297.721 19.4949C297.674 18.8418 297.107 18.3501 296.454 18.3967C284.915 19.2199 274.795 26.7146 270.769 37.7764C269.241 41.9738 269.151 45.7066 270.401 47.6103C272.079 50.1637 274.718 48.7152 276.034 45.0998L276.172 44.7288C279.733 35.3673 288.076 28.829 297.844 27.4656C298.492 27.3751 298.945 26.776 298.854 26.1275C298.764 25.479 298.164 25.0267 297.516 25.1172C286.759 26.6187 277.589 33.8965 273.806 44.2888L273.723 44.5109C273.302 45.5925 272.841 46.2446 272.493 46.436L272.477 46.4464C272.47 46.4521 272.467 46.4559 272.465 46.4556C272.463 46.4554 272.462 46.452 272.459 46.4441C272.451 46.4266 272.435 46.3867 272.383 46.3081L272.32 46.205C271.632 44.985 271.737 42.0501 272.997 38.5874C276.701 28.4125 286.008 21.5191 296.623 20.7619C297.276 20.7153 297.767 20.148 297.721 19.4949ZM302.885 31.0202C303.538 30.9736 304.105 31.4653 304.152 32.1184C304.198 32.7715 303.706 33.3388 303.053 33.3854C295.611 33.9163 289.086 38.7493 286.489 45.8832C285.719 47.9979 285.576 49.8059 285.852 50.7216L285.886 50.8238L285.938 50.7482C286.07 50.5474 286.219 50.259 286.366 49.885L286.428 49.7195C289.171 42.1842 295.82 36.9071 303.62 35.8184C304.268 35.7279 304.867 36.1802 304.958 36.8287C305.048 37.4772 304.596 38.0763 303.948 38.1668C297.125 39.1192 291.293 43.6726 288.781 50.1971L288.656 50.5305C287.639 53.3248 285.44 54.532 284.034 52.3923C283.07 50.9261 283.138 48.1581 284.261 45.0722C287.18 37.0515 294.518 31.6171 302.885 31.0202ZM309.133 40.5724C309.087 39.9193 308.519 39.4276 307.866 39.4742C302.263 39.874 297.349 43.5135 295.394 48.885C294.623 51.0027 294.576 52.9301 295.289 54.0153C296.458 55.7945 298.275 54.7975 299.031 52.7185L299.134 52.4455C300.727 48.3778 304.377 45.5418 308.644 44.9462C309.293 44.8557 309.745 44.2566 309.655 43.6081C309.564 42.9596 308.965 42.5073 308.316 42.5978L308.016 42.643C303.422 43.3829 299.459 46.2986 297.404 50.4949L297.332 50.6443L297.376 50.4741C297.442 50.2265 297.524 49.966 297.622 49.696C299.254 45.2113 303.356 42.1731 308.035 41.8394C308.688 41.7928 309.18 41.2255 309.133 40.5724Z" fill="#00160A"/>
<path fill-rule="evenodd" clip-rule="evenodd" d="M302.885 31.02C303.538 30.9734 304.105 31.4651 304.152 32.1182C304.198 32.7714 303.707 33.3386 303.053 33.3852C295.611 33.9161 289.086 38.7491 286.489 45.883C285.72 47.9977 285.576 49.8058 285.852 50.7214L285.886 50.8236L285.938 50.748C286.071 50.5472 286.22 50.2588 286.366 49.8848L286.428 49.7193C289.171 42.184 295.82 36.9069 303.62 35.8182C304.268 35.7277 304.867 36.18 304.958 36.8285C305.048 37.477 304.596 38.0761 303.948 38.1666C297.125 39.119 291.293 43.6724 288.781 50.1969L288.656 50.5303C287.639 53.3246 285.44 54.5318 284.034 52.3921C283.07 50.9259 283.138 48.158 284.261 45.072C287.18 37.0513 294.518 31.6169 302.885 31.02Z" fill="#00160A"/>
<path d="M229.048 185.38C253.903 173.754 274.684 167.613 287.622 166.485C291.584 166.14 293.381 168.324 292.378 171.877C291.633 174.515 289.364 178.136 285.886 182.423C279.824 189.897 271.831 196.293 263.87 202.241C276.605 190.487 279.853 185.57 283.781 180.728L284.398 179.958C287.31 176.276 289.192 173.199 289.772 171.147L289.854 170.835C290.216 169.353 289.797 169.003 287.858 169.172C275.213 170.274 254.511 176.427 229.747 188.037C204.942 199.666 204.233 196.987 229.048 185.38Z" fill="white"/>
<path d="M115.371 147.77L115.553 148.203C116.812 151.188 118.121 154.145 119.606 157.37L120.183 158.621C119.994 158.748 119.745 158.883 119.471 159.003C119.078 159.174 118.679 159.295 118.379 159.335L118.284 159.345L118.139 159.172C117.017 157.79 115.714 155.442 114.773 153.108C114.272 151.864 113.915 150.724 113.754 149.847C113.688 149.49 113.658 149.19 113.66 148.963L113.667 148.813C113.67 148.777 113.67 148.758 113.661 148.755L113.696 148.731C113.897 148.593 114.409 148.293 115.169 147.88L115.371 147.77Z" fill="white"/>
<path fill-rule="evenodd" clip-rule="evenodd" d="M146.792 136.955C147.57 136.002 148.578 136.144 149.856 136.919L150.184 137.126L151.103 137.735C151.36 137.9 151.471 137.957 151.621 138.016C151.969 138.155 152.138 138.549 152 138.896C151.861 139.244 151.467 139.414 151.12 139.275L150.996 139.224C150.761 139.124 150.584 139.019 150.108 138.703L149.449 138.264C149.34 138.193 149.246 138.134 149.153 138.078C148.389 137.614 148.042 137.565 147.841 137.812C147.714 137.967 147.745 138.298 147.997 138.977L148.274 139.689C148.823 141.148 148.826 141.8 147.847 142.356C147.005 142.836 146.573 142.612 145.363 141.426L145.069 141.135C144.294 140.361 143.888 140.092 143.626 140.147C143.539 140.165 143.438 140.227 143.314 140.359C143.169 140.514 143.128 141.009 143.217 141.887L143.353 143.034C143.512 144.435 143.448 144.798 142.87 145.186C142.073 145.719 141.012 145.116 139.047 143.351C138.769 143.101 138.746 142.673 138.996 142.395C139.246 142.116 139.674 142.093 139.952 142.343C140.793 143.098 141.427 143.589 141.87 143.841L141.969 143.895L142.052 143.937L142.054 143.852L142.049 143.649C142.04 143.482 142.019 143.281 141.978 142.94L141.892 142.236C141.727 140.809 141.778 140.016 142.326 139.432C142.63 139.108 142.971 138.901 143.346 138.821C144.216 138.637 144.834 139.009 145.861 140.013L146.379 140.522C146.938 141.06 147.145 141.197 147.178 141.179C147.305 141.106 147.285 140.882 146.942 140.001L146.792 139.619C146.313 138.389 146.222 137.652 146.792 136.955Z" fill="#00160A"/>
<path fill-rule="evenodd" clip-rule="evenodd" d="M220.752 26.6843L220.109 26.7417C219.527 26.798 219.101 27.3154 219.157 27.8973C219.191 28.2492 219.394 28.5441 219.678 28.7098L219.566 28.7893C219.088 29.1268 218.975 29.7873 219.312 30.2647C219.65 30.7422 220.31 30.8556 220.788 30.5182L221.875 29.748C221.844 29.9971 221.816 30.2542 221.793 30.5203L221.687 31.8505C221.639 32.4331 222.072 32.9446 222.654 32.993C223.237 33.0414 223.749 32.6083 223.797 32.0257L223.928 30.434C223.962 30.0933 224.004 29.7739 224.055 29.4717C224.427 30.1771 224.501 30.7204 224.422 31.2343L224.392 31.409L224.378 31.5166C224.339 32.0517 224.711 32.5401 225.25 32.6353C225.826 32.7368 226.375 32.3524 226.477 31.7767L226.513 31.5716C226.625 30.8573 226.574 30.1381 226.284 29.3398C226.436 29.4485 226.566 29.5694 226.682 29.7016L226.796 29.8375L226.87 29.9169C227.254 30.291 227.867 30.3203 228.287 29.968C228.735 29.5922 228.794 28.9245 228.418 28.4767L228.284 28.3173C228.236 28.2628 228.188 28.2095 228.138 28.1574C228.691 28.1897 229.181 27.7871 229.249 27.2297C229.321 26.6495 228.908 26.1213 228.328 26.0499C227.33 25.9272 226.457 25.8996 225.654 25.9717C225.942 25.6327 226.276 25.2884 226.664 24.9261C227.092 24.5275 227.115 23.8576 226.717 23.43C226.318 23.0024 225.648 22.9789 225.221 23.3775C224.503 24.0462 223.932 24.6817 223.477 25.3262C223.301 25.1398 223.116 24.9487 222.923 24.7526L222.465 24.2965C222.048 23.8869 221.378 23.8931 220.968 24.3103C220.558 24.7274 220.565 25.3976 220.982 25.8072C221.271 26.0916 221.539 26.3606 221.785 26.6156C221.457 26.6321 221.113 26.655 220.752 26.6843Z" fill="#00160A"/>
<path fill-rule="evenodd" clip-rule="evenodd" d="M179.958 34.0188C179.704 33.7583 179.293 33.7656 179.039 34.0351C178.786 34.3046 178.786 34.7342 179.04 34.9947C179.281 35.2417 179.496 35.4706 179.689 35.6836C179.281 35.8562 178.873 36.0797 178.435 36.3557L177.771 36.7816C177.48 36.9672 177.416 37.3387 177.629 37.6112C177.842 37.8837 178.251 37.9542 178.543 37.7685L179.339 37.2606C179.754 37.0059 180.129 36.8133 180.506 36.678C181.078 37.474 181.198 37.9841 181.125 38.4571L181.106 38.5693L181.097 38.6383C181.07 38.9815 181.296 39.2929 181.627 39.3512C181.98 39.4134 182.318 39.1643 182.384 38.7946L182.407 38.663C182.515 37.977 182.399 37.2859 181.907 36.4322C182.241 36.427 182.604 36.4518 183.016 36.5044C183.375 36.5503 183.697 36.3228 183.735 35.9962C183.774 35.6697 183.514 35.3678 183.155 35.3219C182.368 35.2213 181.708 35.2098 181.105 35.2913C180.856 34.9859 180.568 34.6599 180.237 34.309L179.958 34.0188Z" fill="#E7EAEE"/>
<path fill-rule="evenodd" clip-rule="evenodd" d="M43.5411 210.491L44.2705 212.112L45.9334 212.59C46.0233 212.616 46.0752 212.709 46.0494 212.799C46.0415 212.827 46.0266 212.852 46.0061 212.873L44.7427 214.13L44.8135 215.94C44.8172 216.034 44.7444 216.113 44.6509 216.116C44.6193 216.117 44.588 216.11 44.5605 216.094L43.1302 215.28C43.0855 215.254 43.0316 215.25 42.9838 215.269L41.4541 215.877C41.3672 215.911 41.2687 215.869 41.2342 215.782C41.2225 215.753 41.2193 215.721 41.2249 215.689L41.5469 213.907L40.4709 212.486C40.4144 212.411 40.4291 212.305 40.5037 212.248C40.5267 212.231 40.5537 212.22 40.5823 212.216L42.2954 211.974L43.2433 210.471C43.2932 210.392 43.3978 210.368 43.4769 210.418C43.5051 210.435 43.5274 210.461 43.5411 210.491Z" fill="#00160A"/>
<path fill-rule="evenodd" clip-rule="evenodd" d="M53.2676 120.521L53.9971 122.142L55.6599 122.619C55.7498 122.645 55.8018 122.739 55.776 122.829C55.768 122.856 55.7531 122.882 55.7327 122.902L54.4693 124.16L54.5401 125.97C54.5437 126.063 54.4709 126.142 54.3775 126.145C54.3458 126.147 54.3145 126.139 54.287 126.123L52.8567 125.309C52.812 125.283 52.7582 125.28 52.7104 125.299L51.1807 125.906C51.0937 125.941 50.9953 125.898 50.9608 125.811C50.9491 125.782 50.9459 125.75 50.9515 125.719L51.2735 123.936L50.1974 122.515C50.141 122.44 50.1557 122.334 50.2302 122.278C50.2532 122.26 50.2803 122.249 50.3088 122.245L52.0219 122.004L52.9699 120.5C53.0198 120.421 53.1244 120.397 53.2035 120.447C53.2317 120.465 53.254 120.49 53.2676 120.521Z" fill="#00160A"/>
<path d="M75.2999 263.764C75.8432 263.37 76.6035 263.49 76.9981 264.034C77.3926 264.577 60.1917 278.587 53.519 285.008L52.7434 285.76C48.9322 289.489 46.1221 292.719 44.5381 295.272C42.8597 297.977 42.7521 299.446 43.8356 300.046C47.9469 302.325 53.8579 303.435 62.3237 302.032L63.1936 301.884C66.4161 301.319 90.6568 296.033 90.273 296.173L90.1239 296.218C89.3597 296.421 79.4893 299.834 76.0826 300.701L75.6708 300.805C70.4628 302.115 66.3874 303.014 62.7211 303.621C53.7624 305.105 47.3617 304.78 42.657 302.173C39.9421 300.669 40.1582 297.718 42.4719 293.989C44.2916 291.057 47.4925 287.432 51.833 283.256C58.5949 276.749 68.1057 268.988 75.2999 263.764Z" fill="white"/>
</svg>
