<svg width="24" height="25" viewBox="0 0 24 25" fill="none" xmlns="http://www.w3.org/2000/svg">
<path d="M12 12.1587C14.7614 12.1587 17 9.92012 17 7.15869C17 4.39727 14.7614 2.15869 12 2.15869C9.23858 2.15869 7 4.39727 7 7.15869C7 9.92012 9.23858 12.1587 12 12.1587Z" stroke="#444444" stroke-width="1.5" stroke-linecap="round" stroke-linejoin="round"/>
<path d="M3.41016 22.1587C3.41016 18.2887 7.26015 15.1587 12.0002 15.1587C12.9602 15.1587 13.8902 15.2887 14.7602 15.5287" stroke="#444444" stroke-width="1.5" stroke-linecap="round" stroke-linejoin="round"/>
<path d="M22 18.1587C22 18.9087 21.79 19.6187 21.42 20.2187C21.21 20.5787 20.94 20.8987 20.63 21.1587C19.93 21.7887 19.01 22.1587 18 22.1587C16.54 22.1587 15.27 21.3787 14.58 20.2187C14.21 19.6187 14 18.9087 14 18.1587C14 16.8987 14.58 15.7687 15.5 15.0387C16.19 14.4887 17.06 14.1587 18 14.1587C20.21 14.1587 22 15.9487 22 18.1587Z" stroke="#444444" stroke-width="1.5" stroke-miterlimit="10" stroke-linecap="round" stroke-linejoin="round"/>
<path d="M16.4404 18.1587L17.4304 19.1487L19.5604 17.1787" stroke="#444444" stroke-width="1.5" stroke-linecap="round" stroke-linejoin="round"/>
</svg>
