<svg width="56" height="56" viewBox="0 0 56 56" fill="none" xmlns="http://www.w3.org/2000/svg">
<g opacity="0.3" filter="url(#filter0_f_1992_2617)">
<path d="M27.4622 10.0483C27.82 10.0161 28.18 10.0161 28.5378 10.0483L29.6049 10.1444C29.9627 10.1766 30.3169 10.2408 30.6632 10.3364L31.696 10.6214C32.0423 10.717 32.3793 10.8435 32.703 10.9994L33.6683 11.4642C33.992 11.6201 34.301 11.8048 34.5917 12.0159L35.4584 12.6457C35.7491 12.8568 36.0202 13.0937 36.2684 13.3534L37.0088 14.1277C37.2571 14.3874 37.4815 14.6689 37.6795 14.9687L38.2697 15.8628C38.4676 16.1627 38.6382 16.4797 38.7794 16.81L39.2004 17.7952C39.3417 18.1255 39.4529 18.4679 39.5328 18.8182L39.7712 19.8626C39.8512 20.2129 39.8995 20.5697 39.9156 20.9286L39.9637 21.9988C39.9798 22.3577 39.9637 22.7174 39.9154 23.0734L39.7716 24.135C39.7234 24.4911 39.6433 24.8421 39.5323 25.1837L39.2012 26.2026C39.0902 26.5443 38.9487 26.8754 38.7784 27.1917L38.2708 28.1351C38.1005 28.4515 37.9022 28.752 37.6782 29.0329L37.0102 29.8705C36.7862 30.1514 36.5374 30.4116 36.2669 30.648L35.4601 31.3528C35.1895 31.5892 34.8983 31.8008 34.5899 31.9851L33.6702 32.5346C33.3618 32.7188 33.0374 32.875 32.701 33.0013L31.698 33.3777C31.3617 33.504 31.0146 33.5997 30.6611 33.6639L29.607 33.8552C29.2535 33.9193 28.8949 33.9516 28.5357 33.9516H27.4643C27.1051 33.9516 26.7465 33.9193 26.393 33.8552L25.3389 33.6639C24.9854 33.5997 24.6384 33.504 24.302 33.3777L23.299 33.0013C22.9626 32.875 22.6383 32.7188 22.3298 32.5346L21.4102 31.9851C21.1017 31.8008 20.8105 31.5892 20.5399 31.3528L19.7331 30.648C19.4626 30.4116 19.2138 30.1514 18.9898 29.8705L18.3218 29.0329C18.0978 28.752 17.8995 28.4515 17.7292 28.1352L17.2216 27.1917C17.0513 26.8754 16.9098 26.5443 16.7988 26.2026L16.4677 25.1837C16.3567 24.8421 16.2766 24.4911 16.2284 24.135L16.0846 23.0734C16.0363 22.7174 16.0202 22.3577 16.0363 21.9988L16.0844 20.9286C16.1005 20.5697 16.1488 20.2129 16.2288 19.8626L16.4672 18.8182C16.5471 18.4679 16.6584 18.1255 16.7996 17.7952L17.2206 16.81C17.3618 16.4797 17.5324 16.1627 17.7303 15.8628L18.3205 14.9687C18.5185 14.6689 18.7429 14.3874 18.9912 14.1277L19.7316 13.3534C19.9798 13.0937 20.251 12.8568 20.5416 12.6457L21.4083 12.0159C21.699 11.8048 22.008 11.6201 22.3317 11.4642L23.297 10.9994C23.6207 10.8435 23.9577 10.717 24.3041 10.6214L25.3368 10.3364C25.6831 10.2408 26.0373 10.1766 26.3952 10.1444L27.4622 10.0483Z" fill="#194327"/>
</g>
<g opacity="0.4" filter="url(#filter1_f_1992_2617)">
<path d="M27.4622 15.0483C27.82 15.0161 28.18 15.0161 28.5378 15.0483L29.7834 15.1604C30.1412 15.1926 30.4955 15.2569 30.8418 15.3525L32.0473 15.6852C32.3937 15.7808 32.7307 15.9073 33.0544 16.0632L34.1812 16.6058C34.5049 16.7617 34.8139 16.9463 35.1046 17.1575L36.1163 17.8926C36.407 18.1038 36.6781 18.3406 36.9264 18.6003L37.7906 19.5042C38.0389 19.7639 38.2634 20.0454 38.4613 20.3452L39.1503 21.3889C39.3482 21.6888 39.5188 22.0058 39.66 22.3362L40.1515 23.4861C40.2927 23.8165 40.404 24.1589 40.4839 24.5092L40.7622 25.7284C40.8421 26.0787 40.8905 26.4354 40.9066 26.7944L40.9627 28.0437C40.9788 28.4026 40.9627 28.7623 40.9144 29.1183L40.7466 30.3576C40.6983 30.7136 40.6182 31.0646 40.5072 31.4063L40.1207 32.5957C40.0097 32.9374 39.8682 33.2684 39.698 33.5848L39.1054 34.686C38.9351 35.0024 38.7368 35.3029 38.5128 35.5838L37.733 36.5615C37.509 36.8424 37.2602 37.1026 36.9897 37.339L36.0479 38.1618C35.7773 38.3982 35.4861 38.6098 35.1776 38.7941L34.1041 39.4355C33.7956 39.6198 33.4713 39.776 33.1349 39.9023L31.9641 40.3417C31.6277 40.4679 31.2807 40.5637 30.9272 40.6279L29.6966 40.8512C29.3431 40.9153 28.9846 40.9476 28.6253 40.9476H27.3747C27.0154 40.9476 26.6569 40.9153 26.3034 40.8512L25.0729 40.6279C24.7194 40.5637 24.3723 40.4679 24.0359 40.3417L22.8651 39.9023C22.5287 39.776 22.2044 39.6198 21.8959 39.4355L20.8224 38.7941C20.5139 38.6098 20.2227 38.3982 19.9521 38.1618L19.0103 37.339C18.7398 37.1026 18.491 36.8424 18.267 36.5615L17.4872 35.5838C17.2632 35.3029 17.0649 35.0024 16.8947 34.686L16.302 33.5848C16.1318 33.2684 15.9903 32.9374 15.8793 32.5957L15.4928 31.4063C15.3818 31.0646 15.3017 30.7136 15.2535 30.3576L15.0856 29.1183C15.0374 28.7623 15.0212 28.4026 15.0373 28.0437L15.0934 26.7944C15.1095 26.4354 15.1579 26.0787 15.2378 25.7284L15.5161 24.5092C15.5961 24.1589 15.7073 23.8165 15.8485 23.4861L16.34 22.3362C16.4812 22.0058 16.6518 21.6888 16.8498 21.3889L17.5387 20.3452C17.7366 20.0454 17.9611 19.7639 18.2094 19.5042L19.0736 18.6003C19.3219 18.3406 19.593 18.1038 19.8837 17.8926L20.8954 17.1575C21.1861 16.9463 21.4951 16.7617 21.8188 16.6058L22.9456 16.0632C23.2693 15.9073 23.6063 15.7808 23.9527 15.6852L25.1582 15.3525C25.5045 15.2569 25.8588 15.1926 26.2166 15.1604L27.4622 15.0483Z" fill="#194327"/>
</g>
<path d="M27.4622 2.04832C27.82 2.01612 28.18 2.01612 28.5378 2.04832L30.3191 2.20864C30.6769 2.24084 31.0311 2.30513 31.3775 2.40071L33.1015 2.8765C33.4478 2.97208 33.7848 3.09858 34.1085 3.25446L35.7199 4.03044C36.0436 4.18632 36.3526 4.37097 36.6433 4.58215L38.0901 5.63336C38.3808 5.84454 38.6519 6.0814 38.9002 6.34109L40.1361 7.63376C40.3844 7.89345 40.6089 8.17491 40.8068 8.47476L41.792 9.96734C41.99 10.2672 42.1606 10.5842 42.3018 10.9146L43.0047 12.5591C43.1459 12.8895 43.2571 13.2318 43.3371 13.5821L43.735 15.3257C43.815 15.676 43.8633 16.0327 43.8794 16.3917L43.9597 18.1783C43.9758 18.5372 43.9596 18.8968 43.9114 19.2529L43.6713 21.0251C43.6231 21.3812 43.543 21.7321 43.432 22.0738L42.8793 23.7747C42.7683 24.1164 42.6268 24.4475 42.4566 24.7638L41.6091 26.3387C41.4388 26.6551 41.2405 26.9556 41.0165 27.2365L39.9014 28.6347C39.6774 28.9156 39.4286 29.1758 39.1581 29.4122L37.8112 30.5889C37.5407 30.8253 37.2494 31.0369 36.941 31.2212L35.4057 32.1384C35.0973 32.3227 34.7729 32.4789 34.4366 32.6052L32.7622 33.2336C32.4258 33.3598 32.0788 33.4556 31.7253 33.5197L29.9656 33.8391C29.6121 33.9032 29.2535 33.9355 28.8942 33.9355H27.1058C26.7465 33.9355 26.388 33.9032 26.0344 33.8391L24.2747 33.5197C23.9212 33.4556 23.5742 33.3598 23.2378 33.2336L21.5634 32.6052C21.2271 32.4789 20.9027 32.3227 20.5943 32.1384L19.059 31.2212C18.7506 31.0369 18.4593 30.8253 18.1888 30.5889L16.842 29.4122C16.5714 29.1758 16.3226 28.9156 16.0986 28.6347L14.9835 27.2365C14.7595 26.9556 14.5612 26.6551 14.3909 26.3387L13.5435 24.7638C13.3732 24.4475 13.2317 24.1164 13.1207 23.7747L12.568 22.0738C12.457 21.7321 12.3769 21.3812 12.3287 21.0251L12.0886 19.2529C12.0404 18.8968 12.0242 18.5372 12.0403 18.1783L12.1206 16.3917C12.1367 16.0327 12.185 15.676 12.265 15.3257L12.6629 13.5821C12.7429 13.2318 12.8541 12.8895 12.9953 12.5591L13.6982 10.9146C13.8394 10.5842 14.01 10.2672 14.208 9.96734L15.1932 8.47476C15.3911 8.17491 15.6156 7.89345 15.8639 7.63376L17.0998 6.34109C17.3481 6.0814 17.6192 5.84454 17.9099 5.63336L19.3567 4.58215C19.6474 4.37097 19.9564 4.18632 20.2801 4.03044L21.8915 3.25446C22.2152 3.09858 22.5522 2.97208 22.8986 2.8765L24.6225 2.40071C24.9689 2.30513 25.3231 2.24084 25.6809 2.20864L27.4622 2.04832Z" fill="url(#paint0_linear_1992_2617)"/>
<path fill-rule="evenodd" clip-rule="evenodd" d="M29.4243 18.4321C29.3447 18.438 28.9337 18.4626 28.0169 18.4626C27.2877 18.4626 26.77 18.4407 26.5883 18.4321C23.7703 18.3081 21.6669 17.8175 21.6669 17.2302C21.6669 16.6429 23.7703 16.153 26.5883 16.027V17.9435C26.7726 17.9568 27.3003 17.9879 28.0295 17.9879C28.9045 17.9879 29.3427 17.9514 29.4216 17.9442V16.0283C32.2337 16.1536 34.3325 16.6442 34.3325 17.2302C34.3325 17.8162 32.2343 18.3068 29.4216 18.4314L29.4243 18.4321ZM29.4243 15.8301V14.1152H33.3487V11.5H22.6639V14.1152H26.5877V15.8295C23.3984 15.976 21 16.6077 21 17.3648C21 18.1218 23.3984 18.7529 26.5877 18.9001V24.3956H29.4236V18.8981C32.6056 18.7516 35 18.1205 35 17.3641C35 16.6077 32.6076 15.9766 29.4236 15.8295L29.4243 15.8301Z" fill="white"/>
<defs>
<filter id="filter0_f_1992_2617" x="10.0303" y="4.02417" width="35.9395" height="35.9275" filterUnits="userSpaceOnUse" color-interpolation-filters="sRGB">
<feFlood flood-opacity="0" result="BackgroundImageFix"/>
<feBlend mode="normal" in="SourceGraphic" in2="BackgroundImageFix" result="shape"/>
<feGaussianBlur stdDeviation="3" result="effect1_foregroundBlur_1992_2617"/>
</filter>
<filter id="filter1_f_1992_2617" x="0.0312805" y="0.0241699" width="55.9374" height="55.9233" filterUnits="userSpaceOnUse" color-interpolation-filters="sRGB">
<feFlood flood-opacity="0" result="BackgroundImageFix"/>
<feBlend mode="normal" in="SourceGraphic" in2="BackgroundImageFix" result="shape"/>
<feGaussianBlur stdDeviation="7.5" result="effect1_foregroundBlur_1992_2617"/>
</filter>
<linearGradient id="paint0_linear_1992_2617" x1="28" y1="2.02417" x2="28" y2="33.9355" gradientUnits="userSpaceOnUse">
<stop stop-color="#3FA862"/>
<stop offset="1" stop-color="#348D52"/>
</linearGradient>
</defs>
</svg>
