<svg width="34" height="34" viewBox="0 0 34 34" fill="none" xmlns="http://www.w3.org/2000/svg">
<rect width="34" height="34" rx="17" fill="#29844B"/>
<path d="M17.1197 17.78C17.0497 17.77 16.9597 17.77 16.8797 17.78C15.1197 17.72 13.7197 16.28 13.7197 14.51C13.7197 12.7 15.1797 11.23 16.9997 11.23C18.8097 11.23 20.2797 12.7 20.2797 14.51C20.2697 16.28 18.8797 17.72 17.1197 17.78Z" stroke="white" stroke-width="1.5" stroke-linecap="round" stroke-linejoin="round"/>
<path d="M23.74 24.3801C21.96 26.0101 19.6 27.0001 17 27.0001C14.4 27.0001 12.04 26.0101 10.26 24.3801C10.36 23.4401 10.96 22.5201 12.03 21.8001C14.77 19.9801 19.25 19.9801 21.97 21.8001C23.04 22.5201 23.64 23.4401 23.74 24.3801Z" stroke="white" stroke-width="1.5" stroke-linecap="round" stroke-linejoin="round"/>
<path d="M17 27C22.5228 27 27 22.5228 27 17C27 11.4772 22.5228 7 17 7C11.4772 7 7 11.4772 7 17C7 22.5228 11.4772 27 17 27Z" stroke="white" stroke-width="1.5" stroke-linecap="round" stroke-linejoin="round"/>
</svg>
