<svg width="24" height="25" viewBox="0 0 24 25" fill="none" xmlns="http://www.w3.org/2000/svg">
<path d="M9.5 13.9089C9.5 14.8789 10.25 15.6589 11.17 15.6589H13.05C13.85 15.6589 14.5 14.9789 14.5 14.1289C14.5 13.2189 14.1 12.8889 13.51 12.6789L10.5 11.6289C9.91 11.4189 9.51001 11.0989 9.51001 10.1789C9.51001 9.33892 10.16 8.64893 10.96 8.64893H12.84C13.76 8.64893 14.51 9.42893 14.51 10.3989" stroke="white" stroke-width="1.5" stroke-linecap="round" stroke-linejoin="round"/>
<path d="M12 7.65869V16.6587" stroke="white" stroke-width="1.5" stroke-linecap="round" stroke-linejoin="round"/>
<path d="M22 12.1587C22 17.6787 17.52 22.1587 12 22.1587C6.48 22.1587 2 17.6787 2 12.1587C2 6.63869 6.48 2.15869 12 2.15869" stroke="white" stroke-width="1.5" stroke-linecap="round" stroke-linejoin="round"/>
<path d="M22 6.15869V2.15869H18" stroke="white" stroke-width="1.5" stroke-linecap="round" stroke-linejoin="round"/>
<path d="M17 7.15869L22 2.15869" stroke="white" stroke-width="1.5" stroke-linecap="round" stroke-linejoin="round"/>
</svg>
